G04 #@! TF.GenerationSoftware,KiCad,Pcbnew,(5.0.1-dev-5-g30da1a3b0)*
G04 #@! TF.CreationDate,2018-07-23T01:39:50-07:00*
G04 #@! TF.ProjectId,clock3,636C6F636B332E6B696361645F706362,rev?*
G04 #@! TF.SameCoordinates,Original*
G04 #@! TF.FileFunction,Soldermask,Bot*
G04 #@! TF.FilePolarity,Negative*
%FSLAX46Y46*%
G04 Gerber Fmt 4.6, Leading zero omitted, Abs format (unit mm)*
G04 Created by KiCad (PCBNEW (5.0.1-dev-5-g30da1a3b0)) date Mon Jul 23 01:39:50 2018*
%MOMM*%
%LPD*%
G01*
G04 APERTURE LIST*
%ADD10C,3.901600*%
%ADD11R,2.001600X2.001600*%
%ADD12C,2.001600*%
%ADD13C,0.100000*%
%ADD14C,0.976600*%
%ADD15C,1.351600*%
%ADD16O,1.051600X1.351600*%
%ADD17O,1.651600X1.101600*%
%ADD18R,1.841600X2.301600*%
%ADD19O,1.841600X2.301600*%
%ADD20O,2.301600X1.841600*%
%ADD21R,2.301600X1.841600*%
%ADD22C,1.601600*%
G04 APERTURE END LIST*
D10*
G04 #@! TO.C,MK4*
X148844000Y-112776000D03*
G04 #@! TD*
G04 #@! TO.C,MK3*
X105410000Y-112776000D03*
G04 #@! TD*
G04 #@! TO.C,MK2*
X148844000Y-90170000D03*
G04 #@! TD*
D11*
G04 #@! TO.C,BOOT1*
X111760000Y-91440000D03*
D12*
X111760000Y-93940000D03*
X111760000Y-96440000D03*
G04 #@! TD*
G04 #@! TO.C,BOOT2*
X142240000Y-96440000D03*
X142240000Y-93940000D03*
D11*
X142240000Y-91440000D03*
G04 #@! TD*
D13*
G04 #@! TO.C,C10*
G36*
X117399581Y-113533376D02*
X117423281Y-113536891D01*
X117446523Y-113542713D01*
X117469082Y-113550785D01*
X117490742Y-113561029D01*
X117511292Y-113573347D01*
X117530537Y-113587619D01*
X117548290Y-113603710D01*
X117564381Y-113621463D01*
X117578653Y-113640708D01*
X117590971Y-113661258D01*
X117601215Y-113682918D01*
X117609287Y-113705477D01*
X117615109Y-113728719D01*
X117618624Y-113752419D01*
X117619800Y-113776350D01*
X117619800Y-114264650D01*
X117618624Y-114288581D01*
X117615109Y-114312281D01*
X117609287Y-114335523D01*
X117601215Y-114358082D01*
X117590971Y-114379742D01*
X117578653Y-114400292D01*
X117564381Y-114419537D01*
X117548290Y-114437290D01*
X117530537Y-114453381D01*
X117511292Y-114467653D01*
X117490742Y-114479971D01*
X117469082Y-114490215D01*
X117446523Y-114498287D01*
X117423281Y-114504109D01*
X117399581Y-114507624D01*
X117375650Y-114508800D01*
X116812350Y-114508800D01*
X116788419Y-114507624D01*
X116764719Y-114504109D01*
X116741477Y-114498287D01*
X116718918Y-114490215D01*
X116697258Y-114479971D01*
X116676708Y-114467653D01*
X116657463Y-114453381D01*
X116639710Y-114437290D01*
X116623619Y-114419537D01*
X116609347Y-114400292D01*
X116597029Y-114379742D01*
X116586785Y-114358082D01*
X116578713Y-114335523D01*
X116572891Y-114312281D01*
X116569376Y-114288581D01*
X116568200Y-114264650D01*
X116568200Y-113776350D01*
X116569376Y-113752419D01*
X116572891Y-113728719D01*
X116578713Y-113705477D01*
X116586785Y-113682918D01*
X116597029Y-113661258D01*
X116609347Y-113640708D01*
X116623619Y-113621463D01*
X116639710Y-113603710D01*
X116657463Y-113587619D01*
X116676708Y-113573347D01*
X116697258Y-113561029D01*
X116718918Y-113550785D01*
X116741477Y-113542713D01*
X116764719Y-113536891D01*
X116788419Y-113533376D01*
X116812350Y-113532200D01*
X117375650Y-113532200D01*
X117399581Y-113533376D01*
X117399581Y-113533376D01*
G37*
D14*
X117094000Y-114020500D03*
D13*
G36*
X117399581Y-115108376D02*
X117423281Y-115111891D01*
X117446523Y-115117713D01*
X117469082Y-115125785D01*
X117490742Y-115136029D01*
X117511292Y-115148347D01*
X117530537Y-115162619D01*
X117548290Y-115178710D01*
X117564381Y-115196463D01*
X117578653Y-115215708D01*
X117590971Y-115236258D01*
X117601215Y-115257918D01*
X117609287Y-115280477D01*
X117615109Y-115303719D01*
X117618624Y-115327419D01*
X117619800Y-115351350D01*
X117619800Y-115839650D01*
X117618624Y-115863581D01*
X117615109Y-115887281D01*
X117609287Y-115910523D01*
X117601215Y-115933082D01*
X117590971Y-115954742D01*
X117578653Y-115975292D01*
X117564381Y-115994537D01*
X117548290Y-116012290D01*
X117530537Y-116028381D01*
X117511292Y-116042653D01*
X117490742Y-116054971D01*
X117469082Y-116065215D01*
X117446523Y-116073287D01*
X117423281Y-116079109D01*
X117399581Y-116082624D01*
X117375650Y-116083800D01*
X116812350Y-116083800D01*
X116788419Y-116082624D01*
X116764719Y-116079109D01*
X116741477Y-116073287D01*
X116718918Y-116065215D01*
X116697258Y-116054971D01*
X116676708Y-116042653D01*
X116657463Y-116028381D01*
X116639710Y-116012290D01*
X116623619Y-115994537D01*
X116609347Y-115975292D01*
X116597029Y-115954742D01*
X116586785Y-115933082D01*
X116578713Y-115910523D01*
X116572891Y-115887281D01*
X116569376Y-115863581D01*
X116568200Y-115839650D01*
X116568200Y-115351350D01*
X116569376Y-115327419D01*
X116572891Y-115303719D01*
X116578713Y-115280477D01*
X116586785Y-115257918D01*
X116597029Y-115236258D01*
X116609347Y-115215708D01*
X116623619Y-115196463D01*
X116639710Y-115178710D01*
X116657463Y-115162619D01*
X116676708Y-115148347D01*
X116697258Y-115136029D01*
X116718918Y-115125785D01*
X116741477Y-115117713D01*
X116764719Y-115111891D01*
X116788419Y-115108376D01*
X116812350Y-115107200D01*
X117375650Y-115107200D01*
X117399581Y-115108376D01*
X117399581Y-115108376D01*
G37*
D14*
X117094000Y-115595500D03*
G04 #@! TD*
D13*
G04 #@! TO.C,C11*
G36*
X119177581Y-115108376D02*
X119201281Y-115111891D01*
X119224523Y-115117713D01*
X119247082Y-115125785D01*
X119268742Y-115136029D01*
X119289292Y-115148347D01*
X119308537Y-115162619D01*
X119326290Y-115178710D01*
X119342381Y-115196463D01*
X119356653Y-115215708D01*
X119368971Y-115236258D01*
X119379215Y-115257918D01*
X119387287Y-115280477D01*
X119393109Y-115303719D01*
X119396624Y-115327419D01*
X119397800Y-115351350D01*
X119397800Y-115839650D01*
X119396624Y-115863581D01*
X119393109Y-115887281D01*
X119387287Y-115910523D01*
X119379215Y-115933082D01*
X119368971Y-115954742D01*
X119356653Y-115975292D01*
X119342381Y-115994537D01*
X119326290Y-116012290D01*
X119308537Y-116028381D01*
X119289292Y-116042653D01*
X119268742Y-116054971D01*
X119247082Y-116065215D01*
X119224523Y-116073287D01*
X119201281Y-116079109D01*
X119177581Y-116082624D01*
X119153650Y-116083800D01*
X118590350Y-116083800D01*
X118566419Y-116082624D01*
X118542719Y-116079109D01*
X118519477Y-116073287D01*
X118496918Y-116065215D01*
X118475258Y-116054971D01*
X118454708Y-116042653D01*
X118435463Y-116028381D01*
X118417710Y-116012290D01*
X118401619Y-115994537D01*
X118387347Y-115975292D01*
X118375029Y-115954742D01*
X118364785Y-115933082D01*
X118356713Y-115910523D01*
X118350891Y-115887281D01*
X118347376Y-115863581D01*
X118346200Y-115839650D01*
X118346200Y-115351350D01*
X118347376Y-115327419D01*
X118350891Y-115303719D01*
X118356713Y-115280477D01*
X118364785Y-115257918D01*
X118375029Y-115236258D01*
X118387347Y-115215708D01*
X118401619Y-115196463D01*
X118417710Y-115178710D01*
X118435463Y-115162619D01*
X118454708Y-115148347D01*
X118475258Y-115136029D01*
X118496918Y-115125785D01*
X118519477Y-115117713D01*
X118542719Y-115111891D01*
X118566419Y-115108376D01*
X118590350Y-115107200D01*
X119153650Y-115107200D01*
X119177581Y-115108376D01*
X119177581Y-115108376D01*
G37*
D14*
X118872000Y-115595500D03*
D13*
G36*
X119177581Y-113533376D02*
X119201281Y-113536891D01*
X119224523Y-113542713D01*
X119247082Y-113550785D01*
X119268742Y-113561029D01*
X119289292Y-113573347D01*
X119308537Y-113587619D01*
X119326290Y-113603710D01*
X119342381Y-113621463D01*
X119356653Y-113640708D01*
X119368971Y-113661258D01*
X119379215Y-113682918D01*
X119387287Y-113705477D01*
X119393109Y-113728719D01*
X119396624Y-113752419D01*
X119397800Y-113776350D01*
X119397800Y-114264650D01*
X119396624Y-114288581D01*
X119393109Y-114312281D01*
X119387287Y-114335523D01*
X119379215Y-114358082D01*
X119368971Y-114379742D01*
X119356653Y-114400292D01*
X119342381Y-114419537D01*
X119326290Y-114437290D01*
X119308537Y-114453381D01*
X119289292Y-114467653D01*
X119268742Y-114479971D01*
X119247082Y-114490215D01*
X119224523Y-114498287D01*
X119201281Y-114504109D01*
X119177581Y-114507624D01*
X119153650Y-114508800D01*
X118590350Y-114508800D01*
X118566419Y-114507624D01*
X118542719Y-114504109D01*
X118519477Y-114498287D01*
X118496918Y-114490215D01*
X118475258Y-114479971D01*
X118454708Y-114467653D01*
X118435463Y-114453381D01*
X118417710Y-114437290D01*
X118401619Y-114419537D01*
X118387347Y-114400292D01*
X118375029Y-114379742D01*
X118364785Y-114358082D01*
X118356713Y-114335523D01*
X118350891Y-114312281D01*
X118347376Y-114288581D01*
X118346200Y-114264650D01*
X118346200Y-113776350D01*
X118347376Y-113752419D01*
X118350891Y-113728719D01*
X118356713Y-113705477D01*
X118364785Y-113682918D01*
X118375029Y-113661258D01*
X118387347Y-113640708D01*
X118401619Y-113621463D01*
X118417710Y-113603710D01*
X118435463Y-113587619D01*
X118454708Y-113573347D01*
X118475258Y-113561029D01*
X118496918Y-113550785D01*
X118519477Y-113542713D01*
X118542719Y-113536891D01*
X118566419Y-113533376D01*
X118590350Y-113532200D01*
X119153650Y-113532200D01*
X119177581Y-113533376D01*
X119177581Y-113533376D01*
G37*
D14*
X118872000Y-114020500D03*
G04 #@! TD*
D13*
G04 #@! TO.C,D1*
G36*
X139111976Y-80735502D02*
X139138217Y-80739394D01*
X139163950Y-80745840D01*
X139188927Y-80754777D01*
X139212908Y-80766119D01*
X139235662Y-80779757D01*
X139256969Y-80795560D01*
X139276625Y-80813375D01*
X139294440Y-80833031D01*
X139310243Y-80854338D01*
X139323881Y-80877092D01*
X139335223Y-80901073D01*
X139344160Y-80926050D01*
X139350606Y-80951783D01*
X139354498Y-80978024D01*
X139355800Y-81004520D01*
X139355800Y-81815480D01*
X139354498Y-81841976D01*
X139350606Y-81868217D01*
X139344160Y-81893950D01*
X139335223Y-81918927D01*
X139323881Y-81942908D01*
X139310243Y-81965662D01*
X139294440Y-81986969D01*
X139276625Y-82006625D01*
X139256969Y-82024440D01*
X139235662Y-82040243D01*
X139212908Y-82053881D01*
X139188927Y-82065223D01*
X139163950Y-82074160D01*
X139138217Y-82080606D01*
X139111976Y-82084498D01*
X139085480Y-82085800D01*
X137774520Y-82085800D01*
X137748024Y-82084498D01*
X137721783Y-82080606D01*
X137696050Y-82074160D01*
X137671073Y-82065223D01*
X137647092Y-82053881D01*
X137624338Y-82040243D01*
X137603031Y-82024440D01*
X137583375Y-82006625D01*
X137565560Y-81986969D01*
X137549757Y-81965662D01*
X137536119Y-81942908D01*
X137524777Y-81918927D01*
X137515840Y-81893950D01*
X137509394Y-81868217D01*
X137505502Y-81841976D01*
X137504200Y-81815480D01*
X137504200Y-81004520D01*
X137505502Y-80978024D01*
X137509394Y-80951783D01*
X137515840Y-80926050D01*
X137524777Y-80901073D01*
X137536119Y-80877092D01*
X137549757Y-80854338D01*
X137565560Y-80833031D01*
X137583375Y-80813375D01*
X137603031Y-80795560D01*
X137624338Y-80779757D01*
X137647092Y-80766119D01*
X137671073Y-80754777D01*
X137696050Y-80745840D01*
X137721783Y-80739394D01*
X137748024Y-80735502D01*
X137774520Y-80734200D01*
X139085480Y-80734200D01*
X139111976Y-80735502D01*
X139111976Y-80735502D01*
G37*
D15*
X138430000Y-81410000D03*
D13*
G36*
X139111976Y-77935502D02*
X139138217Y-77939394D01*
X139163950Y-77945840D01*
X139188927Y-77954777D01*
X139212908Y-77966119D01*
X139235662Y-77979757D01*
X139256969Y-77995560D01*
X139276625Y-78013375D01*
X139294440Y-78033031D01*
X139310243Y-78054338D01*
X139323881Y-78077092D01*
X139335223Y-78101073D01*
X139344160Y-78126050D01*
X139350606Y-78151783D01*
X139354498Y-78178024D01*
X139355800Y-78204520D01*
X139355800Y-79015480D01*
X139354498Y-79041976D01*
X139350606Y-79068217D01*
X139344160Y-79093950D01*
X139335223Y-79118927D01*
X139323881Y-79142908D01*
X139310243Y-79165662D01*
X139294440Y-79186969D01*
X139276625Y-79206625D01*
X139256969Y-79224440D01*
X139235662Y-79240243D01*
X139212908Y-79253881D01*
X139188927Y-79265223D01*
X139163950Y-79274160D01*
X139138217Y-79280606D01*
X139111976Y-79284498D01*
X139085480Y-79285800D01*
X137774520Y-79285800D01*
X137748024Y-79284498D01*
X137721783Y-79280606D01*
X137696050Y-79274160D01*
X137671073Y-79265223D01*
X137647092Y-79253881D01*
X137624338Y-79240243D01*
X137603031Y-79224440D01*
X137583375Y-79206625D01*
X137565560Y-79186969D01*
X137549757Y-79165662D01*
X137536119Y-79142908D01*
X137524777Y-79118927D01*
X137515840Y-79093950D01*
X137509394Y-79068217D01*
X137505502Y-79041976D01*
X137504200Y-79015480D01*
X137504200Y-78204520D01*
X137505502Y-78178024D01*
X137509394Y-78151783D01*
X137515840Y-78126050D01*
X137524777Y-78101073D01*
X137536119Y-78077092D01*
X137549757Y-78054338D01*
X137565560Y-78033031D01*
X137583375Y-78013375D01*
X137603031Y-77995560D01*
X137624338Y-77979757D01*
X137647092Y-77966119D01*
X137671073Y-77954777D01*
X137696050Y-77945840D01*
X137721783Y-77939394D01*
X137748024Y-77935502D01*
X137774520Y-77934200D01*
X139085480Y-77934200D01*
X139111976Y-77935502D01*
X139111976Y-77935502D01*
G37*
D15*
X138430000Y-78610000D03*
G04 #@! TD*
D13*
G04 #@! TO.C,D2*
G36*
X142921976Y-77935502D02*
X142948217Y-77939394D01*
X142973950Y-77945840D01*
X142998927Y-77954777D01*
X143022908Y-77966119D01*
X143045662Y-77979757D01*
X143066969Y-77995560D01*
X143086625Y-78013375D01*
X143104440Y-78033031D01*
X143120243Y-78054338D01*
X143133881Y-78077092D01*
X143145223Y-78101073D01*
X143154160Y-78126050D01*
X143160606Y-78151783D01*
X143164498Y-78178024D01*
X143165800Y-78204520D01*
X143165800Y-79015480D01*
X143164498Y-79041976D01*
X143160606Y-79068217D01*
X143154160Y-79093950D01*
X143145223Y-79118927D01*
X143133881Y-79142908D01*
X143120243Y-79165662D01*
X143104440Y-79186969D01*
X143086625Y-79206625D01*
X143066969Y-79224440D01*
X143045662Y-79240243D01*
X143022908Y-79253881D01*
X142998927Y-79265223D01*
X142973950Y-79274160D01*
X142948217Y-79280606D01*
X142921976Y-79284498D01*
X142895480Y-79285800D01*
X141584520Y-79285800D01*
X141558024Y-79284498D01*
X141531783Y-79280606D01*
X141506050Y-79274160D01*
X141481073Y-79265223D01*
X141457092Y-79253881D01*
X141434338Y-79240243D01*
X141413031Y-79224440D01*
X141393375Y-79206625D01*
X141375560Y-79186969D01*
X141359757Y-79165662D01*
X141346119Y-79142908D01*
X141334777Y-79118927D01*
X141325840Y-79093950D01*
X141319394Y-79068217D01*
X141315502Y-79041976D01*
X141314200Y-79015480D01*
X141314200Y-78204520D01*
X141315502Y-78178024D01*
X141319394Y-78151783D01*
X141325840Y-78126050D01*
X141334777Y-78101073D01*
X141346119Y-78077092D01*
X141359757Y-78054338D01*
X141375560Y-78033031D01*
X141393375Y-78013375D01*
X141413031Y-77995560D01*
X141434338Y-77979757D01*
X141457092Y-77966119D01*
X141481073Y-77954777D01*
X141506050Y-77945840D01*
X141531783Y-77939394D01*
X141558024Y-77935502D01*
X141584520Y-77934200D01*
X142895480Y-77934200D01*
X142921976Y-77935502D01*
X142921976Y-77935502D01*
G37*
D15*
X142240000Y-78610000D03*
D13*
G36*
X142921976Y-80735502D02*
X142948217Y-80739394D01*
X142973950Y-80745840D01*
X142998927Y-80754777D01*
X143022908Y-80766119D01*
X143045662Y-80779757D01*
X143066969Y-80795560D01*
X143086625Y-80813375D01*
X143104440Y-80833031D01*
X143120243Y-80854338D01*
X143133881Y-80877092D01*
X143145223Y-80901073D01*
X143154160Y-80926050D01*
X143160606Y-80951783D01*
X143164498Y-80978024D01*
X143165800Y-81004520D01*
X143165800Y-81815480D01*
X143164498Y-81841976D01*
X143160606Y-81868217D01*
X143154160Y-81893950D01*
X143145223Y-81918927D01*
X143133881Y-81942908D01*
X143120243Y-81965662D01*
X143104440Y-81986969D01*
X143086625Y-82006625D01*
X143066969Y-82024440D01*
X143045662Y-82040243D01*
X143022908Y-82053881D01*
X142998927Y-82065223D01*
X142973950Y-82074160D01*
X142948217Y-82080606D01*
X142921976Y-82084498D01*
X142895480Y-82085800D01*
X141584520Y-82085800D01*
X141558024Y-82084498D01*
X141531783Y-82080606D01*
X141506050Y-82074160D01*
X141481073Y-82065223D01*
X141457092Y-82053881D01*
X141434338Y-82040243D01*
X141413031Y-82024440D01*
X141393375Y-82006625D01*
X141375560Y-81986969D01*
X141359757Y-81965662D01*
X141346119Y-81942908D01*
X141334777Y-81918927D01*
X141325840Y-81893950D01*
X141319394Y-81868217D01*
X141315502Y-81841976D01*
X141314200Y-81815480D01*
X141314200Y-81004520D01*
X141315502Y-80978024D01*
X141319394Y-80951783D01*
X141325840Y-80926050D01*
X141334777Y-80901073D01*
X141346119Y-80877092D01*
X141359757Y-80854338D01*
X141375560Y-80833031D01*
X141393375Y-80813375D01*
X141413031Y-80795560D01*
X141434338Y-80779757D01*
X141457092Y-80766119D01*
X141481073Y-80754777D01*
X141506050Y-80745840D01*
X141531783Y-80739394D01*
X141558024Y-80735502D01*
X141584520Y-80734200D01*
X142895480Y-80734200D01*
X142921976Y-80735502D01*
X142921976Y-80735502D01*
G37*
D15*
X142240000Y-81410000D03*
G04 #@! TD*
D13*
G04 #@! TO.C,D3*
G36*
X146731976Y-77935502D02*
X146758217Y-77939394D01*
X146783950Y-77945840D01*
X146808927Y-77954777D01*
X146832908Y-77966119D01*
X146855662Y-77979757D01*
X146876969Y-77995560D01*
X146896625Y-78013375D01*
X146914440Y-78033031D01*
X146930243Y-78054338D01*
X146943881Y-78077092D01*
X146955223Y-78101073D01*
X146964160Y-78126050D01*
X146970606Y-78151783D01*
X146974498Y-78178024D01*
X146975800Y-78204520D01*
X146975800Y-79015480D01*
X146974498Y-79041976D01*
X146970606Y-79068217D01*
X146964160Y-79093950D01*
X146955223Y-79118927D01*
X146943881Y-79142908D01*
X146930243Y-79165662D01*
X146914440Y-79186969D01*
X146896625Y-79206625D01*
X146876969Y-79224440D01*
X146855662Y-79240243D01*
X146832908Y-79253881D01*
X146808927Y-79265223D01*
X146783950Y-79274160D01*
X146758217Y-79280606D01*
X146731976Y-79284498D01*
X146705480Y-79285800D01*
X145394520Y-79285800D01*
X145368024Y-79284498D01*
X145341783Y-79280606D01*
X145316050Y-79274160D01*
X145291073Y-79265223D01*
X145267092Y-79253881D01*
X145244338Y-79240243D01*
X145223031Y-79224440D01*
X145203375Y-79206625D01*
X145185560Y-79186969D01*
X145169757Y-79165662D01*
X145156119Y-79142908D01*
X145144777Y-79118927D01*
X145135840Y-79093950D01*
X145129394Y-79068217D01*
X145125502Y-79041976D01*
X145124200Y-79015480D01*
X145124200Y-78204520D01*
X145125502Y-78178024D01*
X145129394Y-78151783D01*
X145135840Y-78126050D01*
X145144777Y-78101073D01*
X145156119Y-78077092D01*
X145169757Y-78054338D01*
X145185560Y-78033031D01*
X145203375Y-78013375D01*
X145223031Y-77995560D01*
X145244338Y-77979757D01*
X145267092Y-77966119D01*
X145291073Y-77954777D01*
X145316050Y-77945840D01*
X145341783Y-77939394D01*
X145368024Y-77935502D01*
X145394520Y-77934200D01*
X146705480Y-77934200D01*
X146731976Y-77935502D01*
X146731976Y-77935502D01*
G37*
D15*
X146050000Y-78610000D03*
D13*
G36*
X146731976Y-80735502D02*
X146758217Y-80739394D01*
X146783950Y-80745840D01*
X146808927Y-80754777D01*
X146832908Y-80766119D01*
X146855662Y-80779757D01*
X146876969Y-80795560D01*
X146896625Y-80813375D01*
X146914440Y-80833031D01*
X146930243Y-80854338D01*
X146943881Y-80877092D01*
X146955223Y-80901073D01*
X146964160Y-80926050D01*
X146970606Y-80951783D01*
X146974498Y-80978024D01*
X146975800Y-81004520D01*
X146975800Y-81815480D01*
X146974498Y-81841976D01*
X146970606Y-81868217D01*
X146964160Y-81893950D01*
X146955223Y-81918927D01*
X146943881Y-81942908D01*
X146930243Y-81965662D01*
X146914440Y-81986969D01*
X146896625Y-82006625D01*
X146876969Y-82024440D01*
X146855662Y-82040243D01*
X146832908Y-82053881D01*
X146808927Y-82065223D01*
X146783950Y-82074160D01*
X146758217Y-82080606D01*
X146731976Y-82084498D01*
X146705480Y-82085800D01*
X145394520Y-82085800D01*
X145368024Y-82084498D01*
X145341783Y-82080606D01*
X145316050Y-82074160D01*
X145291073Y-82065223D01*
X145267092Y-82053881D01*
X145244338Y-82040243D01*
X145223031Y-82024440D01*
X145203375Y-82006625D01*
X145185560Y-81986969D01*
X145169757Y-81965662D01*
X145156119Y-81942908D01*
X145144777Y-81918927D01*
X145135840Y-81893950D01*
X145129394Y-81868217D01*
X145125502Y-81841976D01*
X145124200Y-81815480D01*
X145124200Y-81004520D01*
X145125502Y-80978024D01*
X145129394Y-80951783D01*
X145135840Y-80926050D01*
X145144777Y-80901073D01*
X145156119Y-80877092D01*
X145169757Y-80854338D01*
X145185560Y-80833031D01*
X145203375Y-80813375D01*
X145223031Y-80795560D01*
X145244338Y-80779757D01*
X145267092Y-80766119D01*
X145291073Y-80754777D01*
X145316050Y-80745840D01*
X145341783Y-80739394D01*
X145368024Y-80735502D01*
X145394520Y-80734200D01*
X146705480Y-80734200D01*
X146731976Y-80735502D01*
X146731976Y-80735502D01*
G37*
D15*
X146050000Y-81410000D03*
G04 #@! TD*
D13*
G04 #@! TO.C,D4*
G36*
X150541976Y-80735502D02*
X150568217Y-80739394D01*
X150593950Y-80745840D01*
X150618927Y-80754777D01*
X150642908Y-80766119D01*
X150665662Y-80779757D01*
X150686969Y-80795560D01*
X150706625Y-80813375D01*
X150724440Y-80833031D01*
X150740243Y-80854338D01*
X150753881Y-80877092D01*
X150765223Y-80901073D01*
X150774160Y-80926050D01*
X150780606Y-80951783D01*
X150784498Y-80978024D01*
X150785800Y-81004520D01*
X150785800Y-81815480D01*
X150784498Y-81841976D01*
X150780606Y-81868217D01*
X150774160Y-81893950D01*
X150765223Y-81918927D01*
X150753881Y-81942908D01*
X150740243Y-81965662D01*
X150724440Y-81986969D01*
X150706625Y-82006625D01*
X150686969Y-82024440D01*
X150665662Y-82040243D01*
X150642908Y-82053881D01*
X150618927Y-82065223D01*
X150593950Y-82074160D01*
X150568217Y-82080606D01*
X150541976Y-82084498D01*
X150515480Y-82085800D01*
X149204520Y-82085800D01*
X149178024Y-82084498D01*
X149151783Y-82080606D01*
X149126050Y-82074160D01*
X149101073Y-82065223D01*
X149077092Y-82053881D01*
X149054338Y-82040243D01*
X149033031Y-82024440D01*
X149013375Y-82006625D01*
X148995560Y-81986969D01*
X148979757Y-81965662D01*
X148966119Y-81942908D01*
X148954777Y-81918927D01*
X148945840Y-81893950D01*
X148939394Y-81868217D01*
X148935502Y-81841976D01*
X148934200Y-81815480D01*
X148934200Y-81004520D01*
X148935502Y-80978024D01*
X148939394Y-80951783D01*
X148945840Y-80926050D01*
X148954777Y-80901073D01*
X148966119Y-80877092D01*
X148979757Y-80854338D01*
X148995560Y-80833031D01*
X149013375Y-80813375D01*
X149033031Y-80795560D01*
X149054338Y-80779757D01*
X149077092Y-80766119D01*
X149101073Y-80754777D01*
X149126050Y-80745840D01*
X149151783Y-80739394D01*
X149178024Y-80735502D01*
X149204520Y-80734200D01*
X150515480Y-80734200D01*
X150541976Y-80735502D01*
X150541976Y-80735502D01*
G37*
D15*
X149860000Y-81410000D03*
D13*
G36*
X150541976Y-77935502D02*
X150568217Y-77939394D01*
X150593950Y-77945840D01*
X150618927Y-77954777D01*
X150642908Y-77966119D01*
X150665662Y-77979757D01*
X150686969Y-77995560D01*
X150706625Y-78013375D01*
X150724440Y-78033031D01*
X150740243Y-78054338D01*
X150753881Y-78077092D01*
X150765223Y-78101073D01*
X150774160Y-78126050D01*
X150780606Y-78151783D01*
X150784498Y-78178024D01*
X150785800Y-78204520D01*
X150785800Y-79015480D01*
X150784498Y-79041976D01*
X150780606Y-79068217D01*
X150774160Y-79093950D01*
X150765223Y-79118927D01*
X150753881Y-79142908D01*
X150740243Y-79165662D01*
X150724440Y-79186969D01*
X150706625Y-79206625D01*
X150686969Y-79224440D01*
X150665662Y-79240243D01*
X150642908Y-79253881D01*
X150618927Y-79265223D01*
X150593950Y-79274160D01*
X150568217Y-79280606D01*
X150541976Y-79284498D01*
X150515480Y-79285800D01*
X149204520Y-79285800D01*
X149178024Y-79284498D01*
X149151783Y-79280606D01*
X149126050Y-79274160D01*
X149101073Y-79265223D01*
X149077092Y-79253881D01*
X149054338Y-79240243D01*
X149033031Y-79224440D01*
X149013375Y-79206625D01*
X148995560Y-79186969D01*
X148979757Y-79165662D01*
X148966119Y-79142908D01*
X148954777Y-79118927D01*
X148945840Y-79093950D01*
X148939394Y-79068217D01*
X148935502Y-79041976D01*
X148934200Y-79015480D01*
X148934200Y-78204520D01*
X148935502Y-78178024D01*
X148939394Y-78151783D01*
X148945840Y-78126050D01*
X148954777Y-78101073D01*
X148966119Y-78077092D01*
X148979757Y-78054338D01*
X148995560Y-78033031D01*
X149013375Y-78013375D01*
X149033031Y-77995560D01*
X149054338Y-77979757D01*
X149077092Y-77966119D01*
X149101073Y-77954777D01*
X149126050Y-77945840D01*
X149151783Y-77939394D01*
X149178024Y-77935502D01*
X149204520Y-77934200D01*
X150515480Y-77934200D01*
X150541976Y-77935502D01*
X150541976Y-77935502D01*
G37*
D15*
X149860000Y-78610000D03*
G04 #@! TD*
D16*
G04 #@! TO.C,J1*
X107315000Y-85715000D03*
X107315000Y-80715000D03*
D17*
X104615000Y-79715000D03*
X104615000Y-86715000D03*
G04 #@! TD*
D18*
G04 #@! TO.C,J3*
X130810000Y-90170000D03*
D19*
X128270000Y-90170000D03*
X125730000Y-90170000D03*
X123190000Y-90170000D03*
X120650000Y-90170000D03*
X118110000Y-90170000D03*
G04 #@! TD*
D20*
G04 #@! TO.C,J4*
X105410000Y-95250000D03*
X105410000Y-97790000D03*
X105410000Y-100330000D03*
X105410000Y-102870000D03*
X105410000Y-105410000D03*
D21*
X105410000Y-107950000D03*
G04 #@! TD*
G04 #@! TO.C,J5*
X148590000Y-95250000D03*
D20*
X148590000Y-97790000D03*
X148590000Y-100330000D03*
X148590000Y-102870000D03*
X148590000Y-105410000D03*
X148590000Y-107950000D03*
G04 #@! TD*
D10*
G04 #@! TO.C,MK1*
X105410000Y-90170000D03*
G04 #@! TD*
D13*
G04 #@! TO.C,R3*
G36*
X139243581Y-97277376D02*
X139267281Y-97280891D01*
X139290523Y-97286713D01*
X139313082Y-97294785D01*
X139334742Y-97305029D01*
X139355292Y-97317347D01*
X139374537Y-97331619D01*
X139392290Y-97347710D01*
X139408381Y-97365463D01*
X139422653Y-97384708D01*
X139434971Y-97405258D01*
X139445215Y-97426918D01*
X139453287Y-97449477D01*
X139459109Y-97472719D01*
X139462624Y-97496419D01*
X139463800Y-97520350D01*
X139463800Y-98008650D01*
X139462624Y-98032581D01*
X139459109Y-98056281D01*
X139453287Y-98079523D01*
X139445215Y-98102082D01*
X139434971Y-98123742D01*
X139422653Y-98144292D01*
X139408381Y-98163537D01*
X139392290Y-98181290D01*
X139374537Y-98197381D01*
X139355292Y-98211653D01*
X139334742Y-98223971D01*
X139313082Y-98234215D01*
X139290523Y-98242287D01*
X139267281Y-98248109D01*
X139243581Y-98251624D01*
X139219650Y-98252800D01*
X138656350Y-98252800D01*
X138632419Y-98251624D01*
X138608719Y-98248109D01*
X138585477Y-98242287D01*
X138562918Y-98234215D01*
X138541258Y-98223971D01*
X138520708Y-98211653D01*
X138501463Y-98197381D01*
X138483710Y-98181290D01*
X138467619Y-98163537D01*
X138453347Y-98144292D01*
X138441029Y-98123742D01*
X138430785Y-98102082D01*
X138422713Y-98079523D01*
X138416891Y-98056281D01*
X138413376Y-98032581D01*
X138412200Y-98008650D01*
X138412200Y-97520350D01*
X138413376Y-97496419D01*
X138416891Y-97472719D01*
X138422713Y-97449477D01*
X138430785Y-97426918D01*
X138441029Y-97405258D01*
X138453347Y-97384708D01*
X138467619Y-97365463D01*
X138483710Y-97347710D01*
X138501463Y-97331619D01*
X138520708Y-97317347D01*
X138541258Y-97305029D01*
X138562918Y-97294785D01*
X138585477Y-97286713D01*
X138608719Y-97280891D01*
X138632419Y-97277376D01*
X138656350Y-97276200D01*
X139219650Y-97276200D01*
X139243581Y-97277376D01*
X139243581Y-97277376D01*
G37*
D14*
X138938000Y-97764500D03*
D13*
G36*
X139243581Y-98852376D02*
X139267281Y-98855891D01*
X139290523Y-98861713D01*
X139313082Y-98869785D01*
X139334742Y-98880029D01*
X139355292Y-98892347D01*
X139374537Y-98906619D01*
X139392290Y-98922710D01*
X139408381Y-98940463D01*
X139422653Y-98959708D01*
X139434971Y-98980258D01*
X139445215Y-99001918D01*
X139453287Y-99024477D01*
X139459109Y-99047719D01*
X139462624Y-99071419D01*
X139463800Y-99095350D01*
X139463800Y-99583650D01*
X139462624Y-99607581D01*
X139459109Y-99631281D01*
X139453287Y-99654523D01*
X139445215Y-99677082D01*
X139434971Y-99698742D01*
X139422653Y-99719292D01*
X139408381Y-99738537D01*
X139392290Y-99756290D01*
X139374537Y-99772381D01*
X139355292Y-99786653D01*
X139334742Y-99798971D01*
X139313082Y-99809215D01*
X139290523Y-99817287D01*
X139267281Y-99823109D01*
X139243581Y-99826624D01*
X139219650Y-99827800D01*
X138656350Y-99827800D01*
X138632419Y-99826624D01*
X138608719Y-99823109D01*
X138585477Y-99817287D01*
X138562918Y-99809215D01*
X138541258Y-99798971D01*
X138520708Y-99786653D01*
X138501463Y-99772381D01*
X138483710Y-99756290D01*
X138467619Y-99738537D01*
X138453347Y-99719292D01*
X138441029Y-99698742D01*
X138430785Y-99677082D01*
X138422713Y-99654523D01*
X138416891Y-99631281D01*
X138413376Y-99607581D01*
X138412200Y-99583650D01*
X138412200Y-99095350D01*
X138413376Y-99071419D01*
X138416891Y-99047719D01*
X138422713Y-99024477D01*
X138430785Y-99001918D01*
X138441029Y-98980258D01*
X138453347Y-98959708D01*
X138467619Y-98940463D01*
X138483710Y-98922710D01*
X138501463Y-98906619D01*
X138520708Y-98892347D01*
X138541258Y-98880029D01*
X138562918Y-98869785D01*
X138585477Y-98861713D01*
X138608719Y-98855891D01*
X138632419Y-98852376D01*
X138656350Y-98851200D01*
X139219650Y-98851200D01*
X139243581Y-98852376D01*
X139243581Y-98852376D01*
G37*
D14*
X138938000Y-99339500D03*
G04 #@! TD*
D13*
G04 #@! TO.C,R4*
G36*
X138735581Y-84120376D02*
X138759281Y-84123891D01*
X138782523Y-84129713D01*
X138805082Y-84137785D01*
X138826742Y-84148029D01*
X138847292Y-84160347D01*
X138866537Y-84174619D01*
X138884290Y-84190710D01*
X138900381Y-84208463D01*
X138914653Y-84227708D01*
X138926971Y-84248258D01*
X138937215Y-84269918D01*
X138945287Y-84292477D01*
X138951109Y-84315719D01*
X138954624Y-84339419D01*
X138955800Y-84363350D01*
X138955800Y-84851650D01*
X138954624Y-84875581D01*
X138951109Y-84899281D01*
X138945287Y-84922523D01*
X138937215Y-84945082D01*
X138926971Y-84966742D01*
X138914653Y-84987292D01*
X138900381Y-85006537D01*
X138884290Y-85024290D01*
X138866537Y-85040381D01*
X138847292Y-85054653D01*
X138826742Y-85066971D01*
X138805082Y-85077215D01*
X138782523Y-85085287D01*
X138759281Y-85091109D01*
X138735581Y-85094624D01*
X138711650Y-85095800D01*
X138148350Y-85095800D01*
X138124419Y-85094624D01*
X138100719Y-85091109D01*
X138077477Y-85085287D01*
X138054918Y-85077215D01*
X138033258Y-85066971D01*
X138012708Y-85054653D01*
X137993463Y-85040381D01*
X137975710Y-85024290D01*
X137959619Y-85006537D01*
X137945347Y-84987292D01*
X137933029Y-84966742D01*
X137922785Y-84945082D01*
X137914713Y-84922523D01*
X137908891Y-84899281D01*
X137905376Y-84875581D01*
X137904200Y-84851650D01*
X137904200Y-84363350D01*
X137905376Y-84339419D01*
X137908891Y-84315719D01*
X137914713Y-84292477D01*
X137922785Y-84269918D01*
X137933029Y-84248258D01*
X137945347Y-84227708D01*
X137959619Y-84208463D01*
X137975710Y-84190710D01*
X137993463Y-84174619D01*
X138012708Y-84160347D01*
X138033258Y-84148029D01*
X138054918Y-84137785D01*
X138077477Y-84129713D01*
X138100719Y-84123891D01*
X138124419Y-84120376D01*
X138148350Y-84119200D01*
X138711650Y-84119200D01*
X138735581Y-84120376D01*
X138735581Y-84120376D01*
G37*
D14*
X138430000Y-84607500D03*
D13*
G36*
X138735581Y-82545376D02*
X138759281Y-82548891D01*
X138782523Y-82554713D01*
X138805082Y-82562785D01*
X138826742Y-82573029D01*
X138847292Y-82585347D01*
X138866537Y-82599619D01*
X138884290Y-82615710D01*
X138900381Y-82633463D01*
X138914653Y-82652708D01*
X138926971Y-82673258D01*
X138937215Y-82694918D01*
X138945287Y-82717477D01*
X138951109Y-82740719D01*
X138954624Y-82764419D01*
X138955800Y-82788350D01*
X138955800Y-83276650D01*
X138954624Y-83300581D01*
X138951109Y-83324281D01*
X138945287Y-83347523D01*
X138937215Y-83370082D01*
X138926971Y-83391742D01*
X138914653Y-83412292D01*
X138900381Y-83431537D01*
X138884290Y-83449290D01*
X138866537Y-83465381D01*
X138847292Y-83479653D01*
X138826742Y-83491971D01*
X138805082Y-83502215D01*
X138782523Y-83510287D01*
X138759281Y-83516109D01*
X138735581Y-83519624D01*
X138711650Y-83520800D01*
X138148350Y-83520800D01*
X138124419Y-83519624D01*
X138100719Y-83516109D01*
X138077477Y-83510287D01*
X138054918Y-83502215D01*
X138033258Y-83491971D01*
X138012708Y-83479653D01*
X137993463Y-83465381D01*
X137975710Y-83449290D01*
X137959619Y-83431537D01*
X137945347Y-83412292D01*
X137933029Y-83391742D01*
X137922785Y-83370082D01*
X137914713Y-83347523D01*
X137908891Y-83324281D01*
X137905376Y-83300581D01*
X137904200Y-83276650D01*
X137904200Y-82788350D01*
X137905376Y-82764419D01*
X137908891Y-82740719D01*
X137914713Y-82717477D01*
X137922785Y-82694918D01*
X137933029Y-82673258D01*
X137945347Y-82652708D01*
X137959619Y-82633463D01*
X137975710Y-82615710D01*
X137993463Y-82599619D01*
X138012708Y-82585347D01*
X138033258Y-82573029D01*
X138054918Y-82562785D01*
X138077477Y-82554713D01*
X138100719Y-82548891D01*
X138124419Y-82545376D01*
X138148350Y-82544200D01*
X138711650Y-82544200D01*
X138735581Y-82545376D01*
X138735581Y-82545376D01*
G37*
D14*
X138430000Y-83032500D03*
G04 #@! TD*
D13*
G04 #@! TO.C,R5*
G36*
X142545581Y-82545376D02*
X142569281Y-82548891D01*
X142592523Y-82554713D01*
X142615082Y-82562785D01*
X142636742Y-82573029D01*
X142657292Y-82585347D01*
X142676537Y-82599619D01*
X142694290Y-82615710D01*
X142710381Y-82633463D01*
X142724653Y-82652708D01*
X142736971Y-82673258D01*
X142747215Y-82694918D01*
X142755287Y-82717477D01*
X142761109Y-82740719D01*
X142764624Y-82764419D01*
X142765800Y-82788350D01*
X142765800Y-83276650D01*
X142764624Y-83300581D01*
X142761109Y-83324281D01*
X142755287Y-83347523D01*
X142747215Y-83370082D01*
X142736971Y-83391742D01*
X142724653Y-83412292D01*
X142710381Y-83431537D01*
X142694290Y-83449290D01*
X142676537Y-83465381D01*
X142657292Y-83479653D01*
X142636742Y-83491971D01*
X142615082Y-83502215D01*
X142592523Y-83510287D01*
X142569281Y-83516109D01*
X142545581Y-83519624D01*
X142521650Y-83520800D01*
X141958350Y-83520800D01*
X141934419Y-83519624D01*
X141910719Y-83516109D01*
X141887477Y-83510287D01*
X141864918Y-83502215D01*
X141843258Y-83491971D01*
X141822708Y-83479653D01*
X141803463Y-83465381D01*
X141785710Y-83449290D01*
X141769619Y-83431537D01*
X141755347Y-83412292D01*
X141743029Y-83391742D01*
X141732785Y-83370082D01*
X141724713Y-83347523D01*
X141718891Y-83324281D01*
X141715376Y-83300581D01*
X141714200Y-83276650D01*
X141714200Y-82788350D01*
X141715376Y-82764419D01*
X141718891Y-82740719D01*
X141724713Y-82717477D01*
X141732785Y-82694918D01*
X141743029Y-82673258D01*
X141755347Y-82652708D01*
X141769619Y-82633463D01*
X141785710Y-82615710D01*
X141803463Y-82599619D01*
X141822708Y-82585347D01*
X141843258Y-82573029D01*
X141864918Y-82562785D01*
X141887477Y-82554713D01*
X141910719Y-82548891D01*
X141934419Y-82545376D01*
X141958350Y-82544200D01*
X142521650Y-82544200D01*
X142545581Y-82545376D01*
X142545581Y-82545376D01*
G37*
D14*
X142240000Y-83032500D03*
D13*
G36*
X142545581Y-84120376D02*
X142569281Y-84123891D01*
X142592523Y-84129713D01*
X142615082Y-84137785D01*
X142636742Y-84148029D01*
X142657292Y-84160347D01*
X142676537Y-84174619D01*
X142694290Y-84190710D01*
X142710381Y-84208463D01*
X142724653Y-84227708D01*
X142736971Y-84248258D01*
X142747215Y-84269918D01*
X142755287Y-84292477D01*
X142761109Y-84315719D01*
X142764624Y-84339419D01*
X142765800Y-84363350D01*
X142765800Y-84851650D01*
X142764624Y-84875581D01*
X142761109Y-84899281D01*
X142755287Y-84922523D01*
X142747215Y-84945082D01*
X142736971Y-84966742D01*
X142724653Y-84987292D01*
X142710381Y-85006537D01*
X142694290Y-85024290D01*
X142676537Y-85040381D01*
X142657292Y-85054653D01*
X142636742Y-85066971D01*
X142615082Y-85077215D01*
X142592523Y-85085287D01*
X142569281Y-85091109D01*
X142545581Y-85094624D01*
X142521650Y-85095800D01*
X141958350Y-85095800D01*
X141934419Y-85094624D01*
X141910719Y-85091109D01*
X141887477Y-85085287D01*
X141864918Y-85077215D01*
X141843258Y-85066971D01*
X141822708Y-85054653D01*
X141803463Y-85040381D01*
X141785710Y-85024290D01*
X141769619Y-85006537D01*
X141755347Y-84987292D01*
X141743029Y-84966742D01*
X141732785Y-84945082D01*
X141724713Y-84922523D01*
X141718891Y-84899281D01*
X141715376Y-84875581D01*
X141714200Y-84851650D01*
X141714200Y-84363350D01*
X141715376Y-84339419D01*
X141718891Y-84315719D01*
X141724713Y-84292477D01*
X141732785Y-84269918D01*
X141743029Y-84248258D01*
X141755347Y-84227708D01*
X141769619Y-84208463D01*
X141785710Y-84190710D01*
X141803463Y-84174619D01*
X141822708Y-84160347D01*
X141843258Y-84148029D01*
X141864918Y-84137785D01*
X141887477Y-84129713D01*
X141910719Y-84123891D01*
X141934419Y-84120376D01*
X141958350Y-84119200D01*
X142521650Y-84119200D01*
X142545581Y-84120376D01*
X142545581Y-84120376D01*
G37*
D14*
X142240000Y-84607500D03*
G04 #@! TD*
D13*
G04 #@! TO.C,R6*
G36*
X146355581Y-84120376D02*
X146379281Y-84123891D01*
X146402523Y-84129713D01*
X146425082Y-84137785D01*
X146446742Y-84148029D01*
X146467292Y-84160347D01*
X146486537Y-84174619D01*
X146504290Y-84190710D01*
X146520381Y-84208463D01*
X146534653Y-84227708D01*
X146546971Y-84248258D01*
X146557215Y-84269918D01*
X146565287Y-84292477D01*
X146571109Y-84315719D01*
X146574624Y-84339419D01*
X146575800Y-84363350D01*
X146575800Y-84851650D01*
X146574624Y-84875581D01*
X146571109Y-84899281D01*
X146565287Y-84922523D01*
X146557215Y-84945082D01*
X146546971Y-84966742D01*
X146534653Y-84987292D01*
X146520381Y-85006537D01*
X146504290Y-85024290D01*
X146486537Y-85040381D01*
X146467292Y-85054653D01*
X146446742Y-85066971D01*
X146425082Y-85077215D01*
X146402523Y-85085287D01*
X146379281Y-85091109D01*
X146355581Y-85094624D01*
X146331650Y-85095800D01*
X145768350Y-85095800D01*
X145744419Y-85094624D01*
X145720719Y-85091109D01*
X145697477Y-85085287D01*
X145674918Y-85077215D01*
X145653258Y-85066971D01*
X145632708Y-85054653D01*
X145613463Y-85040381D01*
X145595710Y-85024290D01*
X145579619Y-85006537D01*
X145565347Y-84987292D01*
X145553029Y-84966742D01*
X145542785Y-84945082D01*
X145534713Y-84922523D01*
X145528891Y-84899281D01*
X145525376Y-84875581D01*
X145524200Y-84851650D01*
X145524200Y-84363350D01*
X145525376Y-84339419D01*
X145528891Y-84315719D01*
X145534713Y-84292477D01*
X145542785Y-84269918D01*
X145553029Y-84248258D01*
X145565347Y-84227708D01*
X145579619Y-84208463D01*
X145595710Y-84190710D01*
X145613463Y-84174619D01*
X145632708Y-84160347D01*
X145653258Y-84148029D01*
X145674918Y-84137785D01*
X145697477Y-84129713D01*
X145720719Y-84123891D01*
X145744419Y-84120376D01*
X145768350Y-84119200D01*
X146331650Y-84119200D01*
X146355581Y-84120376D01*
X146355581Y-84120376D01*
G37*
D14*
X146050000Y-84607500D03*
D13*
G36*
X146355581Y-82545376D02*
X146379281Y-82548891D01*
X146402523Y-82554713D01*
X146425082Y-82562785D01*
X146446742Y-82573029D01*
X146467292Y-82585347D01*
X146486537Y-82599619D01*
X146504290Y-82615710D01*
X146520381Y-82633463D01*
X146534653Y-82652708D01*
X146546971Y-82673258D01*
X146557215Y-82694918D01*
X146565287Y-82717477D01*
X146571109Y-82740719D01*
X146574624Y-82764419D01*
X146575800Y-82788350D01*
X146575800Y-83276650D01*
X146574624Y-83300581D01*
X146571109Y-83324281D01*
X146565287Y-83347523D01*
X146557215Y-83370082D01*
X146546971Y-83391742D01*
X146534653Y-83412292D01*
X146520381Y-83431537D01*
X146504290Y-83449290D01*
X146486537Y-83465381D01*
X146467292Y-83479653D01*
X146446742Y-83491971D01*
X146425082Y-83502215D01*
X146402523Y-83510287D01*
X146379281Y-83516109D01*
X146355581Y-83519624D01*
X146331650Y-83520800D01*
X145768350Y-83520800D01*
X145744419Y-83519624D01*
X145720719Y-83516109D01*
X145697477Y-83510287D01*
X145674918Y-83502215D01*
X145653258Y-83491971D01*
X145632708Y-83479653D01*
X145613463Y-83465381D01*
X145595710Y-83449290D01*
X145579619Y-83431537D01*
X145565347Y-83412292D01*
X145553029Y-83391742D01*
X145542785Y-83370082D01*
X145534713Y-83347523D01*
X145528891Y-83324281D01*
X145525376Y-83300581D01*
X145524200Y-83276650D01*
X145524200Y-82788350D01*
X145525376Y-82764419D01*
X145528891Y-82740719D01*
X145534713Y-82717477D01*
X145542785Y-82694918D01*
X145553029Y-82673258D01*
X145565347Y-82652708D01*
X145579619Y-82633463D01*
X145595710Y-82615710D01*
X145613463Y-82599619D01*
X145632708Y-82585347D01*
X145653258Y-82573029D01*
X145674918Y-82562785D01*
X145697477Y-82554713D01*
X145720719Y-82548891D01*
X145744419Y-82545376D01*
X145768350Y-82544200D01*
X146331650Y-82544200D01*
X146355581Y-82545376D01*
X146355581Y-82545376D01*
G37*
D14*
X146050000Y-83032500D03*
G04 #@! TD*
D13*
G04 #@! TO.C,R7*
G36*
X150165581Y-84120376D02*
X150189281Y-84123891D01*
X150212523Y-84129713D01*
X150235082Y-84137785D01*
X150256742Y-84148029D01*
X150277292Y-84160347D01*
X150296537Y-84174619D01*
X150314290Y-84190710D01*
X150330381Y-84208463D01*
X150344653Y-84227708D01*
X150356971Y-84248258D01*
X150367215Y-84269918D01*
X150375287Y-84292477D01*
X150381109Y-84315719D01*
X150384624Y-84339419D01*
X150385800Y-84363350D01*
X150385800Y-84851650D01*
X150384624Y-84875581D01*
X150381109Y-84899281D01*
X150375287Y-84922523D01*
X150367215Y-84945082D01*
X150356971Y-84966742D01*
X150344653Y-84987292D01*
X150330381Y-85006537D01*
X150314290Y-85024290D01*
X150296537Y-85040381D01*
X150277292Y-85054653D01*
X150256742Y-85066971D01*
X150235082Y-85077215D01*
X150212523Y-85085287D01*
X150189281Y-85091109D01*
X150165581Y-85094624D01*
X150141650Y-85095800D01*
X149578350Y-85095800D01*
X149554419Y-85094624D01*
X149530719Y-85091109D01*
X149507477Y-85085287D01*
X149484918Y-85077215D01*
X149463258Y-85066971D01*
X149442708Y-85054653D01*
X149423463Y-85040381D01*
X149405710Y-85024290D01*
X149389619Y-85006537D01*
X149375347Y-84987292D01*
X149363029Y-84966742D01*
X149352785Y-84945082D01*
X149344713Y-84922523D01*
X149338891Y-84899281D01*
X149335376Y-84875581D01*
X149334200Y-84851650D01*
X149334200Y-84363350D01*
X149335376Y-84339419D01*
X149338891Y-84315719D01*
X149344713Y-84292477D01*
X149352785Y-84269918D01*
X149363029Y-84248258D01*
X149375347Y-84227708D01*
X149389619Y-84208463D01*
X149405710Y-84190710D01*
X149423463Y-84174619D01*
X149442708Y-84160347D01*
X149463258Y-84148029D01*
X149484918Y-84137785D01*
X149507477Y-84129713D01*
X149530719Y-84123891D01*
X149554419Y-84120376D01*
X149578350Y-84119200D01*
X150141650Y-84119200D01*
X150165581Y-84120376D01*
X150165581Y-84120376D01*
G37*
D14*
X149860000Y-84607500D03*
D13*
G36*
X150165581Y-82545376D02*
X150189281Y-82548891D01*
X150212523Y-82554713D01*
X150235082Y-82562785D01*
X150256742Y-82573029D01*
X150277292Y-82585347D01*
X150296537Y-82599619D01*
X150314290Y-82615710D01*
X150330381Y-82633463D01*
X150344653Y-82652708D01*
X150356971Y-82673258D01*
X150367215Y-82694918D01*
X150375287Y-82717477D01*
X150381109Y-82740719D01*
X150384624Y-82764419D01*
X150385800Y-82788350D01*
X150385800Y-83276650D01*
X150384624Y-83300581D01*
X150381109Y-83324281D01*
X150375287Y-83347523D01*
X150367215Y-83370082D01*
X150356971Y-83391742D01*
X150344653Y-83412292D01*
X150330381Y-83431537D01*
X150314290Y-83449290D01*
X150296537Y-83465381D01*
X150277292Y-83479653D01*
X150256742Y-83491971D01*
X150235082Y-83502215D01*
X150212523Y-83510287D01*
X150189281Y-83516109D01*
X150165581Y-83519624D01*
X150141650Y-83520800D01*
X149578350Y-83520800D01*
X149554419Y-83519624D01*
X149530719Y-83516109D01*
X149507477Y-83510287D01*
X149484918Y-83502215D01*
X149463258Y-83491971D01*
X149442708Y-83479653D01*
X149423463Y-83465381D01*
X149405710Y-83449290D01*
X149389619Y-83431537D01*
X149375347Y-83412292D01*
X149363029Y-83391742D01*
X149352785Y-83370082D01*
X149344713Y-83347523D01*
X149338891Y-83324281D01*
X149335376Y-83300581D01*
X149334200Y-83276650D01*
X149334200Y-82788350D01*
X149335376Y-82764419D01*
X149338891Y-82740719D01*
X149344713Y-82717477D01*
X149352785Y-82694918D01*
X149363029Y-82673258D01*
X149375347Y-82652708D01*
X149389619Y-82633463D01*
X149405710Y-82615710D01*
X149423463Y-82599619D01*
X149442708Y-82585347D01*
X149463258Y-82573029D01*
X149484918Y-82562785D01*
X149507477Y-82554713D01*
X149530719Y-82548891D01*
X149554419Y-82545376D01*
X149578350Y-82544200D01*
X150141650Y-82544200D01*
X150165581Y-82545376D01*
X150165581Y-82545376D01*
G37*
D14*
X149860000Y-83032500D03*
G04 #@! TD*
D22*
G04 #@! TO.C,Y1*
X122990000Y-123952000D03*
X118110000Y-123952000D03*
G04 #@! TD*
M02*
