G04 #@! TF.GenerationSoftware,KiCad,Pcbnew,(5.0.1-dev-5-g30da1a3b0)*
G04 #@! TF.CreationDate,2018-07-23T01:39:50-07:00*
G04 #@! TF.ProjectId,clock3,636C6F636B332E6B696361645F706362,rev?*
G04 #@! TF.SameCoordinates,Original*
G04 #@! TF.FileFunction,Soldermask,Top*
G04 #@! TF.FilePolarity,Negative*
%FSLAX46Y46*%
G04 Gerber Fmt 4.6, Leading zero omitted, Abs format (unit mm)*
G04 Created by KiCad (PCBNEW (5.0.1-dev-5-g30da1a3b0)) date Mon Jul 23 01:39:50 2018*
%MOMM*%
%LPD*%
G01*
G04 APERTURE LIST*
%ADD10C,3.901600*%
%ADD11R,2.001600X2.001600*%
%ADD12C,2.001600*%
%ADD13C,0.100000*%
%ADD14C,0.976600*%
%ADD15C,1.076600*%
%ADD16R,1.451600X0.501600*%
%ADD17O,1.051600X1.351600*%
%ADD18O,1.651600X1.101600*%
%ADD19R,1.841600X2.301600*%
%ADD20O,1.841600X2.301600*%
%ADD21O,2.301600X1.841600*%
%ADD22R,2.301600X1.841600*%
%ADD23R,0.901600X1.801600*%
%ADD24R,1.801600X0.901600*%
%ADD25R,2.301600X1.601600*%
%ADD26R,2.301600X3.901600*%
%ADD27R,0.351600X1.101600*%
%ADD28R,1.101600X0.351600*%
%ADD29R,2.601600X1.101600*%
%ADD30C,1.601600*%
%ADD31R,1.501600X0.501600*%
%ADD32R,0.601600X0.301600*%
G04 APERTURE END LIST*
D10*
G04 #@! TO.C,MK4*
X148844000Y-112776000D03*
G04 #@! TD*
G04 #@! TO.C,MK3*
X105410000Y-112776000D03*
G04 #@! TD*
G04 #@! TO.C,MK2*
X148844000Y-90170000D03*
G04 #@! TD*
D11*
G04 #@! TO.C,BOOT1*
X111760000Y-91440000D03*
D12*
X111760000Y-93940000D03*
X111760000Y-96440000D03*
G04 #@! TD*
G04 #@! TO.C,BOOT2*
X142240000Y-96440000D03*
X142240000Y-93940000D03*
D11*
X142240000Y-91440000D03*
G04 #@! TD*
D13*
G04 #@! TO.C,C1*
G36*
X111063081Y-83930376D02*
X111086781Y-83933891D01*
X111110023Y-83939713D01*
X111132582Y-83947785D01*
X111154242Y-83958029D01*
X111174792Y-83970347D01*
X111194037Y-83984619D01*
X111211790Y-84000710D01*
X111227881Y-84018463D01*
X111242153Y-84037708D01*
X111254471Y-84058258D01*
X111264715Y-84079918D01*
X111272787Y-84102477D01*
X111278609Y-84125719D01*
X111282124Y-84149419D01*
X111283300Y-84173350D01*
X111283300Y-84736650D01*
X111282124Y-84760581D01*
X111278609Y-84784281D01*
X111272787Y-84807523D01*
X111264715Y-84830082D01*
X111254471Y-84851742D01*
X111242153Y-84872292D01*
X111227881Y-84891537D01*
X111211790Y-84909290D01*
X111194037Y-84925381D01*
X111174792Y-84939653D01*
X111154242Y-84951971D01*
X111132582Y-84962215D01*
X111110023Y-84970287D01*
X111086781Y-84976109D01*
X111063081Y-84979624D01*
X111039150Y-84980800D01*
X110550850Y-84980800D01*
X110526919Y-84979624D01*
X110503219Y-84976109D01*
X110479977Y-84970287D01*
X110457418Y-84962215D01*
X110435758Y-84951971D01*
X110415208Y-84939653D01*
X110395963Y-84925381D01*
X110378210Y-84909290D01*
X110362119Y-84891537D01*
X110347847Y-84872292D01*
X110335529Y-84851742D01*
X110325285Y-84830082D01*
X110317213Y-84807523D01*
X110311391Y-84784281D01*
X110307876Y-84760581D01*
X110306700Y-84736650D01*
X110306700Y-84173350D01*
X110307876Y-84149419D01*
X110311391Y-84125719D01*
X110317213Y-84102477D01*
X110325285Y-84079918D01*
X110335529Y-84058258D01*
X110347847Y-84037708D01*
X110362119Y-84018463D01*
X110378210Y-84000710D01*
X110395963Y-83984619D01*
X110415208Y-83970347D01*
X110435758Y-83958029D01*
X110457418Y-83947785D01*
X110479977Y-83939713D01*
X110503219Y-83933891D01*
X110526919Y-83930376D01*
X110550850Y-83929200D01*
X111039150Y-83929200D01*
X111063081Y-83930376D01*
X111063081Y-83930376D01*
G37*
D14*
X110795000Y-84455000D03*
D13*
G36*
X109488081Y-83930376D02*
X109511781Y-83933891D01*
X109535023Y-83939713D01*
X109557582Y-83947785D01*
X109579242Y-83958029D01*
X109599792Y-83970347D01*
X109619037Y-83984619D01*
X109636790Y-84000710D01*
X109652881Y-84018463D01*
X109667153Y-84037708D01*
X109679471Y-84058258D01*
X109689715Y-84079918D01*
X109697787Y-84102477D01*
X109703609Y-84125719D01*
X109707124Y-84149419D01*
X109708300Y-84173350D01*
X109708300Y-84736650D01*
X109707124Y-84760581D01*
X109703609Y-84784281D01*
X109697787Y-84807523D01*
X109689715Y-84830082D01*
X109679471Y-84851742D01*
X109667153Y-84872292D01*
X109652881Y-84891537D01*
X109636790Y-84909290D01*
X109619037Y-84925381D01*
X109599792Y-84939653D01*
X109579242Y-84951971D01*
X109557582Y-84962215D01*
X109535023Y-84970287D01*
X109511781Y-84976109D01*
X109488081Y-84979624D01*
X109464150Y-84980800D01*
X108975850Y-84980800D01*
X108951919Y-84979624D01*
X108928219Y-84976109D01*
X108904977Y-84970287D01*
X108882418Y-84962215D01*
X108860758Y-84951971D01*
X108840208Y-84939653D01*
X108820963Y-84925381D01*
X108803210Y-84909290D01*
X108787119Y-84891537D01*
X108772847Y-84872292D01*
X108760529Y-84851742D01*
X108750285Y-84830082D01*
X108742213Y-84807523D01*
X108736391Y-84784281D01*
X108732876Y-84760581D01*
X108731700Y-84736650D01*
X108731700Y-84173350D01*
X108732876Y-84149419D01*
X108736391Y-84125719D01*
X108742213Y-84102477D01*
X108750285Y-84079918D01*
X108760529Y-84058258D01*
X108772847Y-84037708D01*
X108787119Y-84018463D01*
X108803210Y-84000710D01*
X108820963Y-83984619D01*
X108840208Y-83970347D01*
X108860758Y-83958029D01*
X108882418Y-83947785D01*
X108904977Y-83939713D01*
X108928219Y-83933891D01*
X108951919Y-83930376D01*
X108975850Y-83929200D01*
X109464150Y-83929200D01*
X109488081Y-83930376D01*
X109488081Y-83930376D01*
G37*
D14*
X109220000Y-84455000D03*
G04 #@! TD*
D13*
G04 #@! TO.C,C2*
G36*
X113933081Y-83930376D02*
X113956781Y-83933891D01*
X113980023Y-83939713D01*
X114002582Y-83947785D01*
X114024242Y-83958029D01*
X114044792Y-83970347D01*
X114064037Y-83984619D01*
X114081790Y-84000710D01*
X114097881Y-84018463D01*
X114112153Y-84037708D01*
X114124471Y-84058258D01*
X114134715Y-84079918D01*
X114142787Y-84102477D01*
X114148609Y-84125719D01*
X114152124Y-84149419D01*
X114153300Y-84173350D01*
X114153300Y-84736650D01*
X114152124Y-84760581D01*
X114148609Y-84784281D01*
X114142787Y-84807523D01*
X114134715Y-84830082D01*
X114124471Y-84851742D01*
X114112153Y-84872292D01*
X114097881Y-84891537D01*
X114081790Y-84909290D01*
X114064037Y-84925381D01*
X114044792Y-84939653D01*
X114024242Y-84951971D01*
X114002582Y-84962215D01*
X113980023Y-84970287D01*
X113956781Y-84976109D01*
X113933081Y-84979624D01*
X113909150Y-84980800D01*
X113420850Y-84980800D01*
X113396919Y-84979624D01*
X113373219Y-84976109D01*
X113349977Y-84970287D01*
X113327418Y-84962215D01*
X113305758Y-84951971D01*
X113285208Y-84939653D01*
X113265963Y-84925381D01*
X113248210Y-84909290D01*
X113232119Y-84891537D01*
X113217847Y-84872292D01*
X113205529Y-84851742D01*
X113195285Y-84830082D01*
X113187213Y-84807523D01*
X113181391Y-84784281D01*
X113177876Y-84760581D01*
X113176700Y-84736650D01*
X113176700Y-84173350D01*
X113177876Y-84149419D01*
X113181391Y-84125719D01*
X113187213Y-84102477D01*
X113195285Y-84079918D01*
X113205529Y-84058258D01*
X113217847Y-84037708D01*
X113232119Y-84018463D01*
X113248210Y-84000710D01*
X113265963Y-83984619D01*
X113285208Y-83970347D01*
X113305758Y-83958029D01*
X113327418Y-83947785D01*
X113349977Y-83939713D01*
X113373219Y-83933891D01*
X113396919Y-83930376D01*
X113420850Y-83929200D01*
X113909150Y-83929200D01*
X113933081Y-83930376D01*
X113933081Y-83930376D01*
G37*
D14*
X113665000Y-84455000D03*
D13*
G36*
X112358081Y-83930376D02*
X112381781Y-83933891D01*
X112405023Y-83939713D01*
X112427582Y-83947785D01*
X112449242Y-83958029D01*
X112469792Y-83970347D01*
X112489037Y-83984619D01*
X112506790Y-84000710D01*
X112522881Y-84018463D01*
X112537153Y-84037708D01*
X112549471Y-84058258D01*
X112559715Y-84079918D01*
X112567787Y-84102477D01*
X112573609Y-84125719D01*
X112577124Y-84149419D01*
X112578300Y-84173350D01*
X112578300Y-84736650D01*
X112577124Y-84760581D01*
X112573609Y-84784281D01*
X112567787Y-84807523D01*
X112559715Y-84830082D01*
X112549471Y-84851742D01*
X112537153Y-84872292D01*
X112522881Y-84891537D01*
X112506790Y-84909290D01*
X112489037Y-84925381D01*
X112469792Y-84939653D01*
X112449242Y-84951971D01*
X112427582Y-84962215D01*
X112405023Y-84970287D01*
X112381781Y-84976109D01*
X112358081Y-84979624D01*
X112334150Y-84980800D01*
X111845850Y-84980800D01*
X111821919Y-84979624D01*
X111798219Y-84976109D01*
X111774977Y-84970287D01*
X111752418Y-84962215D01*
X111730758Y-84951971D01*
X111710208Y-84939653D01*
X111690963Y-84925381D01*
X111673210Y-84909290D01*
X111657119Y-84891537D01*
X111642847Y-84872292D01*
X111630529Y-84851742D01*
X111620285Y-84830082D01*
X111612213Y-84807523D01*
X111606391Y-84784281D01*
X111602876Y-84760581D01*
X111601700Y-84736650D01*
X111601700Y-84173350D01*
X111602876Y-84149419D01*
X111606391Y-84125719D01*
X111612213Y-84102477D01*
X111620285Y-84079918D01*
X111630529Y-84058258D01*
X111642847Y-84037708D01*
X111657119Y-84018463D01*
X111673210Y-84000710D01*
X111690963Y-83984619D01*
X111710208Y-83970347D01*
X111730758Y-83958029D01*
X111752418Y-83947785D01*
X111774977Y-83939713D01*
X111798219Y-83933891D01*
X111821919Y-83930376D01*
X111845850Y-83929200D01*
X112334150Y-83929200D01*
X112358081Y-83930376D01*
X112358081Y-83930376D01*
G37*
D14*
X112090000Y-84455000D03*
G04 #@! TD*
D13*
G04 #@! TO.C,C3*
G36*
X115865531Y-83705496D02*
X115891659Y-83709372D01*
X115917280Y-83715790D01*
X115942149Y-83724688D01*
X115966026Y-83735981D01*
X115988682Y-83749560D01*
X116009897Y-83765294D01*
X116029468Y-83783032D01*
X116047206Y-83802603D01*
X116062940Y-83823818D01*
X116076519Y-83846474D01*
X116087812Y-83870351D01*
X116096710Y-83895220D01*
X116103128Y-83920841D01*
X116107004Y-83946969D01*
X116108300Y-83973350D01*
X116108300Y-84936650D01*
X116107004Y-84963031D01*
X116103128Y-84989159D01*
X116096710Y-85014780D01*
X116087812Y-85039649D01*
X116076519Y-85063526D01*
X116062940Y-85086182D01*
X116047206Y-85107397D01*
X116029468Y-85126968D01*
X116009897Y-85144706D01*
X115988682Y-85160440D01*
X115966026Y-85174019D01*
X115942149Y-85185312D01*
X115917280Y-85194210D01*
X115891659Y-85200628D01*
X115865531Y-85204504D01*
X115839150Y-85205800D01*
X115300850Y-85205800D01*
X115274469Y-85204504D01*
X115248341Y-85200628D01*
X115222720Y-85194210D01*
X115197851Y-85185312D01*
X115173974Y-85174019D01*
X115151318Y-85160440D01*
X115130103Y-85144706D01*
X115110532Y-85126968D01*
X115092794Y-85107397D01*
X115077060Y-85086182D01*
X115063481Y-85063526D01*
X115052188Y-85039649D01*
X115043290Y-85014780D01*
X115036872Y-84989159D01*
X115032996Y-84963031D01*
X115031700Y-84936650D01*
X115031700Y-83973350D01*
X115032996Y-83946969D01*
X115036872Y-83920841D01*
X115043290Y-83895220D01*
X115052188Y-83870351D01*
X115063481Y-83846474D01*
X115077060Y-83823818D01*
X115092794Y-83802603D01*
X115110532Y-83783032D01*
X115130103Y-83765294D01*
X115151318Y-83749560D01*
X115173974Y-83735981D01*
X115197851Y-83724688D01*
X115222720Y-83715790D01*
X115248341Y-83709372D01*
X115274469Y-83705496D01*
X115300850Y-83704200D01*
X115839150Y-83704200D01*
X115865531Y-83705496D01*
X115865531Y-83705496D01*
G37*
D15*
X115570000Y-84455000D03*
D13*
G36*
X117740531Y-83705496D02*
X117766659Y-83709372D01*
X117792280Y-83715790D01*
X117817149Y-83724688D01*
X117841026Y-83735981D01*
X117863682Y-83749560D01*
X117884897Y-83765294D01*
X117904468Y-83783032D01*
X117922206Y-83802603D01*
X117937940Y-83823818D01*
X117951519Y-83846474D01*
X117962812Y-83870351D01*
X117971710Y-83895220D01*
X117978128Y-83920841D01*
X117982004Y-83946969D01*
X117983300Y-83973350D01*
X117983300Y-84936650D01*
X117982004Y-84963031D01*
X117978128Y-84989159D01*
X117971710Y-85014780D01*
X117962812Y-85039649D01*
X117951519Y-85063526D01*
X117937940Y-85086182D01*
X117922206Y-85107397D01*
X117904468Y-85126968D01*
X117884897Y-85144706D01*
X117863682Y-85160440D01*
X117841026Y-85174019D01*
X117817149Y-85185312D01*
X117792280Y-85194210D01*
X117766659Y-85200628D01*
X117740531Y-85204504D01*
X117714150Y-85205800D01*
X117175850Y-85205800D01*
X117149469Y-85204504D01*
X117123341Y-85200628D01*
X117097720Y-85194210D01*
X117072851Y-85185312D01*
X117048974Y-85174019D01*
X117026318Y-85160440D01*
X117005103Y-85144706D01*
X116985532Y-85126968D01*
X116967794Y-85107397D01*
X116952060Y-85086182D01*
X116938481Y-85063526D01*
X116927188Y-85039649D01*
X116918290Y-85014780D01*
X116911872Y-84989159D01*
X116907996Y-84963031D01*
X116906700Y-84936650D01*
X116906700Y-83973350D01*
X116907996Y-83946969D01*
X116911872Y-83920841D01*
X116918290Y-83895220D01*
X116927188Y-83870351D01*
X116938481Y-83846474D01*
X116952060Y-83823818D01*
X116967794Y-83802603D01*
X116985532Y-83783032D01*
X117005103Y-83765294D01*
X117026318Y-83749560D01*
X117048974Y-83735981D01*
X117072851Y-83724688D01*
X117097720Y-83715790D01*
X117123341Y-83709372D01*
X117149469Y-83705496D01*
X117175850Y-83704200D01*
X117714150Y-83704200D01*
X117740531Y-83705496D01*
X117740531Y-83705496D01*
G37*
D15*
X117445000Y-84455000D03*
G04 #@! TD*
D13*
G04 #@! TO.C,C4*
G36*
X117159081Y-119871376D02*
X117182781Y-119874891D01*
X117206023Y-119880713D01*
X117228582Y-119888785D01*
X117250242Y-119899029D01*
X117270792Y-119911347D01*
X117290037Y-119925619D01*
X117307790Y-119941710D01*
X117323881Y-119959463D01*
X117338153Y-119978708D01*
X117350471Y-119999258D01*
X117360715Y-120020918D01*
X117368787Y-120043477D01*
X117374609Y-120066719D01*
X117378124Y-120090419D01*
X117379300Y-120114350D01*
X117379300Y-120677650D01*
X117378124Y-120701581D01*
X117374609Y-120725281D01*
X117368787Y-120748523D01*
X117360715Y-120771082D01*
X117350471Y-120792742D01*
X117338153Y-120813292D01*
X117323881Y-120832537D01*
X117307790Y-120850290D01*
X117290037Y-120866381D01*
X117270792Y-120880653D01*
X117250242Y-120892971D01*
X117228582Y-120903215D01*
X117206023Y-120911287D01*
X117182781Y-120917109D01*
X117159081Y-120920624D01*
X117135150Y-120921800D01*
X116646850Y-120921800D01*
X116622919Y-120920624D01*
X116599219Y-120917109D01*
X116575977Y-120911287D01*
X116553418Y-120903215D01*
X116531758Y-120892971D01*
X116511208Y-120880653D01*
X116491963Y-120866381D01*
X116474210Y-120850290D01*
X116458119Y-120832537D01*
X116443847Y-120813292D01*
X116431529Y-120792742D01*
X116421285Y-120771082D01*
X116413213Y-120748523D01*
X116407391Y-120725281D01*
X116403876Y-120701581D01*
X116402700Y-120677650D01*
X116402700Y-120114350D01*
X116403876Y-120090419D01*
X116407391Y-120066719D01*
X116413213Y-120043477D01*
X116421285Y-120020918D01*
X116431529Y-119999258D01*
X116443847Y-119978708D01*
X116458119Y-119959463D01*
X116474210Y-119941710D01*
X116491963Y-119925619D01*
X116511208Y-119911347D01*
X116531758Y-119899029D01*
X116553418Y-119888785D01*
X116575977Y-119880713D01*
X116599219Y-119874891D01*
X116622919Y-119871376D01*
X116646850Y-119870200D01*
X117135150Y-119870200D01*
X117159081Y-119871376D01*
X117159081Y-119871376D01*
G37*
D14*
X116891000Y-120396000D03*
D13*
G36*
X115584081Y-119871376D02*
X115607781Y-119874891D01*
X115631023Y-119880713D01*
X115653582Y-119888785D01*
X115675242Y-119899029D01*
X115695792Y-119911347D01*
X115715037Y-119925619D01*
X115732790Y-119941710D01*
X115748881Y-119959463D01*
X115763153Y-119978708D01*
X115775471Y-119999258D01*
X115785715Y-120020918D01*
X115793787Y-120043477D01*
X115799609Y-120066719D01*
X115803124Y-120090419D01*
X115804300Y-120114350D01*
X115804300Y-120677650D01*
X115803124Y-120701581D01*
X115799609Y-120725281D01*
X115793787Y-120748523D01*
X115785715Y-120771082D01*
X115775471Y-120792742D01*
X115763153Y-120813292D01*
X115748881Y-120832537D01*
X115732790Y-120850290D01*
X115715037Y-120866381D01*
X115695792Y-120880653D01*
X115675242Y-120892971D01*
X115653582Y-120903215D01*
X115631023Y-120911287D01*
X115607781Y-120917109D01*
X115584081Y-120920624D01*
X115560150Y-120921800D01*
X115071850Y-120921800D01*
X115047919Y-120920624D01*
X115024219Y-120917109D01*
X115000977Y-120911287D01*
X114978418Y-120903215D01*
X114956758Y-120892971D01*
X114936208Y-120880653D01*
X114916963Y-120866381D01*
X114899210Y-120850290D01*
X114883119Y-120832537D01*
X114868847Y-120813292D01*
X114856529Y-120792742D01*
X114846285Y-120771082D01*
X114838213Y-120748523D01*
X114832391Y-120725281D01*
X114828876Y-120701581D01*
X114827700Y-120677650D01*
X114827700Y-120114350D01*
X114828876Y-120090419D01*
X114832391Y-120066719D01*
X114838213Y-120043477D01*
X114846285Y-120020918D01*
X114856529Y-119999258D01*
X114868847Y-119978708D01*
X114883119Y-119959463D01*
X114899210Y-119941710D01*
X114916963Y-119925619D01*
X114936208Y-119911347D01*
X114956758Y-119899029D01*
X114978418Y-119888785D01*
X115000977Y-119880713D01*
X115024219Y-119874891D01*
X115047919Y-119871376D01*
X115071850Y-119870200D01*
X115560150Y-119870200D01*
X115584081Y-119871376D01*
X115584081Y-119871376D01*
G37*
D14*
X115316000Y-120396000D03*
G04 #@! TD*
D13*
G04 #@! TO.C,C5*
G36*
X120207081Y-119871376D02*
X120230781Y-119874891D01*
X120254023Y-119880713D01*
X120276582Y-119888785D01*
X120298242Y-119899029D01*
X120318792Y-119911347D01*
X120338037Y-119925619D01*
X120355790Y-119941710D01*
X120371881Y-119959463D01*
X120386153Y-119978708D01*
X120398471Y-119999258D01*
X120408715Y-120020918D01*
X120416787Y-120043477D01*
X120422609Y-120066719D01*
X120426124Y-120090419D01*
X120427300Y-120114350D01*
X120427300Y-120677650D01*
X120426124Y-120701581D01*
X120422609Y-120725281D01*
X120416787Y-120748523D01*
X120408715Y-120771082D01*
X120398471Y-120792742D01*
X120386153Y-120813292D01*
X120371881Y-120832537D01*
X120355790Y-120850290D01*
X120338037Y-120866381D01*
X120318792Y-120880653D01*
X120298242Y-120892971D01*
X120276582Y-120903215D01*
X120254023Y-120911287D01*
X120230781Y-120917109D01*
X120207081Y-120920624D01*
X120183150Y-120921800D01*
X119694850Y-120921800D01*
X119670919Y-120920624D01*
X119647219Y-120917109D01*
X119623977Y-120911287D01*
X119601418Y-120903215D01*
X119579758Y-120892971D01*
X119559208Y-120880653D01*
X119539963Y-120866381D01*
X119522210Y-120850290D01*
X119506119Y-120832537D01*
X119491847Y-120813292D01*
X119479529Y-120792742D01*
X119469285Y-120771082D01*
X119461213Y-120748523D01*
X119455391Y-120725281D01*
X119451876Y-120701581D01*
X119450700Y-120677650D01*
X119450700Y-120114350D01*
X119451876Y-120090419D01*
X119455391Y-120066719D01*
X119461213Y-120043477D01*
X119469285Y-120020918D01*
X119479529Y-119999258D01*
X119491847Y-119978708D01*
X119506119Y-119959463D01*
X119522210Y-119941710D01*
X119539963Y-119925619D01*
X119559208Y-119911347D01*
X119579758Y-119899029D01*
X119601418Y-119888785D01*
X119623977Y-119880713D01*
X119647219Y-119874891D01*
X119670919Y-119871376D01*
X119694850Y-119870200D01*
X120183150Y-119870200D01*
X120207081Y-119871376D01*
X120207081Y-119871376D01*
G37*
D14*
X119939000Y-120396000D03*
D13*
G36*
X118632081Y-119871376D02*
X118655781Y-119874891D01*
X118679023Y-119880713D01*
X118701582Y-119888785D01*
X118723242Y-119899029D01*
X118743792Y-119911347D01*
X118763037Y-119925619D01*
X118780790Y-119941710D01*
X118796881Y-119959463D01*
X118811153Y-119978708D01*
X118823471Y-119999258D01*
X118833715Y-120020918D01*
X118841787Y-120043477D01*
X118847609Y-120066719D01*
X118851124Y-120090419D01*
X118852300Y-120114350D01*
X118852300Y-120677650D01*
X118851124Y-120701581D01*
X118847609Y-120725281D01*
X118841787Y-120748523D01*
X118833715Y-120771082D01*
X118823471Y-120792742D01*
X118811153Y-120813292D01*
X118796881Y-120832537D01*
X118780790Y-120850290D01*
X118763037Y-120866381D01*
X118743792Y-120880653D01*
X118723242Y-120892971D01*
X118701582Y-120903215D01*
X118679023Y-120911287D01*
X118655781Y-120917109D01*
X118632081Y-120920624D01*
X118608150Y-120921800D01*
X118119850Y-120921800D01*
X118095919Y-120920624D01*
X118072219Y-120917109D01*
X118048977Y-120911287D01*
X118026418Y-120903215D01*
X118004758Y-120892971D01*
X117984208Y-120880653D01*
X117964963Y-120866381D01*
X117947210Y-120850290D01*
X117931119Y-120832537D01*
X117916847Y-120813292D01*
X117904529Y-120792742D01*
X117894285Y-120771082D01*
X117886213Y-120748523D01*
X117880391Y-120725281D01*
X117876876Y-120701581D01*
X117875700Y-120677650D01*
X117875700Y-120114350D01*
X117876876Y-120090419D01*
X117880391Y-120066719D01*
X117886213Y-120043477D01*
X117894285Y-120020918D01*
X117904529Y-119999258D01*
X117916847Y-119978708D01*
X117931119Y-119959463D01*
X117947210Y-119941710D01*
X117964963Y-119925619D01*
X117984208Y-119911347D01*
X118004758Y-119899029D01*
X118026418Y-119888785D01*
X118048977Y-119880713D01*
X118072219Y-119874891D01*
X118095919Y-119871376D01*
X118119850Y-119870200D01*
X118608150Y-119870200D01*
X118632081Y-119871376D01*
X118632081Y-119871376D01*
G37*
D14*
X118364000Y-120396000D03*
G04 #@! TD*
D13*
G04 #@! TO.C,C6*
G36*
X123458081Y-115807376D02*
X123481781Y-115810891D01*
X123505023Y-115816713D01*
X123527582Y-115824785D01*
X123549242Y-115835029D01*
X123569792Y-115847347D01*
X123589037Y-115861619D01*
X123606790Y-115877710D01*
X123622881Y-115895463D01*
X123637153Y-115914708D01*
X123649471Y-115935258D01*
X123659715Y-115956918D01*
X123667787Y-115979477D01*
X123673609Y-116002719D01*
X123677124Y-116026419D01*
X123678300Y-116050350D01*
X123678300Y-116613650D01*
X123677124Y-116637581D01*
X123673609Y-116661281D01*
X123667787Y-116684523D01*
X123659715Y-116707082D01*
X123649471Y-116728742D01*
X123637153Y-116749292D01*
X123622881Y-116768537D01*
X123606790Y-116786290D01*
X123589037Y-116802381D01*
X123569792Y-116816653D01*
X123549242Y-116828971D01*
X123527582Y-116839215D01*
X123505023Y-116847287D01*
X123481781Y-116853109D01*
X123458081Y-116856624D01*
X123434150Y-116857800D01*
X122945850Y-116857800D01*
X122921919Y-116856624D01*
X122898219Y-116853109D01*
X122874977Y-116847287D01*
X122852418Y-116839215D01*
X122830758Y-116828971D01*
X122810208Y-116816653D01*
X122790963Y-116802381D01*
X122773210Y-116786290D01*
X122757119Y-116768537D01*
X122742847Y-116749292D01*
X122730529Y-116728742D01*
X122720285Y-116707082D01*
X122712213Y-116684523D01*
X122706391Y-116661281D01*
X122702876Y-116637581D01*
X122701700Y-116613650D01*
X122701700Y-116050350D01*
X122702876Y-116026419D01*
X122706391Y-116002719D01*
X122712213Y-115979477D01*
X122720285Y-115956918D01*
X122730529Y-115935258D01*
X122742847Y-115914708D01*
X122757119Y-115895463D01*
X122773210Y-115877710D01*
X122790963Y-115861619D01*
X122810208Y-115847347D01*
X122830758Y-115835029D01*
X122852418Y-115824785D01*
X122874977Y-115816713D01*
X122898219Y-115810891D01*
X122921919Y-115807376D01*
X122945850Y-115806200D01*
X123434150Y-115806200D01*
X123458081Y-115807376D01*
X123458081Y-115807376D01*
G37*
D14*
X123190000Y-116332000D03*
D13*
G36*
X125033081Y-115807376D02*
X125056781Y-115810891D01*
X125080023Y-115816713D01*
X125102582Y-115824785D01*
X125124242Y-115835029D01*
X125144792Y-115847347D01*
X125164037Y-115861619D01*
X125181790Y-115877710D01*
X125197881Y-115895463D01*
X125212153Y-115914708D01*
X125224471Y-115935258D01*
X125234715Y-115956918D01*
X125242787Y-115979477D01*
X125248609Y-116002719D01*
X125252124Y-116026419D01*
X125253300Y-116050350D01*
X125253300Y-116613650D01*
X125252124Y-116637581D01*
X125248609Y-116661281D01*
X125242787Y-116684523D01*
X125234715Y-116707082D01*
X125224471Y-116728742D01*
X125212153Y-116749292D01*
X125197881Y-116768537D01*
X125181790Y-116786290D01*
X125164037Y-116802381D01*
X125144792Y-116816653D01*
X125124242Y-116828971D01*
X125102582Y-116839215D01*
X125080023Y-116847287D01*
X125056781Y-116853109D01*
X125033081Y-116856624D01*
X125009150Y-116857800D01*
X124520850Y-116857800D01*
X124496919Y-116856624D01*
X124473219Y-116853109D01*
X124449977Y-116847287D01*
X124427418Y-116839215D01*
X124405758Y-116828971D01*
X124385208Y-116816653D01*
X124365963Y-116802381D01*
X124348210Y-116786290D01*
X124332119Y-116768537D01*
X124317847Y-116749292D01*
X124305529Y-116728742D01*
X124295285Y-116707082D01*
X124287213Y-116684523D01*
X124281391Y-116661281D01*
X124277876Y-116637581D01*
X124276700Y-116613650D01*
X124276700Y-116050350D01*
X124277876Y-116026419D01*
X124281391Y-116002719D01*
X124287213Y-115979477D01*
X124295285Y-115956918D01*
X124305529Y-115935258D01*
X124317847Y-115914708D01*
X124332119Y-115895463D01*
X124348210Y-115877710D01*
X124365963Y-115861619D01*
X124385208Y-115847347D01*
X124405758Y-115835029D01*
X124427418Y-115824785D01*
X124449977Y-115816713D01*
X124473219Y-115810891D01*
X124496919Y-115807376D01*
X124520850Y-115806200D01*
X125009150Y-115806200D01*
X125033081Y-115807376D01*
X125033081Y-115807376D01*
G37*
D14*
X124765000Y-116332000D03*
G04 #@! TD*
D13*
G04 #@! TO.C,C7*
G36*
X125236081Y-108441376D02*
X125259781Y-108444891D01*
X125283023Y-108450713D01*
X125305582Y-108458785D01*
X125327242Y-108469029D01*
X125347792Y-108481347D01*
X125367037Y-108495619D01*
X125384790Y-108511710D01*
X125400881Y-108529463D01*
X125415153Y-108548708D01*
X125427471Y-108569258D01*
X125437715Y-108590918D01*
X125445787Y-108613477D01*
X125451609Y-108636719D01*
X125455124Y-108660419D01*
X125456300Y-108684350D01*
X125456300Y-109247650D01*
X125455124Y-109271581D01*
X125451609Y-109295281D01*
X125445787Y-109318523D01*
X125437715Y-109341082D01*
X125427471Y-109362742D01*
X125415153Y-109383292D01*
X125400881Y-109402537D01*
X125384790Y-109420290D01*
X125367037Y-109436381D01*
X125347792Y-109450653D01*
X125327242Y-109462971D01*
X125305582Y-109473215D01*
X125283023Y-109481287D01*
X125259781Y-109487109D01*
X125236081Y-109490624D01*
X125212150Y-109491800D01*
X124723850Y-109491800D01*
X124699919Y-109490624D01*
X124676219Y-109487109D01*
X124652977Y-109481287D01*
X124630418Y-109473215D01*
X124608758Y-109462971D01*
X124588208Y-109450653D01*
X124568963Y-109436381D01*
X124551210Y-109420290D01*
X124535119Y-109402537D01*
X124520847Y-109383292D01*
X124508529Y-109362742D01*
X124498285Y-109341082D01*
X124490213Y-109318523D01*
X124484391Y-109295281D01*
X124480876Y-109271581D01*
X124479700Y-109247650D01*
X124479700Y-108684350D01*
X124480876Y-108660419D01*
X124484391Y-108636719D01*
X124490213Y-108613477D01*
X124498285Y-108590918D01*
X124508529Y-108569258D01*
X124520847Y-108548708D01*
X124535119Y-108529463D01*
X124551210Y-108511710D01*
X124568963Y-108495619D01*
X124588208Y-108481347D01*
X124608758Y-108469029D01*
X124630418Y-108458785D01*
X124652977Y-108450713D01*
X124676219Y-108444891D01*
X124699919Y-108441376D01*
X124723850Y-108440200D01*
X125212150Y-108440200D01*
X125236081Y-108441376D01*
X125236081Y-108441376D01*
G37*
D14*
X124968000Y-108966000D03*
D13*
G36*
X123661081Y-108441376D02*
X123684781Y-108444891D01*
X123708023Y-108450713D01*
X123730582Y-108458785D01*
X123752242Y-108469029D01*
X123772792Y-108481347D01*
X123792037Y-108495619D01*
X123809790Y-108511710D01*
X123825881Y-108529463D01*
X123840153Y-108548708D01*
X123852471Y-108569258D01*
X123862715Y-108590918D01*
X123870787Y-108613477D01*
X123876609Y-108636719D01*
X123880124Y-108660419D01*
X123881300Y-108684350D01*
X123881300Y-109247650D01*
X123880124Y-109271581D01*
X123876609Y-109295281D01*
X123870787Y-109318523D01*
X123862715Y-109341082D01*
X123852471Y-109362742D01*
X123840153Y-109383292D01*
X123825881Y-109402537D01*
X123809790Y-109420290D01*
X123792037Y-109436381D01*
X123772792Y-109450653D01*
X123752242Y-109462971D01*
X123730582Y-109473215D01*
X123708023Y-109481287D01*
X123684781Y-109487109D01*
X123661081Y-109490624D01*
X123637150Y-109491800D01*
X123148850Y-109491800D01*
X123124919Y-109490624D01*
X123101219Y-109487109D01*
X123077977Y-109481287D01*
X123055418Y-109473215D01*
X123033758Y-109462971D01*
X123013208Y-109450653D01*
X122993963Y-109436381D01*
X122976210Y-109420290D01*
X122960119Y-109402537D01*
X122945847Y-109383292D01*
X122933529Y-109362742D01*
X122923285Y-109341082D01*
X122915213Y-109318523D01*
X122909391Y-109295281D01*
X122905876Y-109271581D01*
X122904700Y-109247650D01*
X122904700Y-108684350D01*
X122905876Y-108660419D01*
X122909391Y-108636719D01*
X122915213Y-108613477D01*
X122923285Y-108590918D01*
X122933529Y-108569258D01*
X122945847Y-108548708D01*
X122960119Y-108529463D01*
X122976210Y-108511710D01*
X122993963Y-108495619D01*
X123013208Y-108481347D01*
X123033758Y-108469029D01*
X123055418Y-108458785D01*
X123077977Y-108450713D01*
X123101219Y-108444891D01*
X123124919Y-108441376D01*
X123148850Y-108440200D01*
X123637150Y-108440200D01*
X123661081Y-108441376D01*
X123661081Y-108441376D01*
G37*
D14*
X123393000Y-108966000D03*
G04 #@! TD*
D13*
G04 #@! TO.C,C8*
G36*
X111469081Y-105139376D02*
X111492781Y-105142891D01*
X111516023Y-105148713D01*
X111538582Y-105156785D01*
X111560242Y-105167029D01*
X111580792Y-105179347D01*
X111600037Y-105193619D01*
X111617790Y-105209710D01*
X111633881Y-105227463D01*
X111648153Y-105246708D01*
X111660471Y-105267258D01*
X111670715Y-105288918D01*
X111678787Y-105311477D01*
X111684609Y-105334719D01*
X111688124Y-105358419D01*
X111689300Y-105382350D01*
X111689300Y-105945650D01*
X111688124Y-105969581D01*
X111684609Y-105993281D01*
X111678787Y-106016523D01*
X111670715Y-106039082D01*
X111660471Y-106060742D01*
X111648153Y-106081292D01*
X111633881Y-106100537D01*
X111617790Y-106118290D01*
X111600037Y-106134381D01*
X111580792Y-106148653D01*
X111560242Y-106160971D01*
X111538582Y-106171215D01*
X111516023Y-106179287D01*
X111492781Y-106185109D01*
X111469081Y-106188624D01*
X111445150Y-106189800D01*
X110956850Y-106189800D01*
X110932919Y-106188624D01*
X110909219Y-106185109D01*
X110885977Y-106179287D01*
X110863418Y-106171215D01*
X110841758Y-106160971D01*
X110821208Y-106148653D01*
X110801963Y-106134381D01*
X110784210Y-106118290D01*
X110768119Y-106100537D01*
X110753847Y-106081292D01*
X110741529Y-106060742D01*
X110731285Y-106039082D01*
X110723213Y-106016523D01*
X110717391Y-105993281D01*
X110713876Y-105969581D01*
X110712700Y-105945650D01*
X110712700Y-105382350D01*
X110713876Y-105358419D01*
X110717391Y-105334719D01*
X110723213Y-105311477D01*
X110731285Y-105288918D01*
X110741529Y-105267258D01*
X110753847Y-105246708D01*
X110768119Y-105227463D01*
X110784210Y-105209710D01*
X110801963Y-105193619D01*
X110821208Y-105179347D01*
X110841758Y-105167029D01*
X110863418Y-105156785D01*
X110885977Y-105148713D01*
X110909219Y-105142891D01*
X110932919Y-105139376D01*
X110956850Y-105138200D01*
X111445150Y-105138200D01*
X111469081Y-105139376D01*
X111469081Y-105139376D01*
G37*
D14*
X111201000Y-105664000D03*
D13*
G36*
X113044081Y-105139376D02*
X113067781Y-105142891D01*
X113091023Y-105148713D01*
X113113582Y-105156785D01*
X113135242Y-105167029D01*
X113155792Y-105179347D01*
X113175037Y-105193619D01*
X113192790Y-105209710D01*
X113208881Y-105227463D01*
X113223153Y-105246708D01*
X113235471Y-105267258D01*
X113245715Y-105288918D01*
X113253787Y-105311477D01*
X113259609Y-105334719D01*
X113263124Y-105358419D01*
X113264300Y-105382350D01*
X113264300Y-105945650D01*
X113263124Y-105969581D01*
X113259609Y-105993281D01*
X113253787Y-106016523D01*
X113245715Y-106039082D01*
X113235471Y-106060742D01*
X113223153Y-106081292D01*
X113208881Y-106100537D01*
X113192790Y-106118290D01*
X113175037Y-106134381D01*
X113155792Y-106148653D01*
X113135242Y-106160971D01*
X113113582Y-106171215D01*
X113091023Y-106179287D01*
X113067781Y-106185109D01*
X113044081Y-106188624D01*
X113020150Y-106189800D01*
X112531850Y-106189800D01*
X112507919Y-106188624D01*
X112484219Y-106185109D01*
X112460977Y-106179287D01*
X112438418Y-106171215D01*
X112416758Y-106160971D01*
X112396208Y-106148653D01*
X112376963Y-106134381D01*
X112359210Y-106118290D01*
X112343119Y-106100537D01*
X112328847Y-106081292D01*
X112316529Y-106060742D01*
X112306285Y-106039082D01*
X112298213Y-106016523D01*
X112292391Y-105993281D01*
X112288876Y-105969581D01*
X112287700Y-105945650D01*
X112287700Y-105382350D01*
X112288876Y-105358419D01*
X112292391Y-105334719D01*
X112298213Y-105311477D01*
X112306285Y-105288918D01*
X112316529Y-105267258D01*
X112328847Y-105246708D01*
X112343119Y-105227463D01*
X112359210Y-105209710D01*
X112376963Y-105193619D01*
X112396208Y-105179347D01*
X112416758Y-105167029D01*
X112438418Y-105156785D01*
X112460977Y-105148713D01*
X112484219Y-105142891D01*
X112507919Y-105139376D01*
X112531850Y-105138200D01*
X113020150Y-105138200D01*
X113044081Y-105139376D01*
X113044081Y-105139376D01*
G37*
D14*
X112776000Y-105664000D03*
G04 #@! TD*
D13*
G04 #@! TO.C,C9*
G36*
X109017581Y-116301876D02*
X109041281Y-116305391D01*
X109064523Y-116311213D01*
X109087082Y-116319285D01*
X109108742Y-116329529D01*
X109129292Y-116341847D01*
X109148537Y-116356119D01*
X109166290Y-116372210D01*
X109182381Y-116389963D01*
X109196653Y-116409208D01*
X109208971Y-116429758D01*
X109219215Y-116451418D01*
X109227287Y-116473977D01*
X109233109Y-116497219D01*
X109236624Y-116520919D01*
X109237800Y-116544850D01*
X109237800Y-117033150D01*
X109236624Y-117057081D01*
X109233109Y-117080781D01*
X109227287Y-117104023D01*
X109219215Y-117126582D01*
X109208971Y-117148242D01*
X109196653Y-117168792D01*
X109182381Y-117188037D01*
X109166290Y-117205790D01*
X109148537Y-117221881D01*
X109129292Y-117236153D01*
X109108742Y-117248471D01*
X109087082Y-117258715D01*
X109064523Y-117266787D01*
X109041281Y-117272609D01*
X109017581Y-117276124D01*
X108993650Y-117277300D01*
X108430350Y-117277300D01*
X108406419Y-117276124D01*
X108382719Y-117272609D01*
X108359477Y-117266787D01*
X108336918Y-117258715D01*
X108315258Y-117248471D01*
X108294708Y-117236153D01*
X108275463Y-117221881D01*
X108257710Y-117205790D01*
X108241619Y-117188037D01*
X108227347Y-117168792D01*
X108215029Y-117148242D01*
X108204785Y-117126582D01*
X108196713Y-117104023D01*
X108190891Y-117080781D01*
X108187376Y-117057081D01*
X108186200Y-117033150D01*
X108186200Y-116544850D01*
X108187376Y-116520919D01*
X108190891Y-116497219D01*
X108196713Y-116473977D01*
X108204785Y-116451418D01*
X108215029Y-116429758D01*
X108227347Y-116409208D01*
X108241619Y-116389963D01*
X108257710Y-116372210D01*
X108275463Y-116356119D01*
X108294708Y-116341847D01*
X108315258Y-116329529D01*
X108336918Y-116319285D01*
X108359477Y-116311213D01*
X108382719Y-116305391D01*
X108406419Y-116301876D01*
X108430350Y-116300700D01*
X108993650Y-116300700D01*
X109017581Y-116301876D01*
X109017581Y-116301876D01*
G37*
D14*
X108712000Y-116789000D03*
D13*
G36*
X109017581Y-117876876D02*
X109041281Y-117880391D01*
X109064523Y-117886213D01*
X109087082Y-117894285D01*
X109108742Y-117904529D01*
X109129292Y-117916847D01*
X109148537Y-117931119D01*
X109166290Y-117947210D01*
X109182381Y-117964963D01*
X109196653Y-117984208D01*
X109208971Y-118004758D01*
X109219215Y-118026418D01*
X109227287Y-118048977D01*
X109233109Y-118072219D01*
X109236624Y-118095919D01*
X109237800Y-118119850D01*
X109237800Y-118608150D01*
X109236624Y-118632081D01*
X109233109Y-118655781D01*
X109227287Y-118679023D01*
X109219215Y-118701582D01*
X109208971Y-118723242D01*
X109196653Y-118743792D01*
X109182381Y-118763037D01*
X109166290Y-118780790D01*
X109148537Y-118796881D01*
X109129292Y-118811153D01*
X109108742Y-118823471D01*
X109087082Y-118833715D01*
X109064523Y-118841787D01*
X109041281Y-118847609D01*
X109017581Y-118851124D01*
X108993650Y-118852300D01*
X108430350Y-118852300D01*
X108406419Y-118851124D01*
X108382719Y-118847609D01*
X108359477Y-118841787D01*
X108336918Y-118833715D01*
X108315258Y-118823471D01*
X108294708Y-118811153D01*
X108275463Y-118796881D01*
X108257710Y-118780790D01*
X108241619Y-118763037D01*
X108227347Y-118743792D01*
X108215029Y-118723242D01*
X108204785Y-118701582D01*
X108196713Y-118679023D01*
X108190891Y-118655781D01*
X108187376Y-118632081D01*
X108186200Y-118608150D01*
X108186200Y-118119850D01*
X108187376Y-118095919D01*
X108190891Y-118072219D01*
X108196713Y-118048977D01*
X108204785Y-118026418D01*
X108215029Y-118004758D01*
X108227347Y-117984208D01*
X108241619Y-117964963D01*
X108257710Y-117947210D01*
X108275463Y-117931119D01*
X108294708Y-117916847D01*
X108315258Y-117904529D01*
X108336918Y-117894285D01*
X108359477Y-117886213D01*
X108382719Y-117880391D01*
X108406419Y-117876876D01*
X108430350Y-117875700D01*
X108993650Y-117875700D01*
X109017581Y-117876876D01*
X109017581Y-117876876D01*
G37*
D14*
X108712000Y-118364000D03*
G04 #@! TD*
D13*
G04 #@! TO.C,C12*
G36*
X119685581Y-82367876D02*
X119709281Y-82371391D01*
X119732523Y-82377213D01*
X119755082Y-82385285D01*
X119776742Y-82395529D01*
X119797292Y-82407847D01*
X119816537Y-82422119D01*
X119834290Y-82438210D01*
X119850381Y-82455963D01*
X119864653Y-82475208D01*
X119876971Y-82495758D01*
X119887215Y-82517418D01*
X119895287Y-82539977D01*
X119901109Y-82563219D01*
X119904624Y-82586919D01*
X119905800Y-82610850D01*
X119905800Y-83099150D01*
X119904624Y-83123081D01*
X119901109Y-83146781D01*
X119895287Y-83170023D01*
X119887215Y-83192582D01*
X119876971Y-83214242D01*
X119864653Y-83234792D01*
X119850381Y-83254037D01*
X119834290Y-83271790D01*
X119816537Y-83287881D01*
X119797292Y-83302153D01*
X119776742Y-83314471D01*
X119755082Y-83324715D01*
X119732523Y-83332787D01*
X119709281Y-83338609D01*
X119685581Y-83342124D01*
X119661650Y-83343300D01*
X119098350Y-83343300D01*
X119074419Y-83342124D01*
X119050719Y-83338609D01*
X119027477Y-83332787D01*
X119004918Y-83324715D01*
X118983258Y-83314471D01*
X118962708Y-83302153D01*
X118943463Y-83287881D01*
X118925710Y-83271790D01*
X118909619Y-83254037D01*
X118895347Y-83234792D01*
X118883029Y-83214242D01*
X118872785Y-83192582D01*
X118864713Y-83170023D01*
X118858891Y-83146781D01*
X118855376Y-83123081D01*
X118854200Y-83099150D01*
X118854200Y-82610850D01*
X118855376Y-82586919D01*
X118858891Y-82563219D01*
X118864713Y-82539977D01*
X118872785Y-82517418D01*
X118883029Y-82495758D01*
X118895347Y-82475208D01*
X118909619Y-82455963D01*
X118925710Y-82438210D01*
X118943463Y-82422119D01*
X118962708Y-82407847D01*
X118983258Y-82395529D01*
X119004918Y-82385285D01*
X119027477Y-82377213D01*
X119050719Y-82371391D01*
X119074419Y-82367876D01*
X119098350Y-82366700D01*
X119661650Y-82366700D01*
X119685581Y-82367876D01*
X119685581Y-82367876D01*
G37*
D14*
X119380000Y-82855000D03*
D13*
G36*
X119685581Y-80792876D02*
X119709281Y-80796391D01*
X119732523Y-80802213D01*
X119755082Y-80810285D01*
X119776742Y-80820529D01*
X119797292Y-80832847D01*
X119816537Y-80847119D01*
X119834290Y-80863210D01*
X119850381Y-80880963D01*
X119864653Y-80900208D01*
X119876971Y-80920758D01*
X119887215Y-80942418D01*
X119895287Y-80964977D01*
X119901109Y-80988219D01*
X119904624Y-81011919D01*
X119905800Y-81035850D01*
X119905800Y-81524150D01*
X119904624Y-81548081D01*
X119901109Y-81571781D01*
X119895287Y-81595023D01*
X119887215Y-81617582D01*
X119876971Y-81639242D01*
X119864653Y-81659792D01*
X119850381Y-81679037D01*
X119834290Y-81696790D01*
X119816537Y-81712881D01*
X119797292Y-81727153D01*
X119776742Y-81739471D01*
X119755082Y-81749715D01*
X119732523Y-81757787D01*
X119709281Y-81763609D01*
X119685581Y-81767124D01*
X119661650Y-81768300D01*
X119098350Y-81768300D01*
X119074419Y-81767124D01*
X119050719Y-81763609D01*
X119027477Y-81757787D01*
X119004918Y-81749715D01*
X118983258Y-81739471D01*
X118962708Y-81727153D01*
X118943463Y-81712881D01*
X118925710Y-81696790D01*
X118909619Y-81679037D01*
X118895347Y-81659792D01*
X118883029Y-81639242D01*
X118872785Y-81617582D01*
X118864713Y-81595023D01*
X118858891Y-81571781D01*
X118855376Y-81548081D01*
X118854200Y-81524150D01*
X118854200Y-81035850D01*
X118855376Y-81011919D01*
X118858891Y-80988219D01*
X118864713Y-80964977D01*
X118872785Y-80942418D01*
X118883029Y-80920758D01*
X118895347Y-80900208D01*
X118909619Y-80880963D01*
X118925710Y-80863210D01*
X118943463Y-80847119D01*
X118962708Y-80832847D01*
X118983258Y-80820529D01*
X119004918Y-80810285D01*
X119027477Y-80802213D01*
X119050719Y-80796391D01*
X119074419Y-80792876D01*
X119098350Y-80791700D01*
X119661650Y-80791700D01*
X119685581Y-80792876D01*
X119685581Y-80792876D01*
G37*
D14*
X119380000Y-81280000D03*
G04 #@! TD*
D13*
G04 #@! TO.C,C13*
G36*
X126035581Y-80792876D02*
X126059281Y-80796391D01*
X126082523Y-80802213D01*
X126105082Y-80810285D01*
X126126742Y-80820529D01*
X126147292Y-80832847D01*
X126166537Y-80847119D01*
X126184290Y-80863210D01*
X126200381Y-80880963D01*
X126214653Y-80900208D01*
X126226971Y-80920758D01*
X126237215Y-80942418D01*
X126245287Y-80964977D01*
X126251109Y-80988219D01*
X126254624Y-81011919D01*
X126255800Y-81035850D01*
X126255800Y-81524150D01*
X126254624Y-81548081D01*
X126251109Y-81571781D01*
X126245287Y-81595023D01*
X126237215Y-81617582D01*
X126226971Y-81639242D01*
X126214653Y-81659792D01*
X126200381Y-81679037D01*
X126184290Y-81696790D01*
X126166537Y-81712881D01*
X126147292Y-81727153D01*
X126126742Y-81739471D01*
X126105082Y-81749715D01*
X126082523Y-81757787D01*
X126059281Y-81763609D01*
X126035581Y-81767124D01*
X126011650Y-81768300D01*
X125448350Y-81768300D01*
X125424419Y-81767124D01*
X125400719Y-81763609D01*
X125377477Y-81757787D01*
X125354918Y-81749715D01*
X125333258Y-81739471D01*
X125312708Y-81727153D01*
X125293463Y-81712881D01*
X125275710Y-81696790D01*
X125259619Y-81679037D01*
X125245347Y-81659792D01*
X125233029Y-81639242D01*
X125222785Y-81617582D01*
X125214713Y-81595023D01*
X125208891Y-81571781D01*
X125205376Y-81548081D01*
X125204200Y-81524150D01*
X125204200Y-81035850D01*
X125205376Y-81011919D01*
X125208891Y-80988219D01*
X125214713Y-80964977D01*
X125222785Y-80942418D01*
X125233029Y-80920758D01*
X125245347Y-80900208D01*
X125259619Y-80880963D01*
X125275710Y-80863210D01*
X125293463Y-80847119D01*
X125312708Y-80832847D01*
X125333258Y-80820529D01*
X125354918Y-80810285D01*
X125377477Y-80802213D01*
X125400719Y-80796391D01*
X125424419Y-80792876D01*
X125448350Y-80791700D01*
X126011650Y-80791700D01*
X126035581Y-80792876D01*
X126035581Y-80792876D01*
G37*
D14*
X125730000Y-81280000D03*
D13*
G36*
X126035581Y-82367876D02*
X126059281Y-82371391D01*
X126082523Y-82377213D01*
X126105082Y-82385285D01*
X126126742Y-82395529D01*
X126147292Y-82407847D01*
X126166537Y-82422119D01*
X126184290Y-82438210D01*
X126200381Y-82455963D01*
X126214653Y-82475208D01*
X126226971Y-82495758D01*
X126237215Y-82517418D01*
X126245287Y-82539977D01*
X126251109Y-82563219D01*
X126254624Y-82586919D01*
X126255800Y-82610850D01*
X126255800Y-83099150D01*
X126254624Y-83123081D01*
X126251109Y-83146781D01*
X126245287Y-83170023D01*
X126237215Y-83192582D01*
X126226971Y-83214242D01*
X126214653Y-83234792D01*
X126200381Y-83254037D01*
X126184290Y-83271790D01*
X126166537Y-83287881D01*
X126147292Y-83302153D01*
X126126742Y-83314471D01*
X126105082Y-83324715D01*
X126082523Y-83332787D01*
X126059281Y-83338609D01*
X126035581Y-83342124D01*
X126011650Y-83343300D01*
X125448350Y-83343300D01*
X125424419Y-83342124D01*
X125400719Y-83338609D01*
X125377477Y-83332787D01*
X125354918Y-83324715D01*
X125333258Y-83314471D01*
X125312708Y-83302153D01*
X125293463Y-83287881D01*
X125275710Y-83271790D01*
X125259619Y-83254037D01*
X125245347Y-83234792D01*
X125233029Y-83214242D01*
X125222785Y-83192582D01*
X125214713Y-83170023D01*
X125208891Y-83146781D01*
X125205376Y-83123081D01*
X125204200Y-83099150D01*
X125204200Y-82610850D01*
X125205376Y-82586919D01*
X125208891Y-82563219D01*
X125214713Y-82539977D01*
X125222785Y-82517418D01*
X125233029Y-82495758D01*
X125245347Y-82475208D01*
X125259619Y-82455963D01*
X125275710Y-82438210D01*
X125293463Y-82422119D01*
X125312708Y-82407847D01*
X125333258Y-82395529D01*
X125354918Y-82385285D01*
X125377477Y-82377213D01*
X125400719Y-82371391D01*
X125424419Y-82367876D01*
X125448350Y-82366700D01*
X126011650Y-82366700D01*
X126035581Y-82367876D01*
X126035581Y-82367876D01*
G37*
D14*
X125730000Y-82855000D03*
G04 #@! TD*
D13*
G04 #@! TO.C,C14*
G36*
X132385581Y-82367876D02*
X132409281Y-82371391D01*
X132432523Y-82377213D01*
X132455082Y-82385285D01*
X132476742Y-82395529D01*
X132497292Y-82407847D01*
X132516537Y-82422119D01*
X132534290Y-82438210D01*
X132550381Y-82455963D01*
X132564653Y-82475208D01*
X132576971Y-82495758D01*
X132587215Y-82517418D01*
X132595287Y-82539977D01*
X132601109Y-82563219D01*
X132604624Y-82586919D01*
X132605800Y-82610850D01*
X132605800Y-83099150D01*
X132604624Y-83123081D01*
X132601109Y-83146781D01*
X132595287Y-83170023D01*
X132587215Y-83192582D01*
X132576971Y-83214242D01*
X132564653Y-83234792D01*
X132550381Y-83254037D01*
X132534290Y-83271790D01*
X132516537Y-83287881D01*
X132497292Y-83302153D01*
X132476742Y-83314471D01*
X132455082Y-83324715D01*
X132432523Y-83332787D01*
X132409281Y-83338609D01*
X132385581Y-83342124D01*
X132361650Y-83343300D01*
X131798350Y-83343300D01*
X131774419Y-83342124D01*
X131750719Y-83338609D01*
X131727477Y-83332787D01*
X131704918Y-83324715D01*
X131683258Y-83314471D01*
X131662708Y-83302153D01*
X131643463Y-83287881D01*
X131625710Y-83271790D01*
X131609619Y-83254037D01*
X131595347Y-83234792D01*
X131583029Y-83214242D01*
X131572785Y-83192582D01*
X131564713Y-83170023D01*
X131558891Y-83146781D01*
X131555376Y-83123081D01*
X131554200Y-83099150D01*
X131554200Y-82610850D01*
X131555376Y-82586919D01*
X131558891Y-82563219D01*
X131564713Y-82539977D01*
X131572785Y-82517418D01*
X131583029Y-82495758D01*
X131595347Y-82475208D01*
X131609619Y-82455963D01*
X131625710Y-82438210D01*
X131643463Y-82422119D01*
X131662708Y-82407847D01*
X131683258Y-82395529D01*
X131704918Y-82385285D01*
X131727477Y-82377213D01*
X131750719Y-82371391D01*
X131774419Y-82367876D01*
X131798350Y-82366700D01*
X132361650Y-82366700D01*
X132385581Y-82367876D01*
X132385581Y-82367876D01*
G37*
D14*
X132080000Y-82855000D03*
D13*
G36*
X132385581Y-80792876D02*
X132409281Y-80796391D01*
X132432523Y-80802213D01*
X132455082Y-80810285D01*
X132476742Y-80820529D01*
X132497292Y-80832847D01*
X132516537Y-80847119D01*
X132534290Y-80863210D01*
X132550381Y-80880963D01*
X132564653Y-80900208D01*
X132576971Y-80920758D01*
X132587215Y-80942418D01*
X132595287Y-80964977D01*
X132601109Y-80988219D01*
X132604624Y-81011919D01*
X132605800Y-81035850D01*
X132605800Y-81524150D01*
X132604624Y-81548081D01*
X132601109Y-81571781D01*
X132595287Y-81595023D01*
X132587215Y-81617582D01*
X132576971Y-81639242D01*
X132564653Y-81659792D01*
X132550381Y-81679037D01*
X132534290Y-81696790D01*
X132516537Y-81712881D01*
X132497292Y-81727153D01*
X132476742Y-81739471D01*
X132455082Y-81749715D01*
X132432523Y-81757787D01*
X132409281Y-81763609D01*
X132385581Y-81767124D01*
X132361650Y-81768300D01*
X131798350Y-81768300D01*
X131774419Y-81767124D01*
X131750719Y-81763609D01*
X131727477Y-81757787D01*
X131704918Y-81749715D01*
X131683258Y-81739471D01*
X131662708Y-81727153D01*
X131643463Y-81712881D01*
X131625710Y-81696790D01*
X131609619Y-81679037D01*
X131595347Y-81659792D01*
X131583029Y-81639242D01*
X131572785Y-81617582D01*
X131564713Y-81595023D01*
X131558891Y-81571781D01*
X131555376Y-81548081D01*
X131554200Y-81524150D01*
X131554200Y-81035850D01*
X131555376Y-81011919D01*
X131558891Y-80988219D01*
X131564713Y-80964977D01*
X131572785Y-80942418D01*
X131583029Y-80920758D01*
X131595347Y-80900208D01*
X131609619Y-80880963D01*
X131625710Y-80863210D01*
X131643463Y-80847119D01*
X131662708Y-80832847D01*
X131683258Y-80820529D01*
X131704918Y-80810285D01*
X131727477Y-80802213D01*
X131750719Y-80796391D01*
X131774419Y-80792876D01*
X131798350Y-80791700D01*
X132361650Y-80791700D01*
X132385581Y-80792876D01*
X132385581Y-80792876D01*
G37*
D14*
X132080000Y-81280000D03*
G04 #@! TD*
D13*
G04 #@! TO.C,C15*
G36*
X105715581Y-118892876D02*
X105739281Y-118896391D01*
X105762523Y-118902213D01*
X105785082Y-118910285D01*
X105806742Y-118920529D01*
X105827292Y-118932847D01*
X105846537Y-118947119D01*
X105864290Y-118963210D01*
X105880381Y-118980963D01*
X105894653Y-119000208D01*
X105906971Y-119020758D01*
X105917215Y-119042418D01*
X105925287Y-119064977D01*
X105931109Y-119088219D01*
X105934624Y-119111919D01*
X105935800Y-119135850D01*
X105935800Y-119624150D01*
X105934624Y-119648081D01*
X105931109Y-119671781D01*
X105925287Y-119695023D01*
X105917215Y-119717582D01*
X105906971Y-119739242D01*
X105894653Y-119759792D01*
X105880381Y-119779037D01*
X105864290Y-119796790D01*
X105846537Y-119812881D01*
X105827292Y-119827153D01*
X105806742Y-119839471D01*
X105785082Y-119849715D01*
X105762523Y-119857787D01*
X105739281Y-119863609D01*
X105715581Y-119867124D01*
X105691650Y-119868300D01*
X105128350Y-119868300D01*
X105104419Y-119867124D01*
X105080719Y-119863609D01*
X105057477Y-119857787D01*
X105034918Y-119849715D01*
X105013258Y-119839471D01*
X104992708Y-119827153D01*
X104973463Y-119812881D01*
X104955710Y-119796790D01*
X104939619Y-119779037D01*
X104925347Y-119759792D01*
X104913029Y-119739242D01*
X104902785Y-119717582D01*
X104894713Y-119695023D01*
X104888891Y-119671781D01*
X104885376Y-119648081D01*
X104884200Y-119624150D01*
X104884200Y-119135850D01*
X104885376Y-119111919D01*
X104888891Y-119088219D01*
X104894713Y-119064977D01*
X104902785Y-119042418D01*
X104913029Y-119020758D01*
X104925347Y-119000208D01*
X104939619Y-118980963D01*
X104955710Y-118963210D01*
X104973463Y-118947119D01*
X104992708Y-118932847D01*
X105013258Y-118920529D01*
X105034918Y-118910285D01*
X105057477Y-118902213D01*
X105080719Y-118896391D01*
X105104419Y-118892876D01*
X105128350Y-118891700D01*
X105691650Y-118891700D01*
X105715581Y-118892876D01*
X105715581Y-118892876D01*
G37*
D14*
X105410000Y-119380000D03*
D13*
G36*
X105715581Y-117317876D02*
X105739281Y-117321391D01*
X105762523Y-117327213D01*
X105785082Y-117335285D01*
X105806742Y-117345529D01*
X105827292Y-117357847D01*
X105846537Y-117372119D01*
X105864290Y-117388210D01*
X105880381Y-117405963D01*
X105894653Y-117425208D01*
X105906971Y-117445758D01*
X105917215Y-117467418D01*
X105925287Y-117489977D01*
X105931109Y-117513219D01*
X105934624Y-117536919D01*
X105935800Y-117560850D01*
X105935800Y-118049150D01*
X105934624Y-118073081D01*
X105931109Y-118096781D01*
X105925287Y-118120023D01*
X105917215Y-118142582D01*
X105906971Y-118164242D01*
X105894653Y-118184792D01*
X105880381Y-118204037D01*
X105864290Y-118221790D01*
X105846537Y-118237881D01*
X105827292Y-118252153D01*
X105806742Y-118264471D01*
X105785082Y-118274715D01*
X105762523Y-118282787D01*
X105739281Y-118288609D01*
X105715581Y-118292124D01*
X105691650Y-118293300D01*
X105128350Y-118293300D01*
X105104419Y-118292124D01*
X105080719Y-118288609D01*
X105057477Y-118282787D01*
X105034918Y-118274715D01*
X105013258Y-118264471D01*
X104992708Y-118252153D01*
X104973463Y-118237881D01*
X104955710Y-118221790D01*
X104939619Y-118204037D01*
X104925347Y-118184792D01*
X104913029Y-118164242D01*
X104902785Y-118142582D01*
X104894713Y-118120023D01*
X104888891Y-118096781D01*
X104885376Y-118073081D01*
X104884200Y-118049150D01*
X104884200Y-117560850D01*
X104885376Y-117536919D01*
X104888891Y-117513219D01*
X104894713Y-117489977D01*
X104902785Y-117467418D01*
X104913029Y-117445758D01*
X104925347Y-117425208D01*
X104939619Y-117405963D01*
X104955710Y-117388210D01*
X104973463Y-117372119D01*
X104992708Y-117357847D01*
X105013258Y-117345529D01*
X105034918Y-117335285D01*
X105057477Y-117327213D01*
X105080719Y-117321391D01*
X105104419Y-117317876D01*
X105128350Y-117316700D01*
X105691650Y-117316700D01*
X105715581Y-117317876D01*
X105715581Y-117317876D01*
G37*
D14*
X105410000Y-117805000D03*
G04 #@! TD*
D13*
G04 #@! TO.C,C16*
G36*
X142965081Y-103107376D02*
X142988781Y-103110891D01*
X143012023Y-103116713D01*
X143034582Y-103124785D01*
X143056242Y-103135029D01*
X143076792Y-103147347D01*
X143096037Y-103161619D01*
X143113790Y-103177710D01*
X143129881Y-103195463D01*
X143144153Y-103214708D01*
X143156471Y-103235258D01*
X143166715Y-103256918D01*
X143174787Y-103279477D01*
X143180609Y-103302719D01*
X143184124Y-103326419D01*
X143185300Y-103350350D01*
X143185300Y-103913650D01*
X143184124Y-103937581D01*
X143180609Y-103961281D01*
X143174787Y-103984523D01*
X143166715Y-104007082D01*
X143156471Y-104028742D01*
X143144153Y-104049292D01*
X143129881Y-104068537D01*
X143113790Y-104086290D01*
X143096037Y-104102381D01*
X143076792Y-104116653D01*
X143056242Y-104128971D01*
X143034582Y-104139215D01*
X143012023Y-104147287D01*
X142988781Y-104153109D01*
X142965081Y-104156624D01*
X142941150Y-104157800D01*
X142452850Y-104157800D01*
X142428919Y-104156624D01*
X142405219Y-104153109D01*
X142381977Y-104147287D01*
X142359418Y-104139215D01*
X142337758Y-104128971D01*
X142317208Y-104116653D01*
X142297963Y-104102381D01*
X142280210Y-104086290D01*
X142264119Y-104068537D01*
X142249847Y-104049292D01*
X142237529Y-104028742D01*
X142227285Y-104007082D01*
X142219213Y-103984523D01*
X142213391Y-103961281D01*
X142209876Y-103937581D01*
X142208700Y-103913650D01*
X142208700Y-103350350D01*
X142209876Y-103326419D01*
X142213391Y-103302719D01*
X142219213Y-103279477D01*
X142227285Y-103256918D01*
X142237529Y-103235258D01*
X142249847Y-103214708D01*
X142264119Y-103195463D01*
X142280210Y-103177710D01*
X142297963Y-103161619D01*
X142317208Y-103147347D01*
X142337758Y-103135029D01*
X142359418Y-103124785D01*
X142381977Y-103116713D01*
X142405219Y-103110891D01*
X142428919Y-103107376D01*
X142452850Y-103106200D01*
X142941150Y-103106200D01*
X142965081Y-103107376D01*
X142965081Y-103107376D01*
G37*
D14*
X142697000Y-103632000D03*
D13*
G36*
X144540081Y-103107376D02*
X144563781Y-103110891D01*
X144587023Y-103116713D01*
X144609582Y-103124785D01*
X144631242Y-103135029D01*
X144651792Y-103147347D01*
X144671037Y-103161619D01*
X144688790Y-103177710D01*
X144704881Y-103195463D01*
X144719153Y-103214708D01*
X144731471Y-103235258D01*
X144741715Y-103256918D01*
X144749787Y-103279477D01*
X144755609Y-103302719D01*
X144759124Y-103326419D01*
X144760300Y-103350350D01*
X144760300Y-103913650D01*
X144759124Y-103937581D01*
X144755609Y-103961281D01*
X144749787Y-103984523D01*
X144741715Y-104007082D01*
X144731471Y-104028742D01*
X144719153Y-104049292D01*
X144704881Y-104068537D01*
X144688790Y-104086290D01*
X144671037Y-104102381D01*
X144651792Y-104116653D01*
X144631242Y-104128971D01*
X144609582Y-104139215D01*
X144587023Y-104147287D01*
X144563781Y-104153109D01*
X144540081Y-104156624D01*
X144516150Y-104157800D01*
X144027850Y-104157800D01*
X144003919Y-104156624D01*
X143980219Y-104153109D01*
X143956977Y-104147287D01*
X143934418Y-104139215D01*
X143912758Y-104128971D01*
X143892208Y-104116653D01*
X143872963Y-104102381D01*
X143855210Y-104086290D01*
X143839119Y-104068537D01*
X143824847Y-104049292D01*
X143812529Y-104028742D01*
X143802285Y-104007082D01*
X143794213Y-103984523D01*
X143788391Y-103961281D01*
X143784876Y-103937581D01*
X143783700Y-103913650D01*
X143783700Y-103350350D01*
X143784876Y-103326419D01*
X143788391Y-103302719D01*
X143794213Y-103279477D01*
X143802285Y-103256918D01*
X143812529Y-103235258D01*
X143824847Y-103214708D01*
X143839119Y-103195463D01*
X143855210Y-103177710D01*
X143872963Y-103161619D01*
X143892208Y-103147347D01*
X143912758Y-103135029D01*
X143934418Y-103124785D01*
X143956977Y-103116713D01*
X143980219Y-103110891D01*
X144003919Y-103107376D01*
X144027850Y-103106200D01*
X144516150Y-103106200D01*
X144540081Y-103107376D01*
X144540081Y-103107376D01*
G37*
D14*
X144272000Y-103632000D03*
G04 #@! TD*
D16*
G04 #@! TO.C,J1*
X107315000Y-83215000D03*
X107315000Y-83865000D03*
X107315000Y-84515000D03*
X107315000Y-82565000D03*
X107315000Y-81915000D03*
D17*
X107315000Y-85715000D03*
X107315000Y-80715000D03*
D18*
X104615000Y-79715000D03*
X104615000Y-86715000D03*
G04 #@! TD*
D19*
G04 #@! TO.C,J3*
X130810000Y-90170000D03*
D20*
X128270000Y-90170000D03*
X125730000Y-90170000D03*
X123190000Y-90170000D03*
X120650000Y-90170000D03*
X118110000Y-90170000D03*
G04 #@! TD*
D21*
G04 #@! TO.C,J4*
X105410000Y-95250000D03*
X105410000Y-97790000D03*
X105410000Y-100330000D03*
X105410000Y-102870000D03*
X105410000Y-105410000D03*
D22*
X105410000Y-107950000D03*
G04 #@! TD*
G04 #@! TO.C,J5*
X148590000Y-95250000D03*
D21*
X148590000Y-97790000D03*
X148590000Y-100330000D03*
X148590000Y-102870000D03*
X148590000Y-105410000D03*
X148590000Y-107950000D03*
G04 #@! TD*
D10*
G04 #@! TO.C,MK1*
X105410000Y-90170000D03*
G04 #@! TD*
D13*
G04 #@! TO.C,R1*
G36*
X121883081Y-119871376D02*
X121906781Y-119874891D01*
X121930023Y-119880713D01*
X121952582Y-119888785D01*
X121974242Y-119899029D01*
X121994792Y-119911347D01*
X122014037Y-119925619D01*
X122031790Y-119941710D01*
X122047881Y-119959463D01*
X122062153Y-119978708D01*
X122074471Y-119999258D01*
X122084715Y-120020918D01*
X122092787Y-120043477D01*
X122098609Y-120066719D01*
X122102124Y-120090419D01*
X122103300Y-120114350D01*
X122103300Y-120677650D01*
X122102124Y-120701581D01*
X122098609Y-120725281D01*
X122092787Y-120748523D01*
X122084715Y-120771082D01*
X122074471Y-120792742D01*
X122062153Y-120813292D01*
X122047881Y-120832537D01*
X122031790Y-120850290D01*
X122014037Y-120866381D01*
X121994792Y-120880653D01*
X121974242Y-120892971D01*
X121952582Y-120903215D01*
X121930023Y-120911287D01*
X121906781Y-120917109D01*
X121883081Y-120920624D01*
X121859150Y-120921800D01*
X121370850Y-120921800D01*
X121346919Y-120920624D01*
X121323219Y-120917109D01*
X121299977Y-120911287D01*
X121277418Y-120903215D01*
X121255758Y-120892971D01*
X121235208Y-120880653D01*
X121215963Y-120866381D01*
X121198210Y-120850290D01*
X121182119Y-120832537D01*
X121167847Y-120813292D01*
X121155529Y-120792742D01*
X121145285Y-120771082D01*
X121137213Y-120748523D01*
X121131391Y-120725281D01*
X121127876Y-120701581D01*
X121126700Y-120677650D01*
X121126700Y-120114350D01*
X121127876Y-120090419D01*
X121131391Y-120066719D01*
X121137213Y-120043477D01*
X121145285Y-120020918D01*
X121155529Y-119999258D01*
X121167847Y-119978708D01*
X121182119Y-119959463D01*
X121198210Y-119941710D01*
X121215963Y-119925619D01*
X121235208Y-119911347D01*
X121255758Y-119899029D01*
X121277418Y-119888785D01*
X121299977Y-119880713D01*
X121323219Y-119874891D01*
X121346919Y-119871376D01*
X121370850Y-119870200D01*
X121859150Y-119870200D01*
X121883081Y-119871376D01*
X121883081Y-119871376D01*
G37*
D14*
X121615000Y-120396000D03*
D13*
G36*
X123458081Y-119871376D02*
X123481781Y-119874891D01*
X123505023Y-119880713D01*
X123527582Y-119888785D01*
X123549242Y-119899029D01*
X123569792Y-119911347D01*
X123589037Y-119925619D01*
X123606790Y-119941710D01*
X123622881Y-119959463D01*
X123637153Y-119978708D01*
X123649471Y-119999258D01*
X123659715Y-120020918D01*
X123667787Y-120043477D01*
X123673609Y-120066719D01*
X123677124Y-120090419D01*
X123678300Y-120114350D01*
X123678300Y-120677650D01*
X123677124Y-120701581D01*
X123673609Y-120725281D01*
X123667787Y-120748523D01*
X123659715Y-120771082D01*
X123649471Y-120792742D01*
X123637153Y-120813292D01*
X123622881Y-120832537D01*
X123606790Y-120850290D01*
X123589037Y-120866381D01*
X123569792Y-120880653D01*
X123549242Y-120892971D01*
X123527582Y-120903215D01*
X123505023Y-120911287D01*
X123481781Y-120917109D01*
X123458081Y-120920624D01*
X123434150Y-120921800D01*
X122945850Y-120921800D01*
X122921919Y-120920624D01*
X122898219Y-120917109D01*
X122874977Y-120911287D01*
X122852418Y-120903215D01*
X122830758Y-120892971D01*
X122810208Y-120880653D01*
X122790963Y-120866381D01*
X122773210Y-120850290D01*
X122757119Y-120832537D01*
X122742847Y-120813292D01*
X122730529Y-120792742D01*
X122720285Y-120771082D01*
X122712213Y-120748523D01*
X122706391Y-120725281D01*
X122702876Y-120701581D01*
X122701700Y-120677650D01*
X122701700Y-120114350D01*
X122702876Y-120090419D01*
X122706391Y-120066719D01*
X122712213Y-120043477D01*
X122720285Y-120020918D01*
X122730529Y-119999258D01*
X122742847Y-119978708D01*
X122757119Y-119959463D01*
X122773210Y-119941710D01*
X122790963Y-119925619D01*
X122810208Y-119911347D01*
X122830758Y-119899029D01*
X122852418Y-119888785D01*
X122874977Y-119880713D01*
X122898219Y-119874891D01*
X122921919Y-119871376D01*
X122945850Y-119870200D01*
X123434150Y-119870200D01*
X123458081Y-119871376D01*
X123458081Y-119871376D01*
G37*
D14*
X123190000Y-120396000D03*
G04 #@! TD*
D13*
G04 #@! TO.C,R2*
G36*
X115367581Y-95067876D02*
X115391281Y-95071391D01*
X115414523Y-95077213D01*
X115437082Y-95085285D01*
X115458742Y-95095529D01*
X115479292Y-95107847D01*
X115498537Y-95122119D01*
X115516290Y-95138210D01*
X115532381Y-95155963D01*
X115546653Y-95175208D01*
X115558971Y-95195758D01*
X115569215Y-95217418D01*
X115577287Y-95239977D01*
X115583109Y-95263219D01*
X115586624Y-95286919D01*
X115587800Y-95310850D01*
X115587800Y-95799150D01*
X115586624Y-95823081D01*
X115583109Y-95846781D01*
X115577287Y-95870023D01*
X115569215Y-95892582D01*
X115558971Y-95914242D01*
X115546653Y-95934792D01*
X115532381Y-95954037D01*
X115516290Y-95971790D01*
X115498537Y-95987881D01*
X115479292Y-96002153D01*
X115458742Y-96014471D01*
X115437082Y-96024715D01*
X115414523Y-96032787D01*
X115391281Y-96038609D01*
X115367581Y-96042124D01*
X115343650Y-96043300D01*
X114780350Y-96043300D01*
X114756419Y-96042124D01*
X114732719Y-96038609D01*
X114709477Y-96032787D01*
X114686918Y-96024715D01*
X114665258Y-96014471D01*
X114644708Y-96002153D01*
X114625463Y-95987881D01*
X114607710Y-95971790D01*
X114591619Y-95954037D01*
X114577347Y-95934792D01*
X114565029Y-95914242D01*
X114554785Y-95892582D01*
X114546713Y-95870023D01*
X114540891Y-95846781D01*
X114537376Y-95823081D01*
X114536200Y-95799150D01*
X114536200Y-95310850D01*
X114537376Y-95286919D01*
X114540891Y-95263219D01*
X114546713Y-95239977D01*
X114554785Y-95217418D01*
X114565029Y-95195758D01*
X114577347Y-95175208D01*
X114591619Y-95155963D01*
X114607710Y-95138210D01*
X114625463Y-95122119D01*
X114644708Y-95107847D01*
X114665258Y-95095529D01*
X114686918Y-95085285D01*
X114709477Y-95077213D01*
X114732719Y-95071391D01*
X114756419Y-95067876D01*
X114780350Y-95066700D01*
X115343650Y-95066700D01*
X115367581Y-95067876D01*
X115367581Y-95067876D01*
G37*
D14*
X115062000Y-95555000D03*
D13*
G36*
X115367581Y-93492876D02*
X115391281Y-93496391D01*
X115414523Y-93502213D01*
X115437082Y-93510285D01*
X115458742Y-93520529D01*
X115479292Y-93532847D01*
X115498537Y-93547119D01*
X115516290Y-93563210D01*
X115532381Y-93580963D01*
X115546653Y-93600208D01*
X115558971Y-93620758D01*
X115569215Y-93642418D01*
X115577287Y-93664977D01*
X115583109Y-93688219D01*
X115586624Y-93711919D01*
X115587800Y-93735850D01*
X115587800Y-94224150D01*
X115586624Y-94248081D01*
X115583109Y-94271781D01*
X115577287Y-94295023D01*
X115569215Y-94317582D01*
X115558971Y-94339242D01*
X115546653Y-94359792D01*
X115532381Y-94379037D01*
X115516290Y-94396790D01*
X115498537Y-94412881D01*
X115479292Y-94427153D01*
X115458742Y-94439471D01*
X115437082Y-94449715D01*
X115414523Y-94457787D01*
X115391281Y-94463609D01*
X115367581Y-94467124D01*
X115343650Y-94468300D01*
X114780350Y-94468300D01*
X114756419Y-94467124D01*
X114732719Y-94463609D01*
X114709477Y-94457787D01*
X114686918Y-94449715D01*
X114665258Y-94439471D01*
X114644708Y-94427153D01*
X114625463Y-94412881D01*
X114607710Y-94396790D01*
X114591619Y-94379037D01*
X114577347Y-94359792D01*
X114565029Y-94339242D01*
X114554785Y-94317582D01*
X114546713Y-94295023D01*
X114540891Y-94271781D01*
X114537376Y-94248081D01*
X114536200Y-94224150D01*
X114536200Y-93735850D01*
X114537376Y-93711919D01*
X114540891Y-93688219D01*
X114546713Y-93664977D01*
X114554785Y-93642418D01*
X114565029Y-93620758D01*
X114577347Y-93600208D01*
X114591619Y-93580963D01*
X114607710Y-93563210D01*
X114625463Y-93547119D01*
X114644708Y-93532847D01*
X114665258Y-93520529D01*
X114686918Y-93510285D01*
X114709477Y-93502213D01*
X114732719Y-93496391D01*
X114756419Y-93492876D01*
X114780350Y-93491700D01*
X115343650Y-93491700D01*
X115367581Y-93492876D01*
X115367581Y-93492876D01*
G37*
D14*
X115062000Y-93980000D03*
G04 #@! TD*
D23*
G04 #@! TO.C,S1*
X119380000Y-78740000D03*
X122780000Y-78740000D03*
G04 #@! TD*
G04 #@! TO.C,S2*
X129130000Y-78740000D03*
X125730000Y-78740000D03*
G04 #@! TD*
G04 #@! TO.C,S3*
X135480000Y-78740000D03*
X132080000Y-78740000D03*
G04 #@! TD*
D24*
G04 #@! TO.C,S4*
X105410000Y-124050000D03*
X105410000Y-120650000D03*
G04 #@! TD*
D25*
G04 #@! TO.C,U1*
X109855000Y-82310000D03*
X109855000Y-80010000D03*
X109855000Y-77710000D03*
D26*
X116155000Y-80010000D03*
G04 #@! TD*
D27*
G04 #@! TO.C,U2*
X112268000Y-118730000D03*
X112768000Y-118730000D03*
X113268000Y-118730000D03*
X113768000Y-118730000D03*
X114268000Y-118730000D03*
X114768000Y-118730000D03*
X115268000Y-118730000D03*
X115768000Y-118730000D03*
X116268000Y-118730000D03*
X116768000Y-118730000D03*
X117268000Y-118730000D03*
X117768000Y-118730000D03*
X118268000Y-118730000D03*
X118768000Y-118730000D03*
X119268000Y-118730000D03*
X119768000Y-118730000D03*
D28*
X121718000Y-116780000D03*
X121718000Y-116280000D03*
X121718000Y-115780000D03*
X121718000Y-115280000D03*
X121718000Y-114780000D03*
X121718000Y-114280000D03*
X121718000Y-113780000D03*
X121718000Y-113280000D03*
X121718000Y-112780000D03*
X121718000Y-112280000D03*
X121718000Y-111780000D03*
X121718000Y-111280000D03*
X121718000Y-110780000D03*
X121718000Y-110280000D03*
X121718000Y-109780000D03*
X121718000Y-109280000D03*
D27*
X119768000Y-107330000D03*
X119268000Y-107330000D03*
X118768000Y-107330000D03*
X118268000Y-107330000D03*
X117768000Y-107330000D03*
X117268000Y-107330000D03*
X116768000Y-107330000D03*
X116268000Y-107330000D03*
X115768000Y-107330000D03*
X115268000Y-107330000D03*
X114768000Y-107330000D03*
X114268000Y-107330000D03*
X113768000Y-107330000D03*
X113268000Y-107330000D03*
X112768000Y-107330000D03*
X112268000Y-107330000D03*
D28*
X110318000Y-109280000D03*
X110318000Y-109780000D03*
X110318000Y-110280000D03*
X110318000Y-110780000D03*
X110318000Y-111280000D03*
X110318000Y-111780000D03*
X110318000Y-112280000D03*
X110318000Y-112780000D03*
X110318000Y-113280000D03*
X110318000Y-113780000D03*
X110318000Y-114280000D03*
X110318000Y-114780000D03*
X110318000Y-115280000D03*
X110318000Y-115780000D03*
X110318000Y-116280000D03*
X110318000Y-116780000D03*
G04 #@! TD*
D29*
G04 #@! TO.C,U3*
X128310000Y-120300000D03*
X128310000Y-118300000D03*
X128310000Y-116300000D03*
X128310000Y-114300000D03*
X128310000Y-112300000D03*
X128310000Y-110300000D03*
X128310000Y-108300000D03*
X128310000Y-106300000D03*
X143510000Y-106300000D03*
X143510000Y-108300000D03*
X143510000Y-110300000D03*
X143510000Y-112300000D03*
X143510000Y-114300000D03*
X143510000Y-116300000D03*
X143510000Y-118300000D03*
X143510000Y-120300000D03*
G04 #@! TD*
D30*
G04 #@! TO.C,Y1*
X122990000Y-123952000D03*
X118110000Y-123952000D03*
G04 #@! TD*
D31*
G04 #@! TO.C,Y2*
X113284000Y-121542000D03*
X113284000Y-120142000D03*
D32*
X113734000Y-120942000D03*
X112834000Y-120742000D03*
G04 #@! TD*
M02*
