G04 #@! TF.GenerationSoftware,KiCad,Pcbnew,(5.0.1-dev-5-g30da1a3b0)*
G04 #@! TF.CreationDate,2018-07-23T01:39:50-07:00*
G04 #@! TF.ProjectId,clock3,636C6F636B332E6B696361645F706362,rev?*
G04 #@! TF.SameCoordinates,Original*
G04 #@! TF.FileFunction,Legend,Bot*
G04 #@! TF.FilePolarity,Positive*
%FSLAX46Y46*%
G04 Gerber Fmt 4.6, Leading zero omitted, Abs format (unit mm)*
G04 Created by KiCad (PCBNEW (5.0.1-dev-5-g30da1a3b0)) date Mon Jul 23 01:39:50 2018*
%MOMM*%
%LPD*%
G01*
G04 APERTURE LIST*
%ADD10C,0.120000*%
%ADD11C,0.150000*%
G04 APERTURE END LIST*
D10*
G04 #@! TO.C,C10*
X116584000Y-114645221D02*
X116584000Y-114970779D01*
X117604000Y-114645221D02*
X117604000Y-114970779D01*
G04 #@! TO.C,C11*
X119382000Y-114645221D02*
X119382000Y-114970779D01*
X118362000Y-114645221D02*
X118362000Y-114970779D01*
G04 #@! TO.C,D1*
X139565000Y-77725000D02*
X139565000Y-81610000D01*
X137295000Y-77725000D02*
X139565000Y-77725000D01*
X137295000Y-81610000D02*
X137295000Y-77725000D01*
G04 #@! TO.C,D2*
X141105000Y-81610000D02*
X141105000Y-77725000D01*
X141105000Y-77725000D02*
X143375000Y-77725000D01*
X143375000Y-77725000D02*
X143375000Y-81610000D01*
G04 #@! TO.C,D3*
X144915000Y-81610000D02*
X144915000Y-77725000D01*
X144915000Y-77725000D02*
X147185000Y-77725000D01*
X147185000Y-77725000D02*
X147185000Y-81610000D01*
G04 #@! TO.C,D4*
X150995000Y-77725000D02*
X150995000Y-81610000D01*
X148725000Y-77725000D02*
X150995000Y-77725000D01*
X148725000Y-81610000D02*
X148725000Y-77725000D01*
G04 #@! TO.C,J3*
X132190000Y-87140000D02*
X132190000Y-93160000D01*
X132190000Y-93160000D02*
X116730000Y-93160000D01*
X116730000Y-93160000D02*
X116730000Y-87140000D01*
X116730000Y-87140000D02*
X132190000Y-87140000D01*
X132480000Y-88170000D02*
X132480000Y-92170000D01*
X130810000Y-93160000D02*
X130810000Y-92160000D01*
X130810000Y-92160000D02*
X118110000Y-92160000D01*
X118110000Y-92160000D02*
X118110000Y-93160000D01*
X130810000Y-92160000D02*
X130560000Y-91630000D01*
X130560000Y-91630000D02*
X118360000Y-91630000D01*
X118360000Y-91630000D02*
X118110000Y-92160000D01*
X130560000Y-93160000D02*
X130560000Y-92160000D01*
X118360000Y-93160000D02*
X118360000Y-92160000D01*
X131610000Y-87140000D02*
X131610000Y-87740000D01*
X131610000Y-87740000D02*
X130010000Y-87740000D01*
X130010000Y-87740000D02*
X130010000Y-87140000D01*
X129070000Y-87140000D02*
X129070000Y-87740000D01*
X129070000Y-87740000D02*
X127470000Y-87740000D01*
X127470000Y-87740000D02*
X127470000Y-87140000D01*
X126530000Y-87140000D02*
X126530000Y-87740000D01*
X126530000Y-87740000D02*
X124930000Y-87740000D01*
X124930000Y-87740000D02*
X124930000Y-87140000D01*
X123990000Y-87140000D02*
X123990000Y-87740000D01*
X123990000Y-87740000D02*
X122390000Y-87740000D01*
X122390000Y-87740000D02*
X122390000Y-87140000D01*
X121450000Y-87140000D02*
X121450000Y-87740000D01*
X121450000Y-87740000D02*
X119850000Y-87740000D01*
X119850000Y-87740000D02*
X119850000Y-87140000D01*
X118910000Y-87140000D02*
X118910000Y-87740000D01*
X118910000Y-87740000D02*
X117310000Y-87740000D01*
X117310000Y-87740000D02*
X117310000Y-87140000D01*
G04 #@! TO.C,R3*
X138428000Y-98389221D02*
X138428000Y-98714779D01*
X139448000Y-98389221D02*
X139448000Y-98714779D01*
G04 #@! TO.C,R4*
X138940000Y-83982779D02*
X138940000Y-83657221D01*
X137920000Y-83982779D02*
X137920000Y-83657221D01*
G04 #@! TO.C,R5*
X141730000Y-83982779D02*
X141730000Y-83657221D01*
X142750000Y-83982779D02*
X142750000Y-83657221D01*
G04 #@! TO.C,R6*
X146560000Y-83982779D02*
X146560000Y-83657221D01*
X145540000Y-83982779D02*
X145540000Y-83657221D01*
G04 #@! TO.C,R7*
X150370000Y-83982779D02*
X150370000Y-83657221D01*
X149350000Y-83982779D02*
X149350000Y-83657221D01*
G04 #@! TO.C,C10*
D11*
X115927142Y-114165142D02*
X115974761Y-114117523D01*
X116022380Y-113974666D01*
X116022380Y-113879428D01*
X115974761Y-113736571D01*
X115879523Y-113641333D01*
X115784285Y-113593714D01*
X115593809Y-113546095D01*
X115450952Y-113546095D01*
X115260476Y-113593714D01*
X115165238Y-113641333D01*
X115070000Y-113736571D01*
X115022380Y-113879428D01*
X115022380Y-113974666D01*
X115070000Y-114117523D01*
X115117619Y-114165142D01*
X116022380Y-115117523D02*
X116022380Y-114546095D01*
X116022380Y-114831809D02*
X115022380Y-114831809D01*
X115165238Y-114736571D01*
X115260476Y-114641333D01*
X115308095Y-114546095D01*
X115022380Y-115736571D02*
X115022380Y-115831809D01*
X115070000Y-115927047D01*
X115117619Y-115974666D01*
X115212857Y-116022285D01*
X115403333Y-116069904D01*
X115641428Y-116069904D01*
X115831904Y-116022285D01*
X115927142Y-115974666D01*
X115974761Y-115927047D01*
X116022380Y-115831809D01*
X116022380Y-115736571D01*
X115974761Y-115641333D01*
X115927142Y-115593714D01*
X115831904Y-115546095D01*
X115641428Y-115498476D01*
X115403333Y-115498476D01*
X115212857Y-115546095D01*
X115117619Y-115593714D01*
X115070000Y-115641333D01*
X115022380Y-115736571D01*
G04 #@! TO.C,C11*
X120753142Y-114165142D02*
X120800761Y-114117523D01*
X120848380Y-113974666D01*
X120848380Y-113879428D01*
X120800761Y-113736571D01*
X120705523Y-113641333D01*
X120610285Y-113593714D01*
X120419809Y-113546095D01*
X120276952Y-113546095D01*
X120086476Y-113593714D01*
X119991238Y-113641333D01*
X119896000Y-113736571D01*
X119848380Y-113879428D01*
X119848380Y-113974666D01*
X119896000Y-114117523D01*
X119943619Y-114165142D01*
X120848380Y-115117523D02*
X120848380Y-114546095D01*
X120848380Y-114831809D02*
X119848380Y-114831809D01*
X119991238Y-114736571D01*
X120086476Y-114641333D01*
X120134095Y-114546095D01*
X120848380Y-116069904D02*
X120848380Y-115498476D01*
X120848380Y-115784190D02*
X119848380Y-115784190D01*
X119991238Y-115688952D01*
X120086476Y-115593714D01*
X120134095Y-115498476D01*
G04 #@! TO.C,D1*
X137062380Y-79271904D02*
X136062380Y-79271904D01*
X136062380Y-79510000D01*
X136110000Y-79652857D01*
X136205238Y-79748095D01*
X136300476Y-79795714D01*
X136490952Y-79843333D01*
X136633809Y-79843333D01*
X136824285Y-79795714D01*
X136919523Y-79748095D01*
X137014761Y-79652857D01*
X137062380Y-79510000D01*
X137062380Y-79271904D01*
X137062380Y-80795714D02*
X137062380Y-80224285D01*
X137062380Y-80510000D02*
X136062380Y-80510000D01*
X136205238Y-80414761D01*
X136300476Y-80319523D01*
X136348095Y-80224285D01*
G04 #@! TO.C,D2*
X140872380Y-79271904D02*
X139872380Y-79271904D01*
X139872380Y-79510000D01*
X139920000Y-79652857D01*
X140015238Y-79748095D01*
X140110476Y-79795714D01*
X140300952Y-79843333D01*
X140443809Y-79843333D01*
X140634285Y-79795714D01*
X140729523Y-79748095D01*
X140824761Y-79652857D01*
X140872380Y-79510000D01*
X140872380Y-79271904D01*
X139967619Y-80224285D02*
X139920000Y-80271904D01*
X139872380Y-80367142D01*
X139872380Y-80605238D01*
X139920000Y-80700476D01*
X139967619Y-80748095D01*
X140062857Y-80795714D01*
X140158095Y-80795714D01*
X140300952Y-80748095D01*
X140872380Y-80176666D01*
X140872380Y-80795714D01*
G04 #@! TO.C,D3*
X144682380Y-79271904D02*
X143682380Y-79271904D01*
X143682380Y-79510000D01*
X143730000Y-79652857D01*
X143825238Y-79748095D01*
X143920476Y-79795714D01*
X144110952Y-79843333D01*
X144253809Y-79843333D01*
X144444285Y-79795714D01*
X144539523Y-79748095D01*
X144634761Y-79652857D01*
X144682380Y-79510000D01*
X144682380Y-79271904D01*
X143682380Y-80176666D02*
X143682380Y-80795714D01*
X144063333Y-80462380D01*
X144063333Y-80605238D01*
X144110952Y-80700476D01*
X144158571Y-80748095D01*
X144253809Y-80795714D01*
X144491904Y-80795714D01*
X144587142Y-80748095D01*
X144634761Y-80700476D01*
X144682380Y-80605238D01*
X144682380Y-80319523D01*
X144634761Y-80224285D01*
X144587142Y-80176666D01*
G04 #@! TO.C,D4*
X148492380Y-79271904D02*
X147492380Y-79271904D01*
X147492380Y-79510000D01*
X147540000Y-79652857D01*
X147635238Y-79748095D01*
X147730476Y-79795714D01*
X147920952Y-79843333D01*
X148063809Y-79843333D01*
X148254285Y-79795714D01*
X148349523Y-79748095D01*
X148444761Y-79652857D01*
X148492380Y-79510000D01*
X148492380Y-79271904D01*
X147825714Y-80700476D02*
X148492380Y-80700476D01*
X147444761Y-80462380D02*
X148159047Y-80224285D01*
X148159047Y-80843333D01*
G04 #@! TO.C,J3*
X124793333Y-85502380D02*
X124793333Y-86216666D01*
X124840952Y-86359523D01*
X124936190Y-86454761D01*
X125079047Y-86502380D01*
X125174285Y-86502380D01*
X124412380Y-85502380D02*
X123793333Y-85502380D01*
X124126666Y-85883333D01*
X123983809Y-85883333D01*
X123888571Y-85930952D01*
X123840952Y-85978571D01*
X123793333Y-86073809D01*
X123793333Y-86311904D01*
X123840952Y-86407142D01*
X123888571Y-86454761D01*
X123983809Y-86502380D01*
X124269523Y-86502380D01*
X124364761Y-86454761D01*
X124412380Y-86407142D01*
G04 #@! TO.C,R3*
X139104666Y-96946880D02*
X139438000Y-96470690D01*
X139676095Y-96946880D02*
X139676095Y-95946880D01*
X139295142Y-95946880D01*
X139199904Y-95994500D01*
X139152285Y-96042119D01*
X139104666Y-96137357D01*
X139104666Y-96280214D01*
X139152285Y-96375452D01*
X139199904Y-96423071D01*
X139295142Y-96470690D01*
X139676095Y-96470690D01*
X138771333Y-95946880D02*
X138152285Y-95946880D01*
X138485619Y-96327833D01*
X138342761Y-96327833D01*
X138247523Y-96375452D01*
X138199904Y-96423071D01*
X138152285Y-96518309D01*
X138152285Y-96756404D01*
X138199904Y-96851642D01*
X138247523Y-96899261D01*
X138342761Y-96946880D01*
X138628476Y-96946880D01*
X138723714Y-96899261D01*
X138771333Y-96851642D01*
G04 #@! TO.C,R4*
X140312380Y-83653333D02*
X139836190Y-83320000D01*
X140312380Y-83081904D02*
X139312380Y-83081904D01*
X139312380Y-83462857D01*
X139360000Y-83558095D01*
X139407619Y-83605714D01*
X139502857Y-83653333D01*
X139645714Y-83653333D01*
X139740952Y-83605714D01*
X139788571Y-83558095D01*
X139836190Y-83462857D01*
X139836190Y-83081904D01*
X139645714Y-84510476D02*
X140312380Y-84510476D01*
X139264761Y-84272380D02*
X139979047Y-84034285D01*
X139979047Y-84653333D01*
G04 #@! TO.C,R5*
X144122380Y-83653333D02*
X143646190Y-83320000D01*
X144122380Y-83081904D02*
X143122380Y-83081904D01*
X143122380Y-83462857D01*
X143170000Y-83558095D01*
X143217619Y-83605714D01*
X143312857Y-83653333D01*
X143455714Y-83653333D01*
X143550952Y-83605714D01*
X143598571Y-83558095D01*
X143646190Y-83462857D01*
X143646190Y-83081904D01*
X143122380Y-84558095D02*
X143122380Y-84081904D01*
X143598571Y-84034285D01*
X143550952Y-84081904D01*
X143503333Y-84177142D01*
X143503333Y-84415238D01*
X143550952Y-84510476D01*
X143598571Y-84558095D01*
X143693809Y-84605714D01*
X143931904Y-84605714D01*
X144027142Y-84558095D01*
X144074761Y-84510476D01*
X144122380Y-84415238D01*
X144122380Y-84177142D01*
X144074761Y-84081904D01*
X144027142Y-84034285D01*
G04 #@! TO.C,R6*
X147932380Y-83653333D02*
X147456190Y-83320000D01*
X147932380Y-83081904D02*
X146932380Y-83081904D01*
X146932380Y-83462857D01*
X146980000Y-83558095D01*
X147027619Y-83605714D01*
X147122857Y-83653333D01*
X147265714Y-83653333D01*
X147360952Y-83605714D01*
X147408571Y-83558095D01*
X147456190Y-83462857D01*
X147456190Y-83081904D01*
X146932380Y-84510476D02*
X146932380Y-84320000D01*
X146980000Y-84224761D01*
X147027619Y-84177142D01*
X147170476Y-84081904D01*
X147360952Y-84034285D01*
X147741904Y-84034285D01*
X147837142Y-84081904D01*
X147884761Y-84129523D01*
X147932380Y-84224761D01*
X147932380Y-84415238D01*
X147884761Y-84510476D01*
X147837142Y-84558095D01*
X147741904Y-84605714D01*
X147503809Y-84605714D01*
X147408571Y-84558095D01*
X147360952Y-84510476D01*
X147313333Y-84415238D01*
X147313333Y-84224761D01*
X147360952Y-84129523D01*
X147408571Y-84081904D01*
X147503809Y-84034285D01*
G04 #@! TO.C,R7*
X151742380Y-83653333D02*
X151266190Y-83320000D01*
X151742380Y-83081904D02*
X150742380Y-83081904D01*
X150742380Y-83462857D01*
X150790000Y-83558095D01*
X150837619Y-83605714D01*
X150932857Y-83653333D01*
X151075714Y-83653333D01*
X151170952Y-83605714D01*
X151218571Y-83558095D01*
X151266190Y-83462857D01*
X151266190Y-83081904D01*
X150742380Y-83986666D02*
X150742380Y-84653333D01*
X151742380Y-84224761D01*
G04 #@! TD*
M02*
