G04 #@! TF.GenerationSoftware,KiCad,Pcbnew,(5.0.1-dev-5-g30da1a3b0)*
G04 #@! TF.CreationDate,2018-07-23T01:39:50-07:00*
G04 #@! TF.ProjectId,clock3,636C6F636B332E6B696361645F706362,rev?*
G04 #@! TF.SameCoordinates,Original*
G04 #@! TF.FileFunction,Legend,Top*
G04 #@! TF.FilePolarity,Positive*
%FSLAX46Y46*%
G04 Gerber Fmt 4.6, Leading zero omitted, Abs format (unit mm)*
G04 Created by KiCad (PCBNEW (5.0.1-dev-5-g30da1a3b0)) date Mon Jul 23 01:39:50 2018*
%MOMM*%
%LPD*%
G01*
G04 APERTURE LIST*
%ADD10C,0.300000*%
%ADD11C,0.100000*%
%ADD12C,0.120000*%
%ADD13C,0.150000*%
G04 APERTURE END LIST*
D10*
X136557142Y-124995714D02*
X136485714Y-125067142D01*
X136271428Y-125138571D01*
X136128571Y-125138571D01*
X135914285Y-125067142D01*
X135771428Y-124924285D01*
X135700000Y-124781428D01*
X135628571Y-124495714D01*
X135628571Y-124281428D01*
X135700000Y-123995714D01*
X135771428Y-123852857D01*
X135914285Y-123710000D01*
X136128571Y-123638571D01*
X136271428Y-123638571D01*
X136485714Y-123710000D01*
X136557142Y-123781428D01*
X137914285Y-125138571D02*
X137200000Y-125138571D01*
X137200000Y-123638571D01*
X138700000Y-123638571D02*
X138985714Y-123638571D01*
X139128571Y-123710000D01*
X139271428Y-123852857D01*
X139342857Y-124138571D01*
X139342857Y-124638571D01*
X139271428Y-124924285D01*
X139128571Y-125067142D01*
X138985714Y-125138571D01*
X138700000Y-125138571D01*
X138557142Y-125067142D01*
X138414285Y-124924285D01*
X138342857Y-124638571D01*
X138342857Y-124138571D01*
X138414285Y-123852857D01*
X138557142Y-123710000D01*
X138700000Y-123638571D01*
X140842857Y-124995714D02*
X140771428Y-125067142D01*
X140557142Y-125138571D01*
X140414285Y-125138571D01*
X140200000Y-125067142D01*
X140057142Y-124924285D01*
X139985714Y-124781428D01*
X139914285Y-124495714D01*
X139914285Y-124281428D01*
X139985714Y-123995714D01*
X140057142Y-123852857D01*
X140200000Y-123710000D01*
X140414285Y-123638571D01*
X140557142Y-123638571D01*
X140771428Y-123710000D01*
X140842857Y-123781428D01*
X141485714Y-125138571D02*
X141485714Y-123638571D01*
X142342857Y-125138571D02*
X141700000Y-124281428D01*
X142342857Y-123638571D02*
X141485714Y-124495714D01*
X142842857Y-123638571D02*
X143771428Y-123638571D01*
X143271428Y-124210000D01*
X143485714Y-124210000D01*
X143628571Y-124281428D01*
X143700000Y-124352857D01*
X143771428Y-124495714D01*
X143771428Y-124852857D01*
X143700000Y-124995714D01*
X143628571Y-125067142D01*
X143485714Y-125138571D01*
X143057142Y-125138571D01*
X142914285Y-125067142D01*
X142842857Y-124995714D01*
D11*
G04 #@! TO.C,BOOT1*
X109660000Y-99740000D02*
X109660000Y-99240000D01*
X109660000Y-99740000D02*
X110160000Y-99740000D01*
X109660000Y-87840000D02*
X109660000Y-88340000D01*
X109660000Y-87840000D02*
X110160000Y-87840000D01*
X113860000Y-87840000D02*
X113860000Y-88340000D01*
X113860000Y-87840000D02*
X113360000Y-87840000D01*
X113860000Y-99740000D02*
X113360000Y-99740000D01*
X113860000Y-99740000D02*
X113860000Y-99240000D01*
G04 #@! TO.C,BOOT2*
X144340000Y-99740000D02*
X144340000Y-99240000D01*
X144340000Y-99740000D02*
X143840000Y-99740000D01*
X144340000Y-87840000D02*
X143840000Y-87840000D01*
X144340000Y-87840000D02*
X144340000Y-88340000D01*
X140140000Y-87840000D02*
X140640000Y-87840000D01*
X140140000Y-87840000D02*
X140140000Y-88340000D01*
X140140000Y-99740000D02*
X140640000Y-99740000D01*
X140140000Y-99740000D02*
X140140000Y-99240000D01*
D12*
G04 #@! TO.C,C1*
X109844721Y-84965000D02*
X110170279Y-84965000D01*
X109844721Y-83945000D02*
X110170279Y-83945000D01*
G04 #@! TO.C,C2*
X113040279Y-84965000D02*
X112714721Y-84965000D01*
X113040279Y-83945000D02*
X112714721Y-83945000D01*
G04 #@! TO.C,C3*
X116248922Y-83745000D02*
X116766078Y-83745000D01*
X116248922Y-85165000D02*
X116766078Y-85165000D01*
G04 #@! TO.C,C4*
X115940721Y-120906000D02*
X116266279Y-120906000D01*
X115940721Y-119886000D02*
X116266279Y-119886000D01*
G04 #@! TO.C,C5*
X119314279Y-120906000D02*
X118988721Y-120906000D01*
X119314279Y-119886000D02*
X118988721Y-119886000D01*
G04 #@! TO.C,C6*
X124140279Y-115822000D02*
X123814721Y-115822000D01*
X124140279Y-116842000D02*
X123814721Y-116842000D01*
G04 #@! TO.C,C7*
X124343279Y-109476000D02*
X124017721Y-109476000D01*
X124343279Y-108456000D02*
X124017721Y-108456000D01*
G04 #@! TO.C,C8*
X112151279Y-105154000D02*
X111825721Y-105154000D01*
X112151279Y-106174000D02*
X111825721Y-106174000D01*
G04 #@! TO.C,C9*
X109222000Y-117413721D02*
X109222000Y-117739279D01*
X108202000Y-117413721D02*
X108202000Y-117739279D01*
G04 #@! TO.C,C12*
X118870000Y-81904721D02*
X118870000Y-82230279D01*
X119890000Y-81904721D02*
X119890000Y-82230279D01*
G04 #@! TO.C,C13*
X126240000Y-81904721D02*
X126240000Y-82230279D01*
X125220000Y-81904721D02*
X125220000Y-82230279D01*
G04 #@! TO.C,C14*
X131570000Y-81904721D02*
X131570000Y-82230279D01*
X132590000Y-81904721D02*
X132590000Y-82230279D01*
G04 #@! TO.C,C15*
X104900000Y-118755279D02*
X104900000Y-118429721D01*
X105920000Y-118755279D02*
X105920000Y-118429721D01*
G04 #@! TO.C,C16*
X143321721Y-103122000D02*
X143647279Y-103122000D01*
X143321721Y-104142000D02*
X143647279Y-104142000D01*
D11*
G04 #@! TO.C,J1*
X102415000Y-79115000D02*
X101865000Y-79115000D01*
X101865000Y-79115000D02*
X101865000Y-79765000D01*
X102465000Y-87315000D02*
X101865000Y-87315000D01*
X101865000Y-87315000D02*
X101865000Y-86915000D01*
X107565000Y-86815000D02*
X107565000Y-87315000D01*
X107565000Y-87315000D02*
X106865000Y-87315000D01*
X107565000Y-79865000D02*
X107565000Y-79415000D01*
X107565000Y-79415000D02*
X107215000Y-79115000D01*
X107215000Y-79115000D02*
X106915000Y-79115000D01*
X106915000Y-79115000D02*
X106915000Y-78965000D01*
D12*
G04 #@! TO.C,J4*
X102980000Y-94450000D02*
X102380000Y-94450000D01*
X102980000Y-96050000D02*
X102980000Y-94450000D01*
X102380000Y-96050000D02*
X102980000Y-96050000D01*
X102980000Y-96990000D02*
X102380000Y-96990000D01*
X102980000Y-98590000D02*
X102980000Y-96990000D01*
X102380000Y-98590000D02*
X102980000Y-98590000D01*
X102980000Y-99530000D02*
X102380000Y-99530000D01*
X102980000Y-101130000D02*
X102980000Y-99530000D01*
X102380000Y-101130000D02*
X102980000Y-101130000D01*
X102980000Y-102070000D02*
X102380000Y-102070000D01*
X102980000Y-103670000D02*
X102980000Y-102070000D01*
X102380000Y-103670000D02*
X102980000Y-103670000D01*
X102980000Y-104610000D02*
X102380000Y-104610000D01*
X102980000Y-106210000D02*
X102980000Y-104610000D01*
X102380000Y-106210000D02*
X102980000Y-106210000D01*
X102980000Y-107150000D02*
X102380000Y-107150000D01*
X102980000Y-108750000D02*
X102980000Y-107150000D01*
X102380000Y-108750000D02*
X102980000Y-108750000D01*
X108400000Y-95500000D02*
X107400000Y-95500000D01*
X108400000Y-107700000D02*
X107400000Y-107700000D01*
X106870000Y-95500000D02*
X107400000Y-95250000D01*
X106870000Y-107700000D02*
X106870000Y-95500000D01*
X107400000Y-107950000D02*
X106870000Y-107700000D01*
X107400000Y-95250000D02*
X108400000Y-95250000D01*
X107400000Y-107950000D02*
X107400000Y-95250000D01*
X108400000Y-107950000D02*
X107400000Y-107950000D01*
X103410000Y-109620000D02*
X107410000Y-109620000D01*
X102380000Y-93870000D02*
X102380000Y-109330000D01*
X108400000Y-93870000D02*
X102380000Y-93870000D01*
X108400000Y-109330000D02*
X108400000Y-93870000D01*
X102380000Y-109330000D02*
X108400000Y-109330000D01*
G04 #@! TO.C,J5*
X151620000Y-93870000D02*
X145600000Y-93870000D01*
X145600000Y-93870000D02*
X145600000Y-109330000D01*
X145600000Y-109330000D02*
X151620000Y-109330000D01*
X151620000Y-109330000D02*
X151620000Y-93870000D01*
X150590000Y-93580000D02*
X146590000Y-93580000D01*
X145600000Y-95250000D02*
X146600000Y-95250000D01*
X146600000Y-95250000D02*
X146600000Y-107950000D01*
X146600000Y-107950000D02*
X145600000Y-107950000D01*
X146600000Y-95250000D02*
X147130000Y-95500000D01*
X147130000Y-95500000D02*
X147130000Y-107700000D01*
X147130000Y-107700000D02*
X146600000Y-107950000D01*
X145600000Y-95500000D02*
X146600000Y-95500000D01*
X145600000Y-107700000D02*
X146600000Y-107700000D01*
X151620000Y-94450000D02*
X151020000Y-94450000D01*
X151020000Y-94450000D02*
X151020000Y-96050000D01*
X151020000Y-96050000D02*
X151620000Y-96050000D01*
X151620000Y-96990000D02*
X151020000Y-96990000D01*
X151020000Y-96990000D02*
X151020000Y-98590000D01*
X151020000Y-98590000D02*
X151620000Y-98590000D01*
X151620000Y-99530000D02*
X151020000Y-99530000D01*
X151020000Y-99530000D02*
X151020000Y-101130000D01*
X151020000Y-101130000D02*
X151620000Y-101130000D01*
X151620000Y-102070000D02*
X151020000Y-102070000D01*
X151020000Y-102070000D02*
X151020000Y-103670000D01*
X151020000Y-103670000D02*
X151620000Y-103670000D01*
X151620000Y-104610000D02*
X151020000Y-104610000D01*
X151020000Y-104610000D02*
X151020000Y-106210000D01*
X151020000Y-106210000D02*
X151620000Y-106210000D01*
X151620000Y-107150000D02*
X151020000Y-107150000D01*
X151020000Y-107150000D02*
X151020000Y-108750000D01*
X151020000Y-108750000D02*
X151620000Y-108750000D01*
G04 #@! TO.C,R1*
X122565279Y-119886000D02*
X122239721Y-119886000D01*
X122565279Y-120906000D02*
X122239721Y-120906000D01*
G04 #@! TO.C,R2*
X114552000Y-94604721D02*
X114552000Y-94930279D01*
X115572000Y-94604721D02*
X115572000Y-94930279D01*
D11*
G04 #@! TO.C,S1*
X119480000Y-80340000D02*
X119480000Y-79840000D01*
X119480000Y-80340000D02*
X119980000Y-80340000D01*
X122680000Y-80340000D02*
X122280000Y-80340000D01*
X122680000Y-80340000D02*
X122680000Y-79840000D01*
X122680000Y-77140000D02*
X122680000Y-77640000D01*
X122680000Y-77140000D02*
X122180000Y-77140000D01*
X119480000Y-77140000D02*
X119480000Y-77640000D01*
X119480000Y-77640000D02*
X119080000Y-77640000D01*
X119480000Y-77140000D02*
X119980000Y-77140000D01*
G04 #@! TO.C,S2*
X125830000Y-77140000D02*
X126330000Y-77140000D01*
X125830000Y-77640000D02*
X125430000Y-77640000D01*
X125830000Y-77140000D02*
X125830000Y-77640000D01*
X129030000Y-77140000D02*
X128530000Y-77140000D01*
X129030000Y-77140000D02*
X129030000Y-77640000D01*
X129030000Y-80340000D02*
X129030000Y-79840000D01*
X129030000Y-80340000D02*
X128630000Y-80340000D01*
X125830000Y-80340000D02*
X126330000Y-80340000D01*
X125830000Y-80340000D02*
X125830000Y-79840000D01*
G04 #@! TO.C,S3*
X132180000Y-77140000D02*
X132680000Y-77140000D01*
X132180000Y-77640000D02*
X131780000Y-77640000D01*
X132180000Y-77140000D02*
X132180000Y-77640000D01*
X135380000Y-77140000D02*
X134880000Y-77140000D01*
X135380000Y-77140000D02*
X135380000Y-77640000D01*
X135380000Y-80340000D02*
X135380000Y-79840000D01*
X135380000Y-80340000D02*
X134980000Y-80340000D01*
X132180000Y-80340000D02*
X132680000Y-80340000D01*
X132180000Y-80340000D02*
X132180000Y-79840000D01*
G04 #@! TO.C,S4*
X107010000Y-123950000D02*
X106510000Y-123950000D01*
X107010000Y-123950000D02*
X107010000Y-123450000D01*
X107010000Y-120750000D02*
X107010000Y-121150000D01*
X107010000Y-120750000D02*
X106510000Y-120750000D01*
X103810000Y-120750000D02*
X104310000Y-120750000D01*
X103810000Y-120750000D02*
X103810000Y-121250000D01*
X103810000Y-123950000D02*
X104310000Y-123950000D01*
X104310000Y-123950000D02*
X104310000Y-124350000D01*
X103810000Y-123950000D02*
X103810000Y-123450000D01*
G04 #@! TO.C,U1*
X112030000Y-76735000D02*
X111555000Y-76735000D01*
X111555000Y-76735000D02*
X111230000Y-77035000D01*
X111230000Y-77035000D02*
X111035000Y-77035000D01*
X111705000Y-83285000D02*
X111230000Y-83285000D01*
X111230000Y-83285000D02*
X111230000Y-82835000D01*
X114780000Y-77235000D02*
X114780000Y-76735000D01*
X114780000Y-76735000D02*
X114380000Y-76735000D01*
X114780000Y-82910000D02*
X114780000Y-83285000D01*
X114780000Y-83285000D02*
X114480000Y-83285000D01*
D13*
G04 #@! TO.C,U2*
X110843000Y-118205000D02*
X111843000Y-118205000D01*
X110843000Y-107855000D02*
X111918000Y-107855000D01*
X121193000Y-107855000D02*
X120118000Y-107855000D01*
X121193000Y-118205000D02*
X120118000Y-118205000D01*
X110843000Y-118205000D02*
X110843000Y-117130000D01*
X121193000Y-118205000D02*
X121193000Y-117130000D01*
X121193000Y-107855000D02*
X121193000Y-108930000D01*
X110843000Y-107855000D02*
X110843000Y-108930000D01*
X111843000Y-118205000D02*
X111843000Y-119230000D01*
D12*
G04 #@! TO.C,U3*
X127790000Y-119100000D02*
X127790000Y-119500000D01*
X144030000Y-119100000D02*
X144030000Y-119500000D01*
X127790000Y-117100000D02*
X127790000Y-117500000D01*
X144030000Y-117100000D02*
X144030000Y-117500000D01*
X127790000Y-115100000D02*
X127790000Y-115500000D01*
X144030000Y-115100000D02*
X144030000Y-115500000D01*
X127790000Y-113100000D02*
X127790000Y-113500000D01*
X144030000Y-113100000D02*
X144030000Y-113500000D01*
X127790000Y-111100000D02*
X127790000Y-111500000D01*
X144030000Y-111100000D02*
X144030000Y-111500000D01*
X127790000Y-109100000D02*
X127790000Y-109500000D01*
X144030000Y-109100000D02*
X144030000Y-109500000D01*
X127790000Y-107100000D02*
X127790000Y-107500000D01*
X144030000Y-107100000D02*
X144030000Y-107500000D01*
X145060000Y-120800000D02*
X145060000Y-119800000D01*
X144030000Y-104680000D02*
X144030000Y-105500000D01*
X127790000Y-104680000D02*
X144030000Y-104680000D01*
X127790000Y-105500000D02*
X127790000Y-104680000D01*
G04 #@! TO.C,Y1*
X123750000Y-126477000D02*
X117350000Y-126477000D01*
X123750000Y-121427000D02*
X117350000Y-121427000D01*
X123750000Y-121427000D02*
G75*
G02X123750000Y-126477000I0J-2525000D01*
G01*
X117350000Y-121427000D02*
G75*
G03X117350000Y-126477000I0J-2525000D01*
G01*
D11*
G04 #@! TO.C,Y2*
X113084000Y-121942000D02*
X113084000Y-122042000D01*
X112584000Y-121842000D02*
X112784000Y-121842000D01*
X112784000Y-121842000D02*
X112884000Y-121942000D01*
X112884000Y-121942000D02*
X113084000Y-121942000D01*
X113984000Y-121842000D02*
X113984000Y-121942000D01*
X113984000Y-121942000D02*
X113584000Y-121942000D01*
X113984000Y-119842000D02*
X113984000Y-119742000D01*
X113984000Y-119742000D02*
X113684000Y-119742000D01*
X112584000Y-119842000D02*
X112584000Y-119742000D01*
X112584000Y-119742000D02*
X112984000Y-119742000D01*
G04 #@! TO.C,BOOT1*
D13*
X109926666Y-100893571D02*
X110069523Y-100941190D01*
X110117142Y-100988809D01*
X110164761Y-101084047D01*
X110164761Y-101226904D01*
X110117142Y-101322142D01*
X110069523Y-101369761D01*
X109974285Y-101417380D01*
X109593333Y-101417380D01*
X109593333Y-100417380D01*
X109926666Y-100417380D01*
X110021904Y-100465000D01*
X110069523Y-100512619D01*
X110117142Y-100607857D01*
X110117142Y-100703095D01*
X110069523Y-100798333D01*
X110021904Y-100845952D01*
X109926666Y-100893571D01*
X109593333Y-100893571D01*
X110783809Y-100417380D02*
X110974285Y-100417380D01*
X111069523Y-100465000D01*
X111164761Y-100560238D01*
X111212380Y-100750714D01*
X111212380Y-101084047D01*
X111164761Y-101274523D01*
X111069523Y-101369761D01*
X110974285Y-101417380D01*
X110783809Y-101417380D01*
X110688571Y-101369761D01*
X110593333Y-101274523D01*
X110545714Y-101084047D01*
X110545714Y-100750714D01*
X110593333Y-100560238D01*
X110688571Y-100465000D01*
X110783809Y-100417380D01*
X111831428Y-100417380D02*
X112021904Y-100417380D01*
X112117142Y-100465000D01*
X112212380Y-100560238D01*
X112260000Y-100750714D01*
X112260000Y-101084047D01*
X112212380Y-101274523D01*
X112117142Y-101369761D01*
X112021904Y-101417380D01*
X111831428Y-101417380D01*
X111736190Y-101369761D01*
X111640952Y-101274523D01*
X111593333Y-101084047D01*
X111593333Y-100750714D01*
X111640952Y-100560238D01*
X111736190Y-100465000D01*
X111831428Y-100417380D01*
X112545714Y-100417380D02*
X113117142Y-100417380D01*
X112831428Y-101417380D02*
X112831428Y-100417380D01*
X113974285Y-101417380D02*
X113402857Y-101417380D01*
X113688571Y-101417380D02*
X113688571Y-100417380D01*
X113593333Y-100560238D01*
X113498095Y-100655476D01*
X113402857Y-100703095D01*
G04 #@! TO.C,BOOT2*
X140406666Y-100893571D02*
X140549523Y-100941190D01*
X140597142Y-100988809D01*
X140644761Y-101084047D01*
X140644761Y-101226904D01*
X140597142Y-101322142D01*
X140549523Y-101369761D01*
X140454285Y-101417380D01*
X140073333Y-101417380D01*
X140073333Y-100417380D01*
X140406666Y-100417380D01*
X140501904Y-100465000D01*
X140549523Y-100512619D01*
X140597142Y-100607857D01*
X140597142Y-100703095D01*
X140549523Y-100798333D01*
X140501904Y-100845952D01*
X140406666Y-100893571D01*
X140073333Y-100893571D01*
X141263809Y-100417380D02*
X141454285Y-100417380D01*
X141549523Y-100465000D01*
X141644761Y-100560238D01*
X141692380Y-100750714D01*
X141692380Y-101084047D01*
X141644761Y-101274523D01*
X141549523Y-101369761D01*
X141454285Y-101417380D01*
X141263809Y-101417380D01*
X141168571Y-101369761D01*
X141073333Y-101274523D01*
X141025714Y-101084047D01*
X141025714Y-100750714D01*
X141073333Y-100560238D01*
X141168571Y-100465000D01*
X141263809Y-100417380D01*
X142311428Y-100417380D02*
X142501904Y-100417380D01*
X142597142Y-100465000D01*
X142692380Y-100560238D01*
X142740000Y-100750714D01*
X142740000Y-101084047D01*
X142692380Y-101274523D01*
X142597142Y-101369761D01*
X142501904Y-101417380D01*
X142311428Y-101417380D01*
X142216190Y-101369761D01*
X142120952Y-101274523D01*
X142073333Y-101084047D01*
X142073333Y-100750714D01*
X142120952Y-100560238D01*
X142216190Y-100465000D01*
X142311428Y-100417380D01*
X143025714Y-100417380D02*
X143597142Y-100417380D01*
X143311428Y-101417380D02*
X143311428Y-100417380D01*
X143882857Y-100512619D02*
X143930476Y-100465000D01*
X144025714Y-100417380D01*
X144263809Y-100417380D01*
X144359047Y-100465000D01*
X144406666Y-100512619D01*
X144454285Y-100607857D01*
X144454285Y-100703095D01*
X144406666Y-100845952D01*
X143835238Y-101417380D01*
X144454285Y-101417380D01*
G04 #@! TO.C,C1*
X109840833Y-86209142D02*
X109793214Y-86256761D01*
X109650357Y-86304380D01*
X109555119Y-86304380D01*
X109412261Y-86256761D01*
X109317023Y-86161523D01*
X109269404Y-86066285D01*
X109221785Y-85875809D01*
X109221785Y-85732952D01*
X109269404Y-85542476D01*
X109317023Y-85447238D01*
X109412261Y-85352000D01*
X109555119Y-85304380D01*
X109650357Y-85304380D01*
X109793214Y-85352000D01*
X109840833Y-85399619D01*
X110793214Y-86304380D02*
X110221785Y-86304380D01*
X110507500Y-86304380D02*
X110507500Y-85304380D01*
X110412261Y-85447238D01*
X110317023Y-85542476D01*
X110221785Y-85590095D01*
G04 #@! TO.C,C2*
X112863333Y-86209142D02*
X112815714Y-86256761D01*
X112672857Y-86304380D01*
X112577619Y-86304380D01*
X112434761Y-86256761D01*
X112339523Y-86161523D01*
X112291904Y-86066285D01*
X112244285Y-85875809D01*
X112244285Y-85732952D01*
X112291904Y-85542476D01*
X112339523Y-85447238D01*
X112434761Y-85352000D01*
X112577619Y-85304380D01*
X112672857Y-85304380D01*
X112815714Y-85352000D01*
X112863333Y-85399619D01*
X113244285Y-85399619D02*
X113291904Y-85352000D01*
X113387142Y-85304380D01*
X113625238Y-85304380D01*
X113720476Y-85352000D01*
X113768095Y-85399619D01*
X113815714Y-85494857D01*
X113815714Y-85590095D01*
X113768095Y-85732952D01*
X113196666Y-86304380D01*
X113815714Y-86304380D01*
G04 #@! TO.C,C3*
X116673333Y-86463142D02*
X116625714Y-86510761D01*
X116482857Y-86558380D01*
X116387619Y-86558380D01*
X116244761Y-86510761D01*
X116149523Y-86415523D01*
X116101904Y-86320285D01*
X116054285Y-86129809D01*
X116054285Y-85986952D01*
X116101904Y-85796476D01*
X116149523Y-85701238D01*
X116244761Y-85606000D01*
X116387619Y-85558380D01*
X116482857Y-85558380D01*
X116625714Y-85606000D01*
X116673333Y-85653619D01*
X117006666Y-85558380D02*
X117625714Y-85558380D01*
X117292380Y-85939333D01*
X117435238Y-85939333D01*
X117530476Y-85986952D01*
X117578095Y-86034571D01*
X117625714Y-86129809D01*
X117625714Y-86367904D01*
X117578095Y-86463142D01*
X117530476Y-86510761D01*
X117435238Y-86558380D01*
X117149523Y-86558380D01*
X117054285Y-86510761D01*
X117006666Y-86463142D01*
G04 #@! TO.C,C4*
X115936833Y-122277142D02*
X115889214Y-122324761D01*
X115746357Y-122372380D01*
X115651119Y-122372380D01*
X115508261Y-122324761D01*
X115413023Y-122229523D01*
X115365404Y-122134285D01*
X115317785Y-121943809D01*
X115317785Y-121800952D01*
X115365404Y-121610476D01*
X115413023Y-121515238D01*
X115508261Y-121420000D01*
X115651119Y-121372380D01*
X115746357Y-121372380D01*
X115889214Y-121420000D01*
X115936833Y-121467619D01*
X116793976Y-121705714D02*
X116793976Y-122372380D01*
X116555880Y-121324761D02*
X116317785Y-122039047D01*
X116936833Y-122039047D01*
G04 #@! TO.C,C5*
X118984833Y-122277142D02*
X118937214Y-122324761D01*
X118794357Y-122372380D01*
X118699119Y-122372380D01*
X118556261Y-122324761D01*
X118461023Y-122229523D01*
X118413404Y-122134285D01*
X118365785Y-121943809D01*
X118365785Y-121800952D01*
X118413404Y-121610476D01*
X118461023Y-121515238D01*
X118556261Y-121420000D01*
X118699119Y-121372380D01*
X118794357Y-121372380D01*
X118937214Y-121420000D01*
X118984833Y-121467619D01*
X119889595Y-121372380D02*
X119413404Y-121372380D01*
X119365785Y-121848571D01*
X119413404Y-121800952D01*
X119508642Y-121753333D01*
X119746738Y-121753333D01*
X119841976Y-121800952D01*
X119889595Y-121848571D01*
X119937214Y-121943809D01*
X119937214Y-122181904D01*
X119889595Y-122277142D01*
X119841976Y-122324761D01*
X119746738Y-122372380D01*
X119508642Y-122372380D01*
X119413404Y-122324761D01*
X119365785Y-122277142D01*
G04 #@! TO.C,C6*
X123810833Y-118119142D02*
X123763214Y-118166761D01*
X123620357Y-118214380D01*
X123525119Y-118214380D01*
X123382261Y-118166761D01*
X123287023Y-118071523D01*
X123239404Y-117976285D01*
X123191785Y-117785809D01*
X123191785Y-117642952D01*
X123239404Y-117452476D01*
X123287023Y-117357238D01*
X123382261Y-117262000D01*
X123525119Y-117214380D01*
X123620357Y-117214380D01*
X123763214Y-117262000D01*
X123810833Y-117309619D01*
X124667976Y-117214380D02*
X124477500Y-117214380D01*
X124382261Y-117262000D01*
X124334642Y-117309619D01*
X124239404Y-117452476D01*
X124191785Y-117642952D01*
X124191785Y-118023904D01*
X124239404Y-118119142D01*
X124287023Y-118166761D01*
X124382261Y-118214380D01*
X124572738Y-118214380D01*
X124667976Y-118166761D01*
X124715595Y-118119142D01*
X124763214Y-118023904D01*
X124763214Y-117785809D01*
X124715595Y-117690571D01*
X124667976Y-117642952D01*
X124572738Y-117595333D01*
X124382261Y-117595333D01*
X124287023Y-117642952D01*
X124239404Y-117690571D01*
X124191785Y-117785809D01*
G04 #@! TO.C,C7*
X124013833Y-110753142D02*
X123966214Y-110800761D01*
X123823357Y-110848380D01*
X123728119Y-110848380D01*
X123585261Y-110800761D01*
X123490023Y-110705523D01*
X123442404Y-110610285D01*
X123394785Y-110419809D01*
X123394785Y-110276952D01*
X123442404Y-110086476D01*
X123490023Y-109991238D01*
X123585261Y-109896000D01*
X123728119Y-109848380D01*
X123823357Y-109848380D01*
X123966214Y-109896000D01*
X124013833Y-109943619D01*
X124347166Y-109848380D02*
X125013833Y-109848380D01*
X124585261Y-110848380D01*
G04 #@! TO.C,C8*
X111593333Y-104497142D02*
X111545714Y-104544761D01*
X111402857Y-104592380D01*
X111307619Y-104592380D01*
X111164761Y-104544761D01*
X111069523Y-104449523D01*
X111021904Y-104354285D01*
X110974285Y-104163809D01*
X110974285Y-104020952D01*
X111021904Y-103830476D01*
X111069523Y-103735238D01*
X111164761Y-103640000D01*
X111307619Y-103592380D01*
X111402857Y-103592380D01*
X111545714Y-103640000D01*
X111593333Y-103687619D01*
X112164761Y-104020952D02*
X112069523Y-103973333D01*
X112021904Y-103925714D01*
X111974285Y-103830476D01*
X111974285Y-103782857D01*
X112021904Y-103687619D01*
X112069523Y-103640000D01*
X112164761Y-103592380D01*
X112355238Y-103592380D01*
X112450476Y-103640000D01*
X112498095Y-103687619D01*
X112545714Y-103782857D01*
X112545714Y-103830476D01*
X112498095Y-103925714D01*
X112450476Y-103973333D01*
X112355238Y-104020952D01*
X112164761Y-104020952D01*
X112069523Y-104068571D01*
X112021904Y-104116190D01*
X111974285Y-104211428D01*
X111974285Y-104401904D01*
X112021904Y-104497142D01*
X112069523Y-104544761D01*
X112164761Y-104592380D01*
X112355238Y-104592380D01*
X112450476Y-104544761D01*
X112498095Y-104497142D01*
X112545714Y-104401904D01*
X112545714Y-104211428D01*
X112498095Y-104116190D01*
X112450476Y-104068571D01*
X112355238Y-104020952D01*
G04 #@! TO.C,C9*
X108418333Y-115927142D02*
X108370714Y-115974761D01*
X108227857Y-116022380D01*
X108132619Y-116022380D01*
X107989761Y-115974761D01*
X107894523Y-115879523D01*
X107846904Y-115784285D01*
X107799285Y-115593809D01*
X107799285Y-115450952D01*
X107846904Y-115260476D01*
X107894523Y-115165238D01*
X107989761Y-115070000D01*
X108132619Y-115022380D01*
X108227857Y-115022380D01*
X108370714Y-115070000D01*
X108418333Y-115117619D01*
X108894523Y-116022380D02*
X109085000Y-116022380D01*
X109180238Y-115974761D01*
X109227857Y-115927142D01*
X109323095Y-115784285D01*
X109370714Y-115593809D01*
X109370714Y-115212857D01*
X109323095Y-115117619D01*
X109275476Y-115070000D01*
X109180238Y-115022380D01*
X108989761Y-115022380D01*
X108894523Y-115070000D01*
X108846904Y-115117619D01*
X108799285Y-115212857D01*
X108799285Y-115450952D01*
X108846904Y-115546190D01*
X108894523Y-115593809D01*
X108989761Y-115641428D01*
X109180238Y-115641428D01*
X109275476Y-115593809D01*
X109323095Y-115546190D01*
X109370714Y-115450952D01*
G04 #@! TO.C,C12*
X121277142Y-82907142D02*
X121229523Y-82954761D01*
X121086666Y-83002380D01*
X120991428Y-83002380D01*
X120848571Y-82954761D01*
X120753333Y-82859523D01*
X120705714Y-82764285D01*
X120658095Y-82573809D01*
X120658095Y-82430952D01*
X120705714Y-82240476D01*
X120753333Y-82145238D01*
X120848571Y-82050000D01*
X120991428Y-82002380D01*
X121086666Y-82002380D01*
X121229523Y-82050000D01*
X121277142Y-82097619D01*
X122229523Y-83002380D02*
X121658095Y-83002380D01*
X121943809Y-83002380D02*
X121943809Y-82002380D01*
X121848571Y-82145238D01*
X121753333Y-82240476D01*
X121658095Y-82288095D01*
X122610476Y-82097619D02*
X122658095Y-82050000D01*
X122753333Y-82002380D01*
X122991428Y-82002380D01*
X123086666Y-82050000D01*
X123134285Y-82097619D01*
X123181904Y-82192857D01*
X123181904Y-82288095D01*
X123134285Y-82430952D01*
X122562857Y-83002380D01*
X123181904Y-83002380D01*
G04 #@! TO.C,C13*
X127627142Y-82907142D02*
X127579523Y-82954761D01*
X127436666Y-83002380D01*
X127341428Y-83002380D01*
X127198571Y-82954761D01*
X127103333Y-82859523D01*
X127055714Y-82764285D01*
X127008095Y-82573809D01*
X127008095Y-82430952D01*
X127055714Y-82240476D01*
X127103333Y-82145238D01*
X127198571Y-82050000D01*
X127341428Y-82002380D01*
X127436666Y-82002380D01*
X127579523Y-82050000D01*
X127627142Y-82097619D01*
X128579523Y-83002380D02*
X128008095Y-83002380D01*
X128293809Y-83002380D02*
X128293809Y-82002380D01*
X128198571Y-82145238D01*
X128103333Y-82240476D01*
X128008095Y-82288095D01*
X128912857Y-82002380D02*
X129531904Y-82002380D01*
X129198571Y-82383333D01*
X129341428Y-82383333D01*
X129436666Y-82430952D01*
X129484285Y-82478571D01*
X129531904Y-82573809D01*
X129531904Y-82811904D01*
X129484285Y-82907142D01*
X129436666Y-82954761D01*
X129341428Y-83002380D01*
X129055714Y-83002380D01*
X128960476Y-82954761D01*
X128912857Y-82907142D01*
G04 #@! TO.C,C14*
X133977142Y-82907142D02*
X133929523Y-82954761D01*
X133786666Y-83002380D01*
X133691428Y-83002380D01*
X133548571Y-82954761D01*
X133453333Y-82859523D01*
X133405714Y-82764285D01*
X133358095Y-82573809D01*
X133358095Y-82430952D01*
X133405714Y-82240476D01*
X133453333Y-82145238D01*
X133548571Y-82050000D01*
X133691428Y-82002380D01*
X133786666Y-82002380D01*
X133929523Y-82050000D01*
X133977142Y-82097619D01*
X134929523Y-83002380D02*
X134358095Y-83002380D01*
X134643809Y-83002380D02*
X134643809Y-82002380D01*
X134548571Y-82145238D01*
X134453333Y-82240476D01*
X134358095Y-82288095D01*
X135786666Y-82335714D02*
X135786666Y-83002380D01*
X135548571Y-81954761D02*
X135310476Y-82669047D01*
X135929523Y-82669047D01*
G04 #@! TO.C,C15*
X104497142Y-118752857D02*
X104544761Y-118800476D01*
X104592380Y-118943333D01*
X104592380Y-119038571D01*
X104544761Y-119181428D01*
X104449523Y-119276666D01*
X104354285Y-119324285D01*
X104163809Y-119371904D01*
X104020952Y-119371904D01*
X103830476Y-119324285D01*
X103735238Y-119276666D01*
X103640000Y-119181428D01*
X103592380Y-119038571D01*
X103592380Y-118943333D01*
X103640000Y-118800476D01*
X103687619Y-118752857D01*
X104592380Y-117800476D02*
X104592380Y-118371904D01*
X104592380Y-118086190D02*
X103592380Y-118086190D01*
X103735238Y-118181428D01*
X103830476Y-118276666D01*
X103878095Y-118371904D01*
X103592380Y-116895714D02*
X103592380Y-117371904D01*
X104068571Y-117419523D01*
X104020952Y-117371904D01*
X103973333Y-117276666D01*
X103973333Y-117038571D01*
X104020952Y-116943333D01*
X104068571Y-116895714D01*
X104163809Y-116848095D01*
X104401904Y-116848095D01*
X104497142Y-116895714D01*
X104544761Y-116943333D01*
X104592380Y-117038571D01*
X104592380Y-117276666D01*
X104544761Y-117371904D01*
X104497142Y-117419523D01*
G04 #@! TO.C,C16*
X139692142Y-103862142D02*
X139644523Y-103909761D01*
X139501666Y-103957380D01*
X139406428Y-103957380D01*
X139263571Y-103909761D01*
X139168333Y-103814523D01*
X139120714Y-103719285D01*
X139073095Y-103528809D01*
X139073095Y-103385952D01*
X139120714Y-103195476D01*
X139168333Y-103100238D01*
X139263571Y-103005000D01*
X139406428Y-102957380D01*
X139501666Y-102957380D01*
X139644523Y-103005000D01*
X139692142Y-103052619D01*
X140644523Y-103957380D02*
X140073095Y-103957380D01*
X140358809Y-103957380D02*
X140358809Y-102957380D01*
X140263571Y-103100238D01*
X140168333Y-103195476D01*
X140073095Y-103243095D01*
X141501666Y-102957380D02*
X141311190Y-102957380D01*
X141215952Y-103005000D01*
X141168333Y-103052619D01*
X141073095Y-103195476D01*
X141025476Y-103385952D01*
X141025476Y-103766904D01*
X141073095Y-103862142D01*
X141120714Y-103909761D01*
X141215952Y-103957380D01*
X141406428Y-103957380D01*
X141501666Y-103909761D01*
X141549285Y-103862142D01*
X141596904Y-103766904D01*
X141596904Y-103528809D01*
X141549285Y-103433571D01*
X141501666Y-103385952D01*
X141406428Y-103338333D01*
X141215952Y-103338333D01*
X141120714Y-103385952D01*
X141073095Y-103433571D01*
X141025476Y-103528809D01*
G04 #@! TO.C,J1*
X104568666Y-77430380D02*
X104568666Y-78144666D01*
X104521047Y-78287523D01*
X104425809Y-78382761D01*
X104282952Y-78430380D01*
X104187714Y-78430380D01*
X105568666Y-78430380D02*
X104997238Y-78430380D01*
X105282952Y-78430380D02*
X105282952Y-77430380D01*
X105187714Y-77573238D01*
X105092476Y-77668476D01*
X104997238Y-77716095D01*
G04 #@! TO.C,J4*
X107616666Y-92162380D02*
X107616666Y-92876666D01*
X107569047Y-93019523D01*
X107473809Y-93114761D01*
X107330952Y-93162380D01*
X107235714Y-93162380D01*
X108521428Y-92495714D02*
X108521428Y-93162380D01*
X108283333Y-92114761D02*
X108045238Y-92829047D01*
X108664285Y-92829047D01*
G04 #@! TO.C,J5*
X150796666Y-92162380D02*
X150796666Y-92876666D01*
X150749047Y-93019523D01*
X150653809Y-93114761D01*
X150510952Y-93162380D01*
X150415714Y-93162380D01*
X151749047Y-92162380D02*
X151272857Y-92162380D01*
X151225238Y-92638571D01*
X151272857Y-92590952D01*
X151368095Y-92543333D01*
X151606190Y-92543333D01*
X151701428Y-92590952D01*
X151749047Y-92638571D01*
X151796666Y-92733809D01*
X151796666Y-92971904D01*
X151749047Y-93067142D01*
X151701428Y-93114761D01*
X151606190Y-93162380D01*
X151368095Y-93162380D01*
X151272857Y-93114761D01*
X151225238Y-93067142D01*
G04 #@! TO.C,R1*
X124928333Y-120467380D02*
X124595000Y-119991190D01*
X124356904Y-120467380D02*
X124356904Y-119467380D01*
X124737857Y-119467380D01*
X124833095Y-119515000D01*
X124880714Y-119562619D01*
X124928333Y-119657857D01*
X124928333Y-119800714D01*
X124880714Y-119895952D01*
X124833095Y-119943571D01*
X124737857Y-119991190D01*
X124356904Y-119991190D01*
X125880714Y-120467380D02*
X125309285Y-120467380D01*
X125595000Y-120467380D02*
X125595000Y-119467380D01*
X125499761Y-119610238D01*
X125404523Y-119705476D01*
X125309285Y-119753095D01*
G04 #@! TO.C,R2*
X114895333Y-93162380D02*
X114562000Y-92686190D01*
X114323904Y-93162380D02*
X114323904Y-92162380D01*
X114704857Y-92162380D01*
X114800095Y-92210000D01*
X114847714Y-92257619D01*
X114895333Y-92352857D01*
X114895333Y-92495714D01*
X114847714Y-92590952D01*
X114800095Y-92638571D01*
X114704857Y-92686190D01*
X114323904Y-92686190D01*
X115276285Y-92257619D02*
X115323904Y-92210000D01*
X115419142Y-92162380D01*
X115657238Y-92162380D01*
X115752476Y-92210000D01*
X115800095Y-92257619D01*
X115847714Y-92352857D01*
X115847714Y-92448095D01*
X115800095Y-92590952D01*
X115228666Y-93162380D01*
X115847714Y-93162380D01*
G04 #@! TO.C,S1*
X121158095Y-81684761D02*
X121300952Y-81732380D01*
X121539047Y-81732380D01*
X121634285Y-81684761D01*
X121681904Y-81637142D01*
X121729523Y-81541904D01*
X121729523Y-81446666D01*
X121681904Y-81351428D01*
X121634285Y-81303809D01*
X121539047Y-81256190D01*
X121348571Y-81208571D01*
X121253333Y-81160952D01*
X121205714Y-81113333D01*
X121158095Y-81018095D01*
X121158095Y-80922857D01*
X121205714Y-80827619D01*
X121253333Y-80780000D01*
X121348571Y-80732380D01*
X121586666Y-80732380D01*
X121729523Y-80780000D01*
X122681904Y-81732380D02*
X122110476Y-81732380D01*
X122396190Y-81732380D02*
X122396190Y-80732380D01*
X122300952Y-80875238D01*
X122205714Y-80970476D01*
X122110476Y-81018095D01*
G04 #@! TO.C,S2*
X127508095Y-81684761D02*
X127650952Y-81732380D01*
X127889047Y-81732380D01*
X127984285Y-81684761D01*
X128031904Y-81637142D01*
X128079523Y-81541904D01*
X128079523Y-81446666D01*
X128031904Y-81351428D01*
X127984285Y-81303809D01*
X127889047Y-81256190D01*
X127698571Y-81208571D01*
X127603333Y-81160952D01*
X127555714Y-81113333D01*
X127508095Y-81018095D01*
X127508095Y-80922857D01*
X127555714Y-80827619D01*
X127603333Y-80780000D01*
X127698571Y-80732380D01*
X127936666Y-80732380D01*
X128079523Y-80780000D01*
X128460476Y-80827619D02*
X128508095Y-80780000D01*
X128603333Y-80732380D01*
X128841428Y-80732380D01*
X128936666Y-80780000D01*
X128984285Y-80827619D01*
X129031904Y-80922857D01*
X129031904Y-81018095D01*
X128984285Y-81160952D01*
X128412857Y-81732380D01*
X129031904Y-81732380D01*
G04 #@! TO.C,S3*
X133858095Y-81684761D02*
X134000952Y-81732380D01*
X134239047Y-81732380D01*
X134334285Y-81684761D01*
X134381904Y-81637142D01*
X134429523Y-81541904D01*
X134429523Y-81446666D01*
X134381904Y-81351428D01*
X134334285Y-81303809D01*
X134239047Y-81256190D01*
X134048571Y-81208571D01*
X133953333Y-81160952D01*
X133905714Y-81113333D01*
X133858095Y-81018095D01*
X133858095Y-80922857D01*
X133905714Y-80827619D01*
X133953333Y-80780000D01*
X134048571Y-80732380D01*
X134286666Y-80732380D01*
X134429523Y-80780000D01*
X134762857Y-80732380D02*
X135381904Y-80732380D01*
X135048571Y-81113333D01*
X135191428Y-81113333D01*
X135286666Y-81160952D01*
X135334285Y-81208571D01*
X135381904Y-81303809D01*
X135381904Y-81541904D01*
X135334285Y-81637142D01*
X135286666Y-81684761D01*
X135191428Y-81732380D01*
X134905714Y-81732380D01*
X134810476Y-81684761D01*
X134762857Y-81637142D01*
G04 #@! TO.C,S4*
X107823095Y-122959761D02*
X107965952Y-123007380D01*
X108204047Y-123007380D01*
X108299285Y-122959761D01*
X108346904Y-122912142D01*
X108394523Y-122816904D01*
X108394523Y-122721666D01*
X108346904Y-122626428D01*
X108299285Y-122578809D01*
X108204047Y-122531190D01*
X108013571Y-122483571D01*
X107918333Y-122435952D01*
X107870714Y-122388333D01*
X107823095Y-122293095D01*
X107823095Y-122197857D01*
X107870714Y-122102619D01*
X107918333Y-122055000D01*
X108013571Y-122007380D01*
X108251666Y-122007380D01*
X108394523Y-122055000D01*
X109251666Y-122340714D02*
X109251666Y-123007380D01*
X109013571Y-121959761D02*
X108775476Y-122674047D01*
X109394523Y-122674047D01*
G04 #@! TO.C,U1*
X115316095Y-76668380D02*
X115316095Y-77477904D01*
X115363714Y-77573142D01*
X115411333Y-77620761D01*
X115506571Y-77668380D01*
X115697047Y-77668380D01*
X115792285Y-77620761D01*
X115839904Y-77573142D01*
X115887523Y-77477904D01*
X115887523Y-76668380D01*
X116887523Y-77668380D02*
X116316095Y-77668380D01*
X116601809Y-77668380D02*
X116601809Y-76668380D01*
X116506571Y-76811238D01*
X116411333Y-76906476D01*
X116316095Y-76954095D01*
G04 #@! TO.C,U2*
X115443095Y-104862380D02*
X115443095Y-105671904D01*
X115490714Y-105767142D01*
X115538333Y-105814761D01*
X115633571Y-105862380D01*
X115824047Y-105862380D01*
X115919285Y-105814761D01*
X115966904Y-105767142D01*
X116014523Y-105671904D01*
X116014523Y-104862380D01*
X116443095Y-104957619D02*
X116490714Y-104910000D01*
X116585952Y-104862380D01*
X116824047Y-104862380D01*
X116919285Y-104910000D01*
X116966904Y-104957619D01*
X117014523Y-105052857D01*
X117014523Y-105148095D01*
X116966904Y-105290952D01*
X116395476Y-105862380D01*
X117014523Y-105862380D01*
G04 #@! TO.C,U3*
X135148095Y-103252380D02*
X135148095Y-104061904D01*
X135195714Y-104157142D01*
X135243333Y-104204761D01*
X135338571Y-104252380D01*
X135529047Y-104252380D01*
X135624285Y-104204761D01*
X135671904Y-104157142D01*
X135719523Y-104061904D01*
X135719523Y-103252380D01*
X136100476Y-103252380D02*
X136719523Y-103252380D01*
X136386190Y-103633333D01*
X136529047Y-103633333D01*
X136624285Y-103680952D01*
X136671904Y-103728571D01*
X136719523Y-103823809D01*
X136719523Y-104061904D01*
X136671904Y-104157142D01*
X136624285Y-104204761D01*
X136529047Y-104252380D01*
X136243333Y-104252380D01*
X136148095Y-104204761D01*
X136100476Y-104157142D01*
G04 #@! TO.C,Y1*
X113188809Y-123801190D02*
X113188809Y-124277380D01*
X112855476Y-123277380D02*
X113188809Y-123801190D01*
X113522142Y-123277380D01*
X114379285Y-124277380D02*
X113807857Y-124277380D01*
X114093571Y-124277380D02*
X114093571Y-123277380D01*
X113998333Y-123420238D01*
X113903095Y-123515476D01*
X113807857Y-123563095D01*
G04 #@! TO.C,Y2*
X110807809Y-120818190D02*
X110807809Y-121294380D01*
X110474476Y-120294380D02*
X110807809Y-120818190D01*
X111141142Y-120294380D01*
X111426857Y-120389619D02*
X111474476Y-120342000D01*
X111569714Y-120294380D01*
X111807809Y-120294380D01*
X111903047Y-120342000D01*
X111950666Y-120389619D01*
X111998285Y-120484857D01*
X111998285Y-120580095D01*
X111950666Y-120722952D01*
X111379238Y-121294380D01*
X111998285Y-121294380D01*
G04 #@! TD*
M02*
