M48
;DRILL file {KiCad (5.0.1-dev-5-g30da1a3b0)} date Mon Jul 23 01:39:52 2018
;FORMAT={-:-/ absolute / inch / decimal}
FMAT,2
INCH,TZ
T1C0.0130
T2C0.0197
T3C0.0217
T4C0.0315
T5C0.0354
T6C0.0472
T7C0.0866
%
G90
G05
M72
T1
X4.05Y-3.3
X4.0827Y-4.3389
X4.106Y-4.3128
X4.2Y-4.7
X4.4Y-4.4
X4.4Y-4.59
X4.47Y-4.28
X4.5Y-4.31
X4.53Y-4.34
X4.55Y-4.62
X4.56Y-4.37
X4.59Y-4.4
X4.62Y-4.43
X4.66Y-4.62
X4.73Y-4.49
X4.74Y-4.36
X4.83Y-4.64
X4.8608Y-4.3715
X4.8745Y-4.66
X4.9Y-4.74
X4.9035Y-4.3423
X4.94Y-4.48
X4.96Y-4.33
X5.12Y-4.0845
X5.15Y-4.19
X5.32Y-4.46
X5.5Y-4.26
X5.57Y-4.24
X5.65Y-3.3
T4
X4.65Y-4.88
X4.8421Y-4.88
T5
X5.6Y-3.6
X5.6Y-3.6984
X5.6Y-3.7969
X4.4Y-3.6
X4.4Y-3.6984
X4.4Y-3.7969
T6
X4.65Y-3.55
X4.75Y-3.55
X4.85Y-3.55
X4.95Y-3.55
X5.05Y-3.55
X5.15Y-3.55
X5.85Y-3.75
X5.85Y-3.85
X5.85Y-3.95
X5.85Y-4.05
X5.85Y-4.15
X5.85Y-4.25
X4.15Y-3.75
X4.15Y-3.85
X4.15Y-3.95
X4.15Y-4.05
X4.15Y-4.15
X4.15Y-4.25
T7
X4.15Y-4.44
X5.86Y-3.55
X4.15Y-3.55
X5.86Y-4.44
T2
X4.1315Y-3.1384G85X4.1059Y-3.1384
G05
X4.1315Y-3.414G85X4.1059Y-3.414
G05
T3
X4.225Y-3.1719G85X4.225Y-3.1837
G05
X4.225Y-3.3687G85X4.225Y-3.3805
G05
T0
M30
